<?xml version="1.0" encoding="utf-8" standalone="no"?>
<!DOCTYPE svg PUBLIC "-//W3C//DTD SVG 1.1//EN"
  "http://www.w3.org/Graphics/SVG/1.1/DTD/svg11.dtd">
<svg xmlns:xlink="http://www.w3.org/1999/xlink" width="864pt" height="648pt" viewBox="0 0 864 648" xmlns="http://www.w3.org/2000/svg" version="1.1">
 <metadata>
  <rdf:RDF xmlns:dc="http://purl.org/dc/elements/1.1/" xmlns:cc="http://creativecommons.org/ns#" xmlns:rdf="http://www.w3.org/1999/02/22-rdf-syntax-ns#">
   <cc:Work>
    <dc:type rdf:resource="http://purl.org/dc/dcmitype/StillImage"/>
    <dc:date>2023-01-01T04:57:40.070987</dc:date>
    <dc:format>image/svg+xml</dc:format>
    <dc:creator>
     <cc:Agent>
      <dc:title>Matplotlib v3.6.1, https://matplotlib.org/</dc:title>
     </cc:Agent>
    </dc:creator>
   </cc:Work>
  </rdf:RDF>
 </metadata>
 <defs>
  <style type="text/css">*{stroke-linejoin: round; stroke-linecap: butt}</style>
 </defs>
 <g id="figure_1">
  <g id="patch_1">
   <path d="M 0 648 
L 864 648 
L 864 0 
L 0 0 
z
" style="fill: #ffffff"/>
  </g>
  <g id="axes_1">
   <g id="patch_2">
    <path d="M 82.875 595.675 
L 854 595.675 
L 854 10 
L 82.875 10 
z
" style="fill: #ffffff"/>
   </g>
   <g id="matplotlib.axis_1">
    <g id="xtick_1">
     <g id="line2d_1">
      <defs>
       <path id="m38041c397b" d="M 0 0 
L 0 3.5 
" style="stroke: #000000; stroke-width: 0.8"/>
      </defs>
      <g>
       <use xlink:href="#m38041c397b" x="86.69245" y="595.675" style="stroke: #000000; stroke-width: 0.8"/>
      </g>
     </g>
    </g>
    <g id="xtick_2">
     <g id="line2d_2">
      <g>
       <use xlink:href="#m38041c397b" x="94.404472" y="595.675" style="stroke: #000000; stroke-width: 0.8"/>
      </g>
     </g>
    </g>
    <g id="xtick_3">
     <g id="line2d_3">
      <g>
       <use xlink:href="#m38041c397b" x="102.116493" y="595.675" style="stroke: #000000; stroke-width: 0.8"/>
      </g>
     </g>
    </g>
    <g id="xtick_4">
     <g id="line2d_4">
      <g>
       <use xlink:href="#m38041c397b" x="109.828514" y="595.675" style="stroke: #000000; stroke-width: 0.8"/>
      </g>
     </g>
    </g>
    <g id="xtick_5">
     <g id="line2d_5">
      <g>
       <use xlink:href="#m38041c397b" x="117.540535" y="595.675" style="stroke: #000000; stroke-width: 0.8"/>
      </g>
     </g>
     <g id="text_1">
      <!-- 2015 -->
      <g transform="translate(121.40366 638.305) rotate(-90) scale(0.14 -0.14)">
       <defs>
        <path id="DejaVuSans-32" d="M 1228 531 
L 3431 531 
L 3431 0 
L 469 0 
L 469 531 
Q 828 903 1448 1529 
Q 2069 2156 2228 2338 
Q 2531 2678 2651 2914 
Q 2772 3150 2772 3378 
Q 2772 3750 2511 3984 
Q 2250 4219 1831 4219 
Q 1534 4219 1204 4116 
Q 875 4013 500 3803 
L 500 4441 
Q 881 4594 1212 4672 
Q 1544 4750 1819 4750 
Q 2544 4750 2975 4387 
Q 3406 4025 3406 3419 
Q 3406 3131 3298 2873 
Q 3191 2616 2906 2266 
Q 2828 2175 2409 1742 
Q 1991 1309 1228 531 
z
" transform="scale(0.015625)"/>
        <path id="DejaVuSans-30" d="M 2034 4250 
Q 1547 4250 1301 3770 
Q 1056 3291 1056 2328 
Q 1056 1369 1301 889 
Q 1547 409 2034 409 
Q 2525 409 2770 889 
Q 3016 1369 3016 2328 
Q 3016 3291 2770 3770 
Q 2525 4250 2034 4250 
z
M 2034 4750 
Q 2819 4750 3233 4129 
Q 3647 3509 3647 2328 
Q 3647 1150 3233 529 
Q 2819 -91 2034 -91 
Q 1250 -91 836 529 
Q 422 1150 422 2328 
Q 422 3509 836 4129 
Q 1250 4750 2034 4750 
z
" transform="scale(0.015625)"/>
        <path id="DejaVuSans-31" d="M 794 531 
L 1825 531 
L 1825 4091 
L 703 3866 
L 703 4441 
L 1819 4666 
L 2450 4666 
L 2450 531 
L 3481 531 
L 3481 0 
L 794 0 
L 794 531 
z
" transform="scale(0.015625)"/>
        <path id="DejaVuSans-35" d="M 691 4666 
L 3169 4666 
L 3169 4134 
L 1269 4134 
L 1269 2991 
Q 1406 3038 1543 3061 
Q 1681 3084 1819 3084 
Q 2600 3084 3056 2656 
Q 3513 2228 3513 1497 
Q 3513 744 3044 326 
Q 2575 -91 1722 -91 
Q 1428 -91 1123 -41 
Q 819 9 494 109 
L 494 744 
Q 775 591 1075 516 
Q 1375 441 1709 441 
Q 2250 441 2565 725 
Q 2881 1009 2881 1497 
Q 2881 1984 2565 2268 
Q 2250 2553 1709 2553 
Q 1456 2553 1204 2497 
Q 953 2441 691 2322 
L 691 4666 
z
" transform="scale(0.015625)"/>
       </defs>
       <use xlink:href="#DejaVuSans-32"/>
       <use xlink:href="#DejaVuSans-30" x="63.623047"/>
       <use xlink:href="#DejaVuSans-31" x="127.246094"/>
       <use xlink:href="#DejaVuSans-35" x="190.869141"/>
      </g>
     </g>
    </g>
    <g id="xtick_6">
     <g id="line2d_6">
      <g>
       <use xlink:href="#m38041c397b" x="125.252557" y="595.675" style="stroke: #000000; stroke-width: 0.8"/>
      </g>
     </g>
    </g>
    <g id="xtick_7">
     <g id="line2d_7">
      <g>
       <use xlink:href="#m38041c397b" x="132.964578" y="595.675" style="stroke: #000000; stroke-width: 0.8"/>
      </g>
     </g>
    </g>
    <g id="xtick_8">
     <g id="line2d_8">
      <g>
       <use xlink:href="#m38041c397b" x="140.676599" y="595.675" style="stroke: #000000; stroke-width: 0.8"/>
      </g>
     </g>
    </g>
    <g id="xtick_9">
     <g id="line2d_9">
      <g>
       <use xlink:href="#m38041c397b" x="148.38862" y="595.675" style="stroke: #000000; stroke-width: 0.8"/>
      </g>
     </g>
    </g>
    <g id="xtick_10">
     <g id="line2d_10">
      <g>
       <use xlink:href="#m38041c397b" x="156.100641" y="595.675" style="stroke: #000000; stroke-width: 0.8"/>
      </g>
     </g>
    </g>
    <g id="xtick_11">
     <g id="line2d_11">
      <g>
       <use xlink:href="#m38041c397b" x="163.812663" y="595.675" style="stroke: #000000; stroke-width: 0.8"/>
      </g>
     </g>
    </g>
    <g id="xtick_12">
     <g id="line2d_12">
      <g>
       <use xlink:href="#m38041c397b" x="171.524684" y="595.675" style="stroke: #000000; stroke-width: 0.8"/>
      </g>
     </g>
    </g>
    <g id="xtick_13">
     <g id="line2d_13">
      <g>
       <use xlink:href="#m38041c397b" x="179.236705" y="595.675" style="stroke: #000000; stroke-width: 0.8"/>
      </g>
     </g>
    </g>
    <g id="xtick_14">
     <g id="line2d_14">
      <g>
       <use xlink:href="#m38041c397b" x="186.948726" y="595.675" style="stroke: #000000; stroke-width: 0.8"/>
      </g>
     </g>
    </g>
    <g id="xtick_15">
     <g id="line2d_15">
      <g>
       <use xlink:href="#m38041c397b" x="194.660747" y="595.675" style="stroke: #000000; stroke-width: 0.8"/>
      </g>
     </g>
    </g>
    <g id="xtick_16">
     <g id="line2d_16">
      <g>
       <use xlink:href="#m38041c397b" x="202.372769" y="595.675" style="stroke: #000000; stroke-width: 0.8"/>
      </g>
     </g>
    </g>
    <g id="xtick_17">
     <g id="line2d_17">
      <g>
       <use xlink:href="#m38041c397b" x="210.08479" y="595.675" style="stroke: #000000; stroke-width: 0.8"/>
      </g>
     </g>
     <g id="text_2">
      <!-- 2016 -->
      <g transform="translate(213.947915 638.305) rotate(-90) scale(0.14 -0.14)">
       <defs>
        <path id="DejaVuSans-36" d="M 2113 2584 
Q 1688 2584 1439 2293 
Q 1191 2003 1191 1497 
Q 1191 994 1439 701 
Q 1688 409 2113 409 
Q 2538 409 2786 701 
Q 3034 994 3034 1497 
Q 3034 2003 2786 2293 
Q 2538 2584 2113 2584 
z
M 3366 4563 
L 3366 3988 
Q 3128 4100 2886 4159 
Q 2644 4219 2406 4219 
Q 1781 4219 1451 3797 
Q 1122 3375 1075 2522 
Q 1259 2794 1537 2939 
Q 1816 3084 2150 3084 
Q 2853 3084 3261 2657 
Q 3669 2231 3669 1497 
Q 3669 778 3244 343 
Q 2819 -91 2113 -91 
Q 1303 -91 875 529 
Q 447 1150 447 2328 
Q 447 3434 972 4092 
Q 1497 4750 2381 4750 
Q 2619 4750 2861 4703 
Q 3103 4656 3366 4563 
z
" transform="scale(0.015625)"/>
       </defs>
       <use xlink:href="#DejaVuSans-32"/>
       <use xlink:href="#DejaVuSans-30" x="63.623047"/>
       <use xlink:href="#DejaVuSans-31" x="127.246094"/>
       <use xlink:href="#DejaVuSans-36" x="190.869141"/>
      </g>
     </g>
    </g>
    <g id="xtick_18">
     <g id="line2d_18">
      <g>
       <use xlink:href="#m38041c397b" x="217.796811" y="595.675" style="stroke: #000000; stroke-width: 0.8"/>
      </g>
     </g>
    </g>
    <g id="xtick_19">
     <g id="line2d_19">
      <g>
       <use xlink:href="#m38041c397b" x="225.508832" y="595.675" style="stroke: #000000; stroke-width: 0.8"/>
      </g>
     </g>
    </g>
    <g id="xtick_20">
     <g id="line2d_20">
      <g>
       <use xlink:href="#m38041c397b" x="233.220853" y="595.675" style="stroke: #000000; stroke-width: 0.8"/>
      </g>
     </g>
    </g>
    <g id="xtick_21">
     <g id="line2d_21">
      <g>
       <use xlink:href="#m38041c397b" x="240.932875" y="595.675" style="stroke: #000000; stroke-width: 0.8"/>
      </g>
     </g>
    </g>
    <g id="xtick_22">
     <g id="line2d_22">
      <g>
       <use xlink:href="#m38041c397b" x="248.644896" y="595.675" style="stroke: #000000; stroke-width: 0.8"/>
      </g>
     </g>
    </g>
    <g id="xtick_23">
     <g id="line2d_23">
      <g>
       <use xlink:href="#m38041c397b" x="256.356917" y="595.675" style="stroke: #000000; stroke-width: 0.8"/>
      </g>
     </g>
    </g>
    <g id="xtick_24">
     <g id="line2d_24">
      <g>
       <use xlink:href="#m38041c397b" x="264.068938" y="595.675" style="stroke: #000000; stroke-width: 0.8"/>
      </g>
     </g>
    </g>
    <g id="xtick_25">
     <g id="line2d_25">
      <g>
       <use xlink:href="#m38041c397b" x="271.780959" y="595.675" style="stroke: #000000; stroke-width: 0.8"/>
      </g>
     </g>
    </g>
    <g id="xtick_26">
     <g id="line2d_26">
      <g>
       <use xlink:href="#m38041c397b" x="279.492981" y="595.675" style="stroke: #000000; stroke-width: 0.8"/>
      </g>
     </g>
    </g>
    <g id="xtick_27">
     <g id="line2d_27">
      <g>
       <use xlink:href="#m38041c397b" x="287.205002" y="595.675" style="stroke: #000000; stroke-width: 0.8"/>
      </g>
     </g>
    </g>
    <g id="xtick_28">
     <g id="line2d_28">
      <g>
       <use xlink:href="#m38041c397b" x="294.917023" y="595.675" style="stroke: #000000; stroke-width: 0.8"/>
      </g>
     </g>
    </g>
    <g id="xtick_29">
     <g id="line2d_29">
      <g>
       <use xlink:href="#m38041c397b" x="302.629044" y="595.675" style="stroke: #000000; stroke-width: 0.8"/>
      </g>
     </g>
     <g id="text_3">
      <!-- 2017 -->
      <g transform="translate(306.492169 638.305) rotate(-90) scale(0.14 -0.14)">
       <defs>
        <path id="DejaVuSans-37" d="M 525 4666 
L 3525 4666 
L 3525 4397 
L 1831 0 
L 1172 0 
L 2766 4134 
L 525 4134 
L 525 4666 
z
" transform="scale(0.015625)"/>
       </defs>
       <use xlink:href="#DejaVuSans-32"/>
       <use xlink:href="#DejaVuSans-30" x="63.623047"/>
       <use xlink:href="#DejaVuSans-31" x="127.246094"/>
       <use xlink:href="#DejaVuSans-37" x="190.869141"/>
      </g>
     </g>
    </g>
    <g id="xtick_30">
     <g id="line2d_30">
      <g>
       <use xlink:href="#m38041c397b" x="310.341065" y="595.675" style="stroke: #000000; stroke-width: 0.8"/>
      </g>
     </g>
    </g>
    <g id="xtick_31">
     <g id="line2d_31">
      <g>
       <use xlink:href="#m38041c397b" x="318.053087" y="595.675" style="stroke: #000000; stroke-width: 0.8"/>
      </g>
     </g>
    </g>
    <g id="xtick_32">
     <g id="line2d_32">
      <g>
       <use xlink:href="#m38041c397b" x="325.765108" y="595.675" style="stroke: #000000; stroke-width: 0.8"/>
      </g>
     </g>
    </g>
    <g id="xtick_33">
     <g id="line2d_33">
      <g>
       <use xlink:href="#m38041c397b" x="333.477129" y="595.675" style="stroke: #000000; stroke-width: 0.8"/>
      </g>
     </g>
    </g>
    <g id="xtick_34">
     <g id="line2d_34">
      <g>
       <use xlink:href="#m38041c397b" x="341.18915" y="595.675" style="stroke: #000000; stroke-width: 0.8"/>
      </g>
     </g>
    </g>
    <g id="xtick_35">
     <g id="line2d_35">
      <g>
       <use xlink:href="#m38041c397b" x="348.901171" y="595.675" style="stroke: #000000; stroke-width: 0.8"/>
      </g>
     </g>
    </g>
    <g id="xtick_36">
     <g id="line2d_36">
      <g>
       <use xlink:href="#m38041c397b" x="356.613193" y="595.675" style="stroke: #000000; stroke-width: 0.8"/>
      </g>
     </g>
    </g>
    <g id="xtick_37">
     <g id="line2d_37">
      <g>
       <use xlink:href="#m38041c397b" x="364.325214" y="595.675" style="stroke: #000000; stroke-width: 0.8"/>
      </g>
     </g>
    </g>
    <g id="xtick_38">
     <g id="line2d_38">
      <g>
       <use xlink:href="#m38041c397b" x="372.037235" y="595.675" style="stroke: #000000; stroke-width: 0.8"/>
      </g>
     </g>
    </g>
    <g id="xtick_39">
     <g id="line2d_39">
      <g>
       <use xlink:href="#m38041c397b" x="379.749256" y="595.675" style="stroke: #000000; stroke-width: 0.8"/>
      </g>
     </g>
    </g>
    <g id="xtick_40">
     <g id="line2d_40">
      <g>
       <use xlink:href="#m38041c397b" x="387.461277" y="595.675" style="stroke: #000000; stroke-width: 0.8"/>
      </g>
     </g>
    </g>
    <g id="xtick_41">
     <g id="line2d_41">
      <g>
       <use xlink:href="#m38041c397b" x="395.173299" y="595.675" style="stroke: #000000; stroke-width: 0.8"/>
      </g>
     </g>
     <g id="text_4">
      <!-- 2018 -->
      <g transform="translate(399.036424 638.305) rotate(-90) scale(0.14 -0.14)">
       <defs>
        <path id="DejaVuSans-38" d="M 2034 2216 
Q 1584 2216 1326 1975 
Q 1069 1734 1069 1313 
Q 1069 891 1326 650 
Q 1584 409 2034 409 
Q 2484 409 2743 651 
Q 3003 894 3003 1313 
Q 3003 1734 2745 1975 
Q 2488 2216 2034 2216 
z
M 1403 2484 
Q 997 2584 770 2862 
Q 544 3141 544 3541 
Q 544 4100 942 4425 
Q 1341 4750 2034 4750 
Q 2731 4750 3128 4425 
Q 3525 4100 3525 3541 
Q 3525 3141 3298 2862 
Q 3072 2584 2669 2484 
Q 3125 2378 3379 2068 
Q 3634 1759 3634 1313 
Q 3634 634 3220 271 
Q 2806 -91 2034 -91 
Q 1263 -91 848 271 
Q 434 634 434 1313 
Q 434 1759 690 2068 
Q 947 2378 1403 2484 
z
M 1172 3481 
Q 1172 3119 1398 2916 
Q 1625 2713 2034 2713 
Q 2441 2713 2670 2916 
Q 2900 3119 2900 3481 
Q 2900 3844 2670 4047 
Q 2441 4250 2034 4250 
Q 1625 4250 1398 4047 
Q 1172 3844 1172 3481 
z
" transform="scale(0.015625)"/>
       </defs>
       <use xlink:href="#DejaVuSans-32"/>
       <use xlink:href="#DejaVuSans-30" x="63.623047"/>
       <use xlink:href="#DejaVuSans-31" x="127.246094"/>
       <use xlink:href="#DejaVuSans-38" x="190.869141"/>
      </g>
     </g>
    </g>
    <g id="xtick_42">
     <g id="line2d_42">
      <g>
       <use xlink:href="#m38041c397b" x="402.88532" y="595.675" style="stroke: #000000; stroke-width: 0.8"/>
      </g>
     </g>
    </g>
    <g id="xtick_43">
     <g id="line2d_43">
      <g>
       <use xlink:href="#m38041c397b" x="410.597341" y="595.675" style="stroke: #000000; stroke-width: 0.8"/>
      </g>
     </g>
    </g>
    <g id="xtick_44">
     <g id="line2d_44">
      <g>
       <use xlink:href="#m38041c397b" x="418.309362" y="595.675" style="stroke: #000000; stroke-width: 0.8"/>
      </g>
     </g>
    </g>
    <g id="xtick_45">
     <g id="line2d_45">
      <g>
       <use xlink:href="#m38041c397b" x="426.021383" y="595.675" style="stroke: #000000; stroke-width: 0.8"/>
      </g>
     </g>
    </g>
    <g id="xtick_46">
     <g id="line2d_46">
      <g>
       <use xlink:href="#m38041c397b" x="433.733405" y="595.675" style="stroke: #000000; stroke-width: 0.8"/>
      </g>
     </g>
    </g>
    <g id="xtick_47">
     <g id="line2d_47">
      <g>
       <use xlink:href="#m38041c397b" x="441.445426" y="595.675" style="stroke: #000000; stroke-width: 0.8"/>
      </g>
     </g>
    </g>
    <g id="xtick_48">
     <g id="line2d_48">
      <g>
       <use xlink:href="#m38041c397b" x="449.157447" y="595.675" style="stroke: #000000; stroke-width: 0.8"/>
      </g>
     </g>
    </g>
    <g id="xtick_49">
     <g id="line2d_49">
      <g>
       <use xlink:href="#m38041c397b" x="456.869468" y="595.675" style="stroke: #000000; stroke-width: 0.8"/>
      </g>
     </g>
    </g>
    <g id="xtick_50">
     <g id="line2d_50">
      <g>
       <use xlink:href="#m38041c397b" x="464.581489" y="595.675" style="stroke: #000000; stroke-width: 0.8"/>
      </g>
     </g>
    </g>
    <g id="xtick_51">
     <g id="line2d_51">
      <g>
       <use xlink:href="#m38041c397b" x="472.293511" y="595.675" style="stroke: #000000; stroke-width: 0.8"/>
      </g>
     </g>
    </g>
    <g id="xtick_52">
     <g id="line2d_52">
      <g>
       <use xlink:href="#m38041c397b" x="480.005532" y="595.675" style="stroke: #000000; stroke-width: 0.8"/>
      </g>
     </g>
    </g>
    <g id="xtick_53">
     <g id="line2d_53">
      <g>
       <use xlink:href="#m38041c397b" x="487.717553" y="595.675" style="stroke: #000000; stroke-width: 0.8"/>
      </g>
     </g>
     <g id="text_5">
      <!-- 2019 -->
      <g transform="translate(491.580678 638.305) rotate(-90) scale(0.14 -0.14)">
       <defs>
        <path id="DejaVuSans-39" d="M 703 97 
L 703 672 
Q 941 559 1184 500 
Q 1428 441 1663 441 
Q 2288 441 2617 861 
Q 2947 1281 2994 2138 
Q 2813 1869 2534 1725 
Q 2256 1581 1919 1581 
Q 1219 1581 811 2004 
Q 403 2428 403 3163 
Q 403 3881 828 4315 
Q 1253 4750 1959 4750 
Q 2769 4750 3195 4129 
Q 3622 3509 3622 2328 
Q 3622 1225 3098 567 
Q 2575 -91 1691 -91 
Q 1453 -91 1209 -44 
Q 966 3 703 97 
z
M 1959 2075 
Q 2384 2075 2632 2365 
Q 2881 2656 2881 3163 
Q 2881 3666 2632 3958 
Q 2384 4250 1959 4250 
Q 1534 4250 1286 3958 
Q 1038 3666 1038 3163 
Q 1038 2656 1286 2365 
Q 1534 2075 1959 2075 
z
" transform="scale(0.015625)"/>
       </defs>
       <use xlink:href="#DejaVuSans-32"/>
       <use xlink:href="#DejaVuSans-30" x="63.623047"/>
       <use xlink:href="#DejaVuSans-31" x="127.246094"/>
       <use xlink:href="#DejaVuSans-39" x="190.869141"/>
      </g>
     </g>
    </g>
    <g id="xtick_54">
     <g id="line2d_54">
      <g>
       <use xlink:href="#m38041c397b" x="495.429574" y="595.675" style="stroke: #000000; stroke-width: 0.8"/>
      </g>
     </g>
    </g>
    <g id="xtick_55">
     <g id="line2d_55">
      <g>
       <use xlink:href="#m38041c397b" x="503.141595" y="595.675" style="stroke: #000000; stroke-width: 0.8"/>
      </g>
     </g>
    </g>
    <g id="xtick_56">
     <g id="line2d_56">
      <g>
       <use xlink:href="#m38041c397b" x="510.853617" y="595.675" style="stroke: #000000; stroke-width: 0.8"/>
      </g>
     </g>
    </g>
    <g id="xtick_57">
     <g id="line2d_57">
      <g>
       <use xlink:href="#m38041c397b" x="518.565638" y="595.675" style="stroke: #000000; stroke-width: 0.8"/>
      </g>
     </g>
    </g>
    <g id="xtick_58">
     <g id="line2d_58">
      <g>
       <use xlink:href="#m38041c397b" x="526.277659" y="595.675" style="stroke: #000000; stroke-width: 0.8"/>
      </g>
     </g>
    </g>
    <g id="xtick_59">
     <g id="line2d_59">
      <g>
       <use xlink:href="#m38041c397b" x="533.98968" y="595.675" style="stroke: #000000; stroke-width: 0.8"/>
      </g>
     </g>
    </g>
    <g id="xtick_60">
     <g id="line2d_60">
      <g>
       <use xlink:href="#m38041c397b" x="541.701701" y="595.675" style="stroke: #000000; stroke-width: 0.8"/>
      </g>
     </g>
    </g>
    <g id="xtick_61">
     <g id="line2d_61">
      <g>
       <use xlink:href="#m38041c397b" x="549.413723" y="595.675" style="stroke: #000000; stroke-width: 0.8"/>
      </g>
     </g>
    </g>
    <g id="xtick_62">
     <g id="line2d_62">
      <g>
       <use xlink:href="#m38041c397b" x="557.125744" y="595.675" style="stroke: #000000; stroke-width: 0.8"/>
      </g>
     </g>
    </g>
    <g id="xtick_63">
     <g id="line2d_63">
      <g>
       <use xlink:href="#m38041c397b" x="564.837765" y="595.675" style="stroke: #000000; stroke-width: 0.8"/>
      </g>
     </g>
    </g>
    <g id="xtick_64">
     <g id="line2d_64">
      <g>
       <use xlink:href="#m38041c397b" x="572.549786" y="595.675" style="stroke: #000000; stroke-width: 0.8"/>
      </g>
     </g>
    </g>
    <g id="xtick_65">
     <g id="line2d_65">
      <g>
       <use xlink:href="#m38041c397b" x="580.261807" y="595.675" style="stroke: #000000; stroke-width: 0.8"/>
      </g>
     </g>
     <g id="text_6">
      <!-- 2020 -->
      <g transform="translate(584.124932 638.305) rotate(-90) scale(0.14 -0.14)">
       <use xlink:href="#DejaVuSans-32"/>
       <use xlink:href="#DejaVuSans-30" x="63.623047"/>
       <use xlink:href="#DejaVuSans-32" x="127.246094"/>
       <use xlink:href="#DejaVuSans-30" x="190.869141"/>
      </g>
     </g>
    </g>
    <g id="xtick_66">
     <g id="line2d_66">
      <g>
       <use xlink:href="#m38041c397b" x="587.973829" y="595.675" style="stroke: #000000; stroke-width: 0.8"/>
      </g>
     </g>
    </g>
    <g id="xtick_67">
     <g id="line2d_67">
      <g>
       <use xlink:href="#m38041c397b" x="595.68585" y="595.675" style="stroke: #000000; stroke-width: 0.8"/>
      </g>
     </g>
    </g>
    <g id="xtick_68">
     <g id="line2d_68">
      <g>
       <use xlink:href="#m38041c397b" x="603.397871" y="595.675" style="stroke: #000000; stroke-width: 0.8"/>
      </g>
     </g>
    </g>
    <g id="xtick_69">
     <g id="line2d_69">
      <g>
       <use xlink:href="#m38041c397b" x="611.109892" y="595.675" style="stroke: #000000; stroke-width: 0.8"/>
      </g>
     </g>
    </g>
    <g id="xtick_70">
     <g id="line2d_70">
      <g>
       <use xlink:href="#m38041c397b" x="618.821913" y="595.675" style="stroke: #000000; stroke-width: 0.8"/>
      </g>
     </g>
    </g>
    <g id="xtick_71">
     <g id="line2d_71">
      <g>
       <use xlink:href="#m38041c397b" x="626.533935" y="595.675" style="stroke: #000000; stroke-width: 0.8"/>
      </g>
     </g>
    </g>
    <g id="xtick_72">
     <g id="line2d_72">
      <g>
       <use xlink:href="#m38041c397b" x="634.245956" y="595.675" style="stroke: #000000; stroke-width: 0.8"/>
      </g>
     </g>
    </g>
    <g id="xtick_73">
     <g id="line2d_73">
      <g>
       <use xlink:href="#m38041c397b" x="641.957977" y="595.675" style="stroke: #000000; stroke-width: 0.8"/>
      </g>
     </g>
    </g>
    <g id="xtick_74">
     <g id="line2d_74">
      <g>
       <use xlink:href="#m38041c397b" x="649.669998" y="595.675" style="stroke: #000000; stroke-width: 0.8"/>
      </g>
     </g>
    </g>
    <g id="xtick_75">
     <g id="line2d_75">
      <g>
       <use xlink:href="#m38041c397b" x="657.382019" y="595.675" style="stroke: #000000; stroke-width: 0.8"/>
      </g>
     </g>
    </g>
    <g id="xtick_76">
     <g id="line2d_76">
      <g>
       <use xlink:href="#m38041c397b" x="665.094041" y="595.675" style="stroke: #000000; stroke-width: 0.8"/>
      </g>
     </g>
    </g>
    <g id="xtick_77">
     <g id="line2d_77">
      <g>
       <use xlink:href="#m38041c397b" x="672.806062" y="595.675" style="stroke: #000000; stroke-width: 0.8"/>
      </g>
     </g>
     <g id="text_7">
      <!-- 2021 -->
      <g transform="translate(676.669187 638.305) rotate(-90) scale(0.14 -0.14)">
       <use xlink:href="#DejaVuSans-32"/>
       <use xlink:href="#DejaVuSans-30" x="63.623047"/>
       <use xlink:href="#DejaVuSans-32" x="127.246094"/>
       <use xlink:href="#DejaVuSans-31" x="190.869141"/>
      </g>
     </g>
    </g>
    <g id="xtick_78">
     <g id="line2d_78">
      <g>
       <use xlink:href="#m38041c397b" x="680.518083" y="595.675" style="stroke: #000000; stroke-width: 0.8"/>
      </g>
     </g>
    </g>
    <g id="xtick_79">
     <g id="line2d_79">
      <g>
       <use xlink:href="#m38041c397b" x="688.230104" y="595.675" style="stroke: #000000; stroke-width: 0.8"/>
      </g>
     </g>
    </g>
    <g id="xtick_80">
     <g id="line2d_80">
      <g>
       <use xlink:href="#m38041c397b" x="695.942125" y="595.675" style="stroke: #000000; stroke-width: 0.8"/>
      </g>
     </g>
    </g>
    <g id="xtick_81">
     <g id="line2d_81">
      <g>
       <use xlink:href="#m38041c397b" x="703.654147" y="595.675" style="stroke: #000000; stroke-width: 0.8"/>
      </g>
     </g>
    </g>
    <g id="xtick_82">
     <g id="line2d_82">
      <g>
       <use xlink:href="#m38041c397b" x="711.366168" y="595.675" style="stroke: #000000; stroke-width: 0.8"/>
      </g>
     </g>
    </g>
    <g id="xtick_83">
     <g id="line2d_83">
      <g>
       <use xlink:href="#m38041c397b" x="719.078189" y="595.675" style="stroke: #000000; stroke-width: 0.8"/>
      </g>
     </g>
    </g>
    <g id="xtick_84">
     <g id="line2d_84">
      <g>
       <use xlink:href="#m38041c397b" x="726.79021" y="595.675" style="stroke: #000000; stroke-width: 0.8"/>
      </g>
     </g>
    </g>
    <g id="xtick_85">
     <g id="line2d_85">
      <g>
       <use xlink:href="#m38041c397b" x="734.502231" y="595.675" style="stroke: #000000; stroke-width: 0.8"/>
      </g>
     </g>
    </g>
    <g id="xtick_86">
     <g id="line2d_86">
      <g>
       <use xlink:href="#m38041c397b" x="742.214253" y="595.675" style="stroke: #000000; stroke-width: 0.8"/>
      </g>
     </g>
    </g>
    <g id="xtick_87">
     <g id="line2d_87">
      <g>
       <use xlink:href="#m38041c397b" x="749.926274" y="595.675" style="stroke: #000000; stroke-width: 0.8"/>
      </g>
     </g>
    </g>
    <g id="xtick_88">
     <g id="line2d_88">
      <g>
       <use xlink:href="#m38041c397b" x="757.638295" y="595.675" style="stroke: #000000; stroke-width: 0.8"/>
      </g>
     </g>
    </g>
    <g id="xtick_89">
     <g id="line2d_89">
      <g>
       <use xlink:href="#m38041c397b" x="765.350316" y="595.675" style="stroke: #000000; stroke-width: 0.8"/>
      </g>
     </g>
     <g id="text_8">
      <!-- 2022 -->
      <g transform="translate(769.213441 638.305) rotate(-90) scale(0.14 -0.14)">
       <use xlink:href="#DejaVuSans-32"/>
       <use xlink:href="#DejaVuSans-30" x="63.623047"/>
       <use xlink:href="#DejaVuSans-32" x="127.246094"/>
       <use xlink:href="#DejaVuSans-32" x="190.869141"/>
      </g>
     </g>
    </g>
    <g id="xtick_90">
     <g id="line2d_90">
      <g>
       <use xlink:href="#m38041c397b" x="773.062337" y="595.675" style="stroke: #000000; stroke-width: 0.8"/>
      </g>
     </g>
    </g>
    <g id="xtick_91">
     <g id="line2d_91">
      <g>
       <use xlink:href="#m38041c397b" x="780.774359" y="595.675" style="stroke: #000000; stroke-width: 0.8"/>
      </g>
     </g>
    </g>
    <g id="xtick_92">
     <g id="line2d_92">
      <g>
       <use xlink:href="#m38041c397b" x="788.48638" y="595.675" style="stroke: #000000; stroke-width: 0.8"/>
      </g>
     </g>
    </g>
    <g id="xtick_93">
     <g id="line2d_93">
      <g>
       <use xlink:href="#m38041c397b" x="796.198401" y="595.675" style="stroke: #000000; stroke-width: 0.8"/>
      </g>
     </g>
    </g>
    <g id="xtick_94">
     <g id="line2d_94">
      <g>
       <use xlink:href="#m38041c397b" x="803.910422" y="595.675" style="stroke: #000000; stroke-width: 0.8"/>
      </g>
     </g>
    </g>
    <g id="xtick_95">
     <g id="line2d_95">
      <g>
       <use xlink:href="#m38041c397b" x="811.622443" y="595.675" style="stroke: #000000; stroke-width: 0.8"/>
      </g>
     </g>
    </g>
    <g id="xtick_96">
     <g id="line2d_96">
      <g>
       <use xlink:href="#m38041c397b" x="819.334465" y="595.675" style="stroke: #000000; stroke-width: 0.8"/>
      </g>
     </g>
    </g>
    <g id="xtick_97">
     <g id="line2d_97">
      <g>
       <use xlink:href="#m38041c397b" x="827.046486" y="595.675" style="stroke: #000000; stroke-width: 0.8"/>
      </g>
     </g>
    </g>
    <g id="xtick_98">
     <g id="line2d_98">
      <g>
       <use xlink:href="#m38041c397b" x="834.758507" y="595.675" style="stroke: #000000; stroke-width: 0.8"/>
      </g>
     </g>
    </g>
    <g id="xtick_99">
     <g id="line2d_99">
      <g>
       <use xlink:href="#m38041c397b" x="842.470528" y="595.675" style="stroke: #000000; stroke-width: 0.8"/>
      </g>
     </g>
    </g>
    <g id="xtick_100">
     <g id="line2d_100">
      <g>
       <use xlink:href="#m38041c397b" x="850.18255" y="595.675" style="stroke: #000000; stroke-width: 0.8"/>
      </g>
     </g>
    </g>
   </g>
   <g id="matplotlib.axis_2">
    <g id="ytick_1">
     <g id="line2d_101">
      <defs>
       <path id="m2d3e378902" d="M 0 0 
L -3.5 0 
" style="stroke: #000000; stroke-width: 0.8"/>
      </defs>
      <g>
       <use xlink:href="#m2d3e378902" x="82.875" y="510.427991" style="stroke: #000000; stroke-width: 0.8"/>
      </g>
     </g>
     <g id="text_9">
      <!-- 50000 -->
      <g transform="translate(31.3375 515.746897) scale(0.14 -0.14)">
       <use xlink:href="#DejaVuSans-35"/>
       <use xlink:href="#DejaVuSans-30" x="63.623047"/>
       <use xlink:href="#DejaVuSans-30" x="127.246094"/>
       <use xlink:href="#DejaVuSans-30" x="190.869141"/>
       <use xlink:href="#DejaVuSans-30" x="254.492188"/>
      </g>
     </g>
    </g>
    <g id="ytick_2">
     <g id="line2d_102">
      <g>
       <use xlink:href="#m2d3e378902" x="82.875" y="392.522393" style="stroke: #000000; stroke-width: 0.8"/>
      </g>
     </g>
     <g id="text_10">
      <!-- 100000 -->
      <g transform="translate(22.43 397.841299) scale(0.14 -0.14)">
       <use xlink:href="#DejaVuSans-31"/>
       <use xlink:href="#DejaVuSans-30" x="63.623047"/>
       <use xlink:href="#DejaVuSans-30" x="127.246094"/>
       <use xlink:href="#DejaVuSans-30" x="190.869141"/>
       <use xlink:href="#DejaVuSans-30" x="254.492188"/>
       <use xlink:href="#DejaVuSans-30" x="318.115234"/>
      </g>
     </g>
    </g>
    <g id="ytick_3">
     <g id="line2d_103">
      <g>
       <use xlink:href="#m2d3e378902" x="82.875" y="274.616795" style="stroke: #000000; stroke-width: 0.8"/>
      </g>
     </g>
     <g id="text_11">
      <!-- 150000 -->
      <g transform="translate(22.43 279.935701) scale(0.14 -0.14)">
       <use xlink:href="#DejaVuSans-31"/>
       <use xlink:href="#DejaVuSans-35" x="63.623047"/>
       <use xlink:href="#DejaVuSans-30" x="127.246094"/>
       <use xlink:href="#DejaVuSans-30" x="190.869141"/>
       <use xlink:href="#DejaVuSans-30" x="254.492188"/>
       <use xlink:href="#DejaVuSans-30" x="318.115234"/>
      </g>
     </g>
    </g>
    <g id="ytick_4">
     <g id="line2d_104">
      <g>
       <use xlink:href="#m2d3e378902" x="82.875" y="156.711197" style="stroke: #000000; stroke-width: 0.8"/>
      </g>
     </g>
     <g id="text_12">
      <!-- 200000 -->
      <g transform="translate(22.43 162.030103) scale(0.14 -0.14)">
       <use xlink:href="#DejaVuSans-32"/>
       <use xlink:href="#DejaVuSans-30" x="63.623047"/>
       <use xlink:href="#DejaVuSans-30" x="127.246094"/>
       <use xlink:href="#DejaVuSans-30" x="190.869141"/>
       <use xlink:href="#DejaVuSans-30" x="254.492188"/>
       <use xlink:href="#DejaVuSans-30" x="318.115234"/>
      </g>
     </g>
    </g>
    <g id="ytick_5">
     <g id="line2d_105">
      <g>
       <use xlink:href="#m2d3e378902" x="82.875" y="38.805599" style="stroke: #000000; stroke-width: 0.8"/>
      </g>
     </g>
     <g id="text_13">
      <!-- 250000 -->
      <g transform="translate(22.43 44.124505) scale(0.14 -0.14)">
       <use xlink:href="#DejaVuSans-32"/>
       <use xlink:href="#DejaVuSans-35" x="63.623047"/>
       <use xlink:href="#DejaVuSans-30" x="127.246094"/>
       <use xlink:href="#DejaVuSans-30" x="190.869141"/>
       <use xlink:href="#DejaVuSans-30" x="254.492188"/>
       <use xlink:href="#DejaVuSans-30" x="318.115234"/>
      </g>
     </g>
    </g>
    <g id="text_14">
     <!-- Petitions -->
     <g transform="translate(16.350312 324.278906) rotate(-90) scale(0.1 -0.1)">
      <defs>
       <path id="DejaVuSans-50" d="M 1259 4147 
L 1259 2394 
L 2053 2394 
Q 2494 2394 2734 2622 
Q 2975 2850 2975 3272 
Q 2975 3691 2734 3919 
Q 2494 4147 2053 4147 
L 1259 4147 
z
M 628 4666 
L 2053 4666 
Q 2838 4666 3239 4311 
Q 3641 3956 3641 3272 
Q 3641 2581 3239 2228 
Q 2838 1875 2053 1875 
L 1259 1875 
L 1259 0 
L 628 0 
L 628 4666 
z
" transform="scale(0.015625)"/>
       <path id="DejaVuSans-65" d="M 3597 1894 
L 3597 1613 
L 953 1613 
Q 991 1019 1311 708 
Q 1631 397 2203 397 
Q 2534 397 2845 478 
Q 3156 559 3463 722 
L 3463 178 
Q 3153 47 2828 -22 
Q 2503 -91 2169 -91 
Q 1331 -91 842 396 
Q 353 884 353 1716 
Q 353 2575 817 3079 
Q 1281 3584 2069 3584 
Q 2775 3584 3186 3129 
Q 3597 2675 3597 1894 
z
M 3022 2063 
Q 3016 2534 2758 2815 
Q 2500 3097 2075 3097 
Q 1594 3097 1305 2825 
Q 1016 2553 972 2059 
L 3022 2063 
z
" transform="scale(0.015625)"/>
       <path id="DejaVuSans-74" d="M 1172 4494 
L 1172 3500 
L 2356 3500 
L 2356 3053 
L 1172 3053 
L 1172 1153 
Q 1172 725 1289 603 
Q 1406 481 1766 481 
L 2356 481 
L 2356 0 
L 1766 0 
Q 1100 0 847 248 
Q 594 497 594 1153 
L 594 3053 
L 172 3053 
L 172 3500 
L 594 3500 
L 594 4494 
L 1172 4494 
z
" transform="scale(0.015625)"/>
       <path id="DejaVuSans-69" d="M 603 3500 
L 1178 3500 
L 1178 0 
L 603 0 
L 603 3500 
z
M 603 4863 
L 1178 4863 
L 1178 4134 
L 603 4134 
L 603 4863 
z
" transform="scale(0.015625)"/>
       <path id="DejaVuSans-6f" d="M 1959 3097 
Q 1497 3097 1228 2736 
Q 959 2375 959 1747 
Q 959 1119 1226 758 
Q 1494 397 1959 397 
Q 2419 397 2687 759 
Q 2956 1122 2956 1747 
Q 2956 2369 2687 2733 
Q 2419 3097 1959 3097 
z
M 1959 3584 
Q 2709 3584 3137 3096 
Q 3566 2609 3566 1747 
Q 3566 888 3137 398 
Q 2709 -91 1959 -91 
Q 1206 -91 779 398 
Q 353 888 353 1747 
Q 353 2609 779 3096 
Q 1206 3584 1959 3584 
z
" transform="scale(0.015625)"/>
       <path id="DejaVuSans-6e" d="M 3513 2113 
L 3513 0 
L 2938 0 
L 2938 2094 
Q 2938 2591 2744 2837 
Q 2550 3084 2163 3084 
Q 1697 3084 1428 2787 
Q 1159 2491 1159 1978 
L 1159 0 
L 581 0 
L 581 3500 
L 1159 3500 
L 1159 2956 
Q 1366 3272 1645 3428 
Q 1925 3584 2291 3584 
Q 2894 3584 3203 3211 
Q 3513 2838 3513 2113 
z
" transform="scale(0.015625)"/>
       <path id="DejaVuSans-73" d="M 2834 3397 
L 2834 2853 
Q 2591 2978 2328 3040 
Q 2066 3103 1784 3103 
Q 1356 3103 1142 2972 
Q 928 2841 928 2578 
Q 928 2378 1081 2264 
Q 1234 2150 1697 2047 
L 1894 2003 
Q 2506 1872 2764 1633 
Q 3022 1394 3022 966 
Q 3022 478 2636 193 
Q 2250 -91 1575 -91 
Q 1294 -91 989 -36 
Q 684 19 347 128 
L 347 722 
Q 666 556 975 473 
Q 1284 391 1588 391 
Q 1994 391 2212 530 
Q 2431 669 2431 922 
Q 2431 1156 2273 1281 
Q 2116 1406 1581 1522 
L 1381 1569 
Q 847 1681 609 1914 
Q 372 2147 372 2553 
Q 372 3047 722 3315 
Q 1072 3584 1716 3584 
Q 2034 3584 2315 3537 
Q 2597 3491 2834 3397 
z
" transform="scale(0.015625)"/>
      </defs>
      <use xlink:href="#DejaVuSans-50"/>
      <use xlink:href="#DejaVuSans-65" x="56.677734"/>
      <use xlink:href="#DejaVuSans-74" x="118.201172"/>
      <use xlink:href="#DejaVuSans-69" x="157.410156"/>
      <use xlink:href="#DejaVuSans-74" x="185.193359"/>
      <use xlink:href="#DejaVuSans-69" x="224.402344"/>
      <use xlink:href="#DejaVuSans-6f" x="252.185547"/>
      <use xlink:href="#DejaVuSans-6e" x="313.367188"/>
      <use xlink:href="#DejaVuSans-73" x="376.746094"/>
     </g>
    </g>
   </g>
   <g id="line2d_106">
    <path d="M 86.69245 592.775619 
L 94.404472 575.210043 
L 102.116493 562.021123 
L 109.828514 557.236513 
L 117.540535 554.685036 
L 125.252557 544.934243 
L 132.964578 539.04368 
L 140.676599 533.261589 
L 148.38862 528.519426 
L 156.100641 528.007716 
L 163.812663 527.998283 
L 171.524684 524.833697 
L 179.236705 514.373112 
L 186.948726 510.590701 
L 194.660747 505.320321 
L 202.372769 501.358692 
L 210.08479 499.974481 
L 217.796811 492.140833 
L 225.508832 488.63432 
L 233.220853 485.210342 
L 240.932875 483.939319 
L 248.644896 483.927529 
L 256.356917 483.771893 
L 264.068938 476.29432 
L 271.780959 463.407239 
L 279.492981 459.087177 
L 287.205002 455.325989 
L 294.917023 453.922912 
L 302.629044 450.105129 
L 310.341065 446.66936 
L 318.053087 444.978594 
L 325.765108 439.653977 
L 333.477129 435.140551 
L 341.18915 433.853021 
L 348.901171 432.466452 
L 356.613193 430.278124 
L 364.325214 420.376412 
L 372.037235 411.979175 
L 379.749256 410.319064 
L 387.461277 409.731894 
L 395.173299 407.767587 
L 402.88532 404.893048 
L 410.597341 401.848726 
L 418.309362 398.842133 
L 426.021383 397.689016 
L 433.733405 397.028745 
L 441.445426 396.083142 
L 449.157447 389.949693 
L 456.869468 374.336634 
L 464.581489 350.382932 
L 472.293511 340.082699 
L 480.005532 338.156122 
L 487.717553 293.856631 
L 495.429574 282.389132 
L 503.141595 277.682341 
L 510.853617 275.076627 
L 518.565638 274.633302 
L 526.277659 274.293734 
L 533.98968 273.947091 
L 541.701701 269.957166 
L 549.413723 259.840866 
L 557.125744 249.609018 
L 564.837765 238.20283 
L 572.549786 236.160705 
L 580.261807 229.006194 
L 587.973829 218.048047 
L 595.68585 197.166966 
L 603.397871 194.106137 
L 611.109892 193.45294 
L 618.821913 192.002701 
L 626.533935 178.148793 
L 634.245956 169.414346 
L 641.957977 151.120114 
L 649.669998 139.654973 
L 657.382019 134.636911 
L 665.094041 133.43899 
L 672.806062 126.61933 
L 680.518083 118.920095 
L 688.230104 105.830215 
L 695.942125 90.269035 
L 703.654147 88.691458 
L 711.366168 88.630147 
L 719.078189 88.630147 
L 726.79021 88.630147 
L 734.502231 81.289344 
L 742.214253 75.988309 
L 749.926274 67.666531 
L 757.638295 62.613098 
L 765.350316 53.685286 
L 773.062337 51.388485 
L 780.774359 49.075177 
L 788.48638 43.5006 
L 796.198401 43.436931 
L 803.910422 43.436931 
L 811.622443 43.436931 
L 819.334465 31.915196 
L 827.046486 22.935506 
L 834.758507 18.193343 
L 842.470528 15.509811 
L 850.18255 12.899381 
" clip-path="url(#pc074d797cb)" style="fill: none; stroke: #1f77b4; stroke-width: 1.5; stroke-linecap: square"/>
    <defs>
     <path id="m9cd0d30348" d="M 0 3 
C 0.795609 3 1.55874 2.683901 2.12132 2.12132 
C 2.683901 1.55874 3 0.795609 3 0 
C 3 -0.795609 2.683901 -1.55874 2.12132 -2.12132 
C 1.55874 -2.683901 0.795609 -3 0 -3 
C -0.795609 -3 -1.55874 -2.683901 -2.12132 -2.12132 
C -2.683901 -1.55874 -3 -0.795609 -3 0 
C -3 0.795609 -2.683901 1.55874 -2.12132 2.12132 
C -1.55874 2.683901 -0.795609 3 0 3 
z
" style="stroke: #1f77b4"/>
    </defs>
    <g clip-path="url(#pc074d797cb)">
     <use xlink:href="#m9cd0d30348" x="86.69245" y="592.775619" style="fill: #1f77b4; stroke: #1f77b4"/>
     <use xlink:href="#m9cd0d30348" x="94.404472" y="575.210043" style="fill: #1f77b4; stroke: #1f77b4"/>
     <use xlink:href="#m9cd0d30348" x="102.116493" y="562.021123" style="fill: #1f77b4; stroke: #1f77b4"/>
     <use xlink:href="#m9cd0d30348" x="109.828514" y="557.236513" style="fill: #1f77b4; stroke: #1f77b4"/>
     <use xlink:href="#m9cd0d30348" x="117.540535" y="554.685036" style="fill: #1f77b4; stroke: #1f77b4"/>
     <use xlink:href="#m9cd0d30348" x="125.252557" y="544.934243" style="fill: #1f77b4; stroke: #1f77b4"/>
     <use xlink:href="#m9cd0d30348" x="132.964578" y="539.04368" style="fill: #1f77b4; stroke: #1f77b4"/>
     <use xlink:href="#m9cd0d30348" x="140.676599" y="533.261589" style="fill: #1f77b4; stroke: #1f77b4"/>
     <use xlink:href="#m9cd0d30348" x="148.38862" y="528.519426" style="fill: #1f77b4; stroke: #1f77b4"/>
     <use xlink:href="#m9cd0d30348" x="156.100641" y="528.007716" style="fill: #1f77b4; stroke: #1f77b4"/>
     <use xlink:href="#m9cd0d30348" x="163.812663" y="527.998283" style="fill: #1f77b4; stroke: #1f77b4"/>
     <use xlink:href="#m9cd0d30348" x="171.524684" y="524.833697" style="fill: #1f77b4; stroke: #1f77b4"/>
     <use xlink:href="#m9cd0d30348" x="179.236705" y="514.373112" style="fill: #1f77b4; stroke: #1f77b4"/>
     <use xlink:href="#m9cd0d30348" x="186.948726" y="510.590701" style="fill: #1f77b4; stroke: #1f77b4"/>
     <use xlink:href="#m9cd0d30348" x="194.660747" y="505.320321" style="fill: #1f77b4; stroke: #1f77b4"/>
     <use xlink:href="#m9cd0d30348" x="202.372769" y="501.358692" style="fill: #1f77b4; stroke: #1f77b4"/>
     <use xlink:href="#m9cd0d30348" x="210.08479" y="499.974481" style="fill: #1f77b4; stroke: #1f77b4"/>
     <use xlink:href="#m9cd0d30348" x="217.796811" y="492.140833" style="fill: #1f77b4; stroke: #1f77b4"/>
     <use xlink:href="#m9cd0d30348" x="225.508832" y="488.63432" style="fill: #1f77b4; stroke: #1f77b4"/>
     <use xlink:href="#m9cd0d30348" x="233.220853" y="485.210342" style="fill: #1f77b4; stroke: #1f77b4"/>
     <use xlink:href="#m9cd0d30348" x="240.932875" y="483.939319" style="fill: #1f77b4; stroke: #1f77b4"/>
     <use xlink:href="#m9cd0d30348" x="248.644896" y="483.927529" style="fill: #1f77b4; stroke: #1f77b4"/>
     <use xlink:href="#m9cd0d30348" x="256.356917" y="483.771893" style="fill: #1f77b4; stroke: #1f77b4"/>
     <use xlink:href="#m9cd0d30348" x="264.068938" y="476.29432" style="fill: #1f77b4; stroke: #1f77b4"/>
     <use xlink:href="#m9cd0d30348" x="271.780959" y="463.407239" style="fill: #1f77b4; stroke: #1f77b4"/>
     <use xlink:href="#m9cd0d30348" x="279.492981" y="459.087177" style="fill: #1f77b4; stroke: #1f77b4"/>
     <use xlink:href="#m9cd0d30348" x="287.205002" y="455.325989" style="fill: #1f77b4; stroke: #1f77b4"/>
     <use xlink:href="#m9cd0d30348" x="294.917023" y="453.922912" style="fill: #1f77b4; stroke: #1f77b4"/>
     <use xlink:href="#m9cd0d30348" x="302.629044" y="450.105129" style="fill: #1f77b4; stroke: #1f77b4"/>
     <use xlink:href="#m9cd0d30348" x="310.341065" y="446.66936" style="fill: #1f77b4; stroke: #1f77b4"/>
     <use xlink:href="#m9cd0d30348" x="318.053087" y="444.978594" style="fill: #1f77b4; stroke: #1f77b4"/>
     <use xlink:href="#m9cd0d30348" x="325.765108" y="439.653977" style="fill: #1f77b4; stroke: #1f77b4"/>
     <use xlink:href="#m9cd0d30348" x="333.477129" y="435.140551" style="fill: #1f77b4; stroke: #1f77b4"/>
     <use xlink:href="#m9cd0d30348" x="341.18915" y="433.853021" style="fill: #1f77b4; stroke: #1f77b4"/>
     <use xlink:href="#m9cd0d30348" x="348.901171" y="432.466452" style="fill: #1f77b4; stroke: #1f77b4"/>
     <use xlink:href="#m9cd0d30348" x="356.613193" y="430.278124" style="fill: #1f77b4; stroke: #1f77b4"/>
     <use xlink:href="#m9cd0d30348" x="364.325214" y="420.376412" style="fill: #1f77b4; stroke: #1f77b4"/>
     <use xlink:href="#m9cd0d30348" x="372.037235" y="411.979175" style="fill: #1f77b4; stroke: #1f77b4"/>
     <use xlink:href="#m9cd0d30348" x="379.749256" y="410.319064" style="fill: #1f77b4; stroke: #1f77b4"/>
     <use xlink:href="#m9cd0d30348" x="387.461277" y="409.731894" style="fill: #1f77b4; stroke: #1f77b4"/>
     <use xlink:href="#m9cd0d30348" x="395.173299" y="407.767587" style="fill: #1f77b4; stroke: #1f77b4"/>
     <use xlink:href="#m9cd0d30348" x="402.88532" y="404.893048" style="fill: #1f77b4; stroke: #1f77b4"/>
     <use xlink:href="#m9cd0d30348" x="410.597341" y="401.848726" style="fill: #1f77b4; stroke: #1f77b4"/>
     <use xlink:href="#m9cd0d30348" x="418.309362" y="398.842133" style="fill: #1f77b4; stroke: #1f77b4"/>
     <use xlink:href="#m9cd0d30348" x="426.021383" y="397.689016" style="fill: #1f77b4; stroke: #1f77b4"/>
     <use xlink:href="#m9cd0d30348" x="433.733405" y="397.028745" style="fill: #1f77b4; stroke: #1f77b4"/>
     <use xlink:href="#m9cd0d30348" x="441.445426" y="396.083142" style="fill: #1f77b4; stroke: #1f77b4"/>
     <use xlink:href="#m9cd0d30348" x="449.157447" y="389.949693" style="fill: #1f77b4; stroke: #1f77b4"/>
     <use xlink:href="#m9cd0d30348" x="456.869468" y="374.336634" style="fill: #1f77b4; stroke: #1f77b4"/>
     <use xlink:href="#m9cd0d30348" x="464.581489" y="350.382932" style="fill: #1f77b4; stroke: #1f77b4"/>
     <use xlink:href="#m9cd0d30348" x="472.293511" y="340.082699" style="fill: #1f77b4; stroke: #1f77b4"/>
     <use xlink:href="#m9cd0d30348" x="480.005532" y="338.156122" style="fill: #1f77b4; stroke: #1f77b4"/>
     <use xlink:href="#m9cd0d30348" x="487.717553" y="293.856631" style="fill: #1f77b4; stroke: #1f77b4"/>
     <use xlink:href="#m9cd0d30348" x="495.429574" y="282.389132" style="fill: #1f77b4; stroke: #1f77b4"/>
     <use xlink:href="#m9cd0d30348" x="503.141595" y="277.682341" style="fill: #1f77b4; stroke: #1f77b4"/>
     <use xlink:href="#m9cd0d30348" x="510.853617" y="275.076627" style="fill: #1f77b4; stroke: #1f77b4"/>
     <use xlink:href="#m9cd0d30348" x="518.565638" y="274.633302" style="fill: #1f77b4; stroke: #1f77b4"/>
     <use xlink:href="#m9cd0d30348" x="526.277659" y="274.293734" style="fill: #1f77b4; stroke: #1f77b4"/>
     <use xlink:href="#m9cd0d30348" x="533.98968" y="273.947091" style="fill: #1f77b4; stroke: #1f77b4"/>
     <use xlink:href="#m9cd0d30348" x="541.701701" y="269.957166" style="fill: #1f77b4; stroke: #1f77b4"/>
     <use xlink:href="#m9cd0d30348" x="549.413723" y="259.840866" style="fill: #1f77b4; stroke: #1f77b4"/>
     <use xlink:href="#m9cd0d30348" x="557.125744" y="249.609018" style="fill: #1f77b4; stroke: #1f77b4"/>
     <use xlink:href="#m9cd0d30348" x="564.837765" y="238.20283" style="fill: #1f77b4; stroke: #1f77b4"/>
     <use xlink:href="#m9cd0d30348" x="572.549786" y="236.160705" style="fill: #1f77b4; stroke: #1f77b4"/>
     <use xlink:href="#m9cd0d30348" x="580.261807" y="229.006194" style="fill: #1f77b4; stroke: #1f77b4"/>
     <use xlink:href="#m9cd0d30348" x="587.973829" y="218.048047" style="fill: #1f77b4; stroke: #1f77b4"/>
     <use xlink:href="#m9cd0d30348" x="595.68585" y="197.166966" style="fill: #1f77b4; stroke: #1f77b4"/>
     <use xlink:href="#m9cd0d30348" x="603.397871" y="194.106137" style="fill: #1f77b4; stroke: #1f77b4"/>
     <use xlink:href="#m9cd0d30348" x="611.109892" y="193.45294" style="fill: #1f77b4; stroke: #1f77b4"/>
     <use xlink:href="#m9cd0d30348" x="618.821913" y="192.002701" style="fill: #1f77b4; stroke: #1f77b4"/>
     <use xlink:href="#m9cd0d30348" x="626.533935" y="178.148793" style="fill: #1f77b4; stroke: #1f77b4"/>
     <use xlink:href="#m9cd0d30348" x="634.245956" y="169.414346" style="fill: #1f77b4; stroke: #1f77b4"/>
     <use xlink:href="#m9cd0d30348" x="641.957977" y="151.120114" style="fill: #1f77b4; stroke: #1f77b4"/>
     <use xlink:href="#m9cd0d30348" x="649.669998" y="139.654973" style="fill: #1f77b4; stroke: #1f77b4"/>
     <use xlink:href="#m9cd0d30348" x="657.382019" y="134.636911" style="fill: #1f77b4; stroke: #1f77b4"/>
     <use xlink:href="#m9cd0d30348" x="665.094041" y="133.43899" style="fill: #1f77b4; stroke: #1f77b4"/>
     <use xlink:href="#m9cd0d30348" x="672.806062" y="126.61933" style="fill: #1f77b4; stroke: #1f77b4"/>
     <use xlink:href="#m9cd0d30348" x="680.518083" y="118.920095" style="fill: #1f77b4; stroke: #1f77b4"/>
     <use xlink:href="#m9cd0d30348" x="688.230104" y="105.830215" style="fill: #1f77b4; stroke: #1f77b4"/>
     <use xlink:href="#m9cd0d30348" x="695.942125" y="90.269035" style="fill: #1f77b4; stroke: #1f77b4"/>
     <use xlink:href="#m9cd0d30348" x="703.654147" y="88.691458" style="fill: #1f77b4; stroke: #1f77b4"/>
     <use xlink:href="#m9cd0d30348" x="711.366168" y="88.630147" style="fill: #1f77b4; stroke: #1f77b4"/>
     <use xlink:href="#m9cd0d30348" x="719.078189" y="88.630147" style="fill: #1f77b4; stroke: #1f77b4"/>
     <use xlink:href="#m9cd0d30348" x="726.79021" y="88.630147" style="fill: #1f77b4; stroke: #1f77b4"/>
     <use xlink:href="#m9cd0d30348" x="734.502231" y="81.289344" style="fill: #1f77b4; stroke: #1f77b4"/>
     <use xlink:href="#m9cd0d30348" x="742.214253" y="75.988309" style="fill: #1f77b4; stroke: #1f77b4"/>
     <use xlink:href="#m9cd0d30348" x="749.926274" y="67.666531" style="fill: #1f77b4; stroke: #1f77b4"/>
     <use xlink:href="#m9cd0d30348" x="757.638295" y="62.613098" style="fill: #1f77b4; stroke: #1f77b4"/>
     <use xlink:href="#m9cd0d30348" x="765.350316" y="53.685286" style="fill: #1f77b4; stroke: #1f77b4"/>
     <use xlink:href="#m9cd0d30348" x="773.062337" y="51.388485" style="fill: #1f77b4; stroke: #1f77b4"/>
     <use xlink:href="#m9cd0d30348" x="780.774359" y="49.075177" style="fill: #1f77b4; stroke: #1f77b4"/>
     <use xlink:href="#m9cd0d30348" x="788.48638" y="43.5006" style="fill: #1f77b4; stroke: #1f77b4"/>
     <use xlink:href="#m9cd0d30348" x="796.198401" y="43.436931" style="fill: #1f77b4; stroke: #1f77b4"/>
     <use xlink:href="#m9cd0d30348" x="803.910422" y="43.436931" style="fill: #1f77b4; stroke: #1f77b4"/>
     <use xlink:href="#m9cd0d30348" x="811.622443" y="43.436931" style="fill: #1f77b4; stroke: #1f77b4"/>
     <use xlink:href="#m9cd0d30348" x="819.334465" y="31.915196" style="fill: #1f77b4; stroke: #1f77b4"/>
     <use xlink:href="#m9cd0d30348" x="827.046486" y="22.935506" style="fill: #1f77b4; stroke: #1f77b4"/>
     <use xlink:href="#m9cd0d30348" x="834.758507" y="18.193343" style="fill: #1f77b4; stroke: #1f77b4"/>
     <use xlink:href="#m9cd0d30348" x="842.470528" y="15.509811" style="fill: #1f77b4; stroke: #1f77b4"/>
     <use xlink:href="#m9cd0d30348" x="850.18255" y="12.899381" style="fill: #1f77b4; stroke: #1f77b4"/>
    </g>
   </g>
   <g id="patch_3">
    <path d="M 82.875 595.675 
L 82.875 10 
" style="fill: none; stroke: #000000; stroke-width: 0.8; stroke-linejoin: miter; stroke-linecap: square"/>
   </g>
   <g id="patch_4">
    <path d="M 854 595.675 
L 854 10 
" style="fill: none; stroke: #000000; stroke-width: 0.8; stroke-linejoin: miter; stroke-linecap: square"/>
   </g>
   <g id="patch_5">
    <path d="M 82.875 595.675 
L 854 595.675 
" style="fill: none; stroke: #000000; stroke-width: 0.8; stroke-linejoin: miter; stroke-linecap: square"/>
   </g>
   <g id="patch_6">
    <path d="M 82.875 10 
L 854 10 
" style="fill: none; stroke: #000000; stroke-width: 0.8; stroke-linejoin: miter; stroke-linecap: square"/>
   </g>
  </g>
 </g>
 <defs>
  <clipPath id="pc074d797cb">
   <rect x="82.875" y="10" width="771.125" height="585.675"/>
  </clipPath>
 </defs>
</svg>
