<?xml version="1.0" encoding="utf-8" standalone="no"?>
<!DOCTYPE svg PUBLIC "-//W3C//DTD SVG 1.1//EN"
  "http://www.w3.org/Graphics/SVG/1.1/DTD/svg11.dtd">
<svg xmlns:xlink="http://www.w3.org/1999/xlink" width="864pt" height="648pt" viewBox="0 0 864 648" xmlns="http://www.w3.org/2000/svg" version="1.1">
 <metadata>
  <rdf:RDF xmlns:dc="http://purl.org/dc/elements/1.1/" xmlns:cc="http://creativecommons.org/ns#" xmlns:rdf="http://www.w3.org/1999/02/22-rdf-syntax-ns#">
   <cc:Work>
    <dc:type rdf:resource="http://purl.org/dc/dcmitype/StillImage"/>
    <dc:date>2022-12-05T04:57:43.546154</dc:date>
    <dc:format>image/svg+xml</dc:format>
    <dc:creator>
     <cc:Agent>
      <dc:title>Matplotlib v3.6.1, https://matplotlib.org/</dc:title>
     </cc:Agent>
    </dc:creator>
   </cc:Work>
  </rdf:RDF>
 </metadata>
 <defs>
  <style type="text/css">*{stroke-linejoin: round; stroke-linecap: butt}</style>
 </defs>
 <g id="figure_1">
  <g id="patch_1">
   <path d="M 0 648 
L 864 648 
L 864 0 
L 0 0 
z
" style="fill: #ffffff"/>
  </g>
  <g id="axes_1">
   <g id="patch_2">
    <path d="M 65.325 595.675 
L 854 595.675 
L 854 10 
L 65.325 10 
z
" style="fill: #ffffff"/>
   </g>
   <g id="matplotlib.axis_1">
    <g id="xtick_1">
     <g id="line2d_1">
      <defs>
       <path id="m8df355d146" d="M 0 0 
L 0 3.5 
" style="stroke: #000000; stroke-width: 0.8"/>
      </defs>
      <g>
       <use xlink:href="#m8df355d146" x="69.229332" y="595.675" style="stroke: #000000; stroke-width: 0.8"/>
      </g>
     </g>
    </g>
    <g id="xtick_2">
     <g id="line2d_2">
      <g>
       <use xlink:href="#m8df355d146" x="77.11687" y="595.675" style="stroke: #000000; stroke-width: 0.8"/>
      </g>
     </g>
    </g>
    <g id="xtick_3">
     <g id="line2d_3">
      <g>
       <use xlink:href="#m8df355d146" x="85.004409" y="595.675" style="stroke: #000000; stroke-width: 0.8"/>
      </g>
     </g>
    </g>
    <g id="xtick_4">
     <g id="line2d_4">
      <g>
       <use xlink:href="#m8df355d146" x="92.891948" y="595.675" style="stroke: #000000; stroke-width: 0.8"/>
      </g>
     </g>
    </g>
    <g id="xtick_5">
     <g id="line2d_5">
      <g>
       <use xlink:href="#m8df355d146" x="100.779487" y="595.675" style="stroke: #000000; stroke-width: 0.8"/>
      </g>
     </g>
     <g id="text_1">
      <!-- 2015 -->
      <g transform="translate(104.642612 638.305) rotate(-90) scale(0.14 -0.14)">
       <defs>
        <path id="DejaVuSans-32" d="M 1228 531 
L 3431 531 
L 3431 0 
L 469 0 
L 469 531 
Q 828 903 1448 1529 
Q 2069 2156 2228 2338 
Q 2531 2678 2651 2914 
Q 2772 3150 2772 3378 
Q 2772 3750 2511 3984 
Q 2250 4219 1831 4219 
Q 1534 4219 1204 4116 
Q 875 4013 500 3803 
L 500 4441 
Q 881 4594 1212 4672 
Q 1544 4750 1819 4750 
Q 2544 4750 2975 4387 
Q 3406 4025 3406 3419 
Q 3406 3131 3298 2873 
Q 3191 2616 2906 2266 
Q 2828 2175 2409 1742 
Q 1991 1309 1228 531 
z
" transform="scale(0.015625)"/>
        <path id="DejaVuSans-30" d="M 2034 4250 
Q 1547 4250 1301 3770 
Q 1056 3291 1056 2328 
Q 1056 1369 1301 889 
Q 1547 409 2034 409 
Q 2525 409 2770 889 
Q 3016 1369 3016 2328 
Q 3016 3291 2770 3770 
Q 2525 4250 2034 4250 
z
M 2034 4750 
Q 2819 4750 3233 4129 
Q 3647 3509 3647 2328 
Q 3647 1150 3233 529 
Q 2819 -91 2034 -91 
Q 1250 -91 836 529 
Q 422 1150 422 2328 
Q 422 3509 836 4129 
Q 1250 4750 2034 4750 
z
" transform="scale(0.015625)"/>
        <path id="DejaVuSans-31" d="M 794 531 
L 1825 531 
L 1825 4091 
L 703 3866 
L 703 4441 
L 1819 4666 
L 2450 4666 
L 2450 531 
L 3481 531 
L 3481 0 
L 794 0 
L 794 531 
z
" transform="scale(0.015625)"/>
        <path id="DejaVuSans-35" d="M 691 4666 
L 3169 4666 
L 3169 4134 
L 1269 4134 
L 1269 2991 
Q 1406 3038 1543 3061 
Q 1681 3084 1819 3084 
Q 2600 3084 3056 2656 
Q 3513 2228 3513 1497 
Q 3513 744 3044 326 
Q 2575 -91 1722 -91 
Q 1428 -91 1123 -41 
Q 819 9 494 109 
L 494 744 
Q 775 591 1075 516 
Q 1375 441 1709 441 
Q 2250 441 2565 725 
Q 2881 1009 2881 1497 
Q 2881 1984 2565 2268 
Q 2250 2553 1709 2553 
Q 1456 2553 1204 2497 
Q 953 2441 691 2322 
L 691 4666 
z
" transform="scale(0.015625)"/>
       </defs>
       <use xlink:href="#DejaVuSans-32"/>
       <use xlink:href="#DejaVuSans-30" x="63.623047"/>
       <use xlink:href="#DejaVuSans-31" x="127.246094"/>
       <use xlink:href="#DejaVuSans-35" x="190.869141"/>
      </g>
     </g>
    </g>
    <g id="xtick_6">
     <g id="line2d_6">
      <g>
       <use xlink:href="#m8df355d146" x="108.667025" y="595.675" style="stroke: #000000; stroke-width: 0.8"/>
      </g>
     </g>
    </g>
    <g id="xtick_7">
     <g id="line2d_7">
      <g>
       <use xlink:href="#m8df355d146" x="116.554564" y="595.675" style="stroke: #000000; stroke-width: 0.8"/>
      </g>
     </g>
    </g>
    <g id="xtick_8">
     <g id="line2d_8">
      <g>
       <use xlink:href="#m8df355d146" x="124.442103" y="595.675" style="stroke: #000000; stroke-width: 0.8"/>
      </g>
     </g>
    </g>
    <g id="xtick_9">
     <g id="line2d_9">
      <g>
       <use xlink:href="#m8df355d146" x="132.329642" y="595.675" style="stroke: #000000; stroke-width: 0.8"/>
      </g>
     </g>
    </g>
    <g id="xtick_10">
     <g id="line2d_10">
      <g>
       <use xlink:href="#m8df355d146" x="140.21718" y="595.675" style="stroke: #000000; stroke-width: 0.8"/>
      </g>
     </g>
    </g>
    <g id="xtick_11">
     <g id="line2d_11">
      <g>
       <use xlink:href="#m8df355d146" x="148.104719" y="595.675" style="stroke: #000000; stroke-width: 0.8"/>
      </g>
     </g>
    </g>
    <g id="xtick_12">
     <g id="line2d_12">
      <g>
       <use xlink:href="#m8df355d146" x="155.992258" y="595.675" style="stroke: #000000; stroke-width: 0.8"/>
      </g>
     </g>
    </g>
    <g id="xtick_13">
     <g id="line2d_13">
      <g>
       <use xlink:href="#m8df355d146" x="163.879797" y="595.675" style="stroke: #000000; stroke-width: 0.8"/>
      </g>
     </g>
    </g>
    <g id="xtick_14">
     <g id="line2d_14">
      <g>
       <use xlink:href="#m8df355d146" x="171.767335" y="595.675" style="stroke: #000000; stroke-width: 0.8"/>
      </g>
     </g>
    </g>
    <g id="xtick_15">
     <g id="line2d_15">
      <g>
       <use xlink:href="#m8df355d146" x="179.654874" y="595.675" style="stroke: #000000; stroke-width: 0.8"/>
      </g>
     </g>
    </g>
    <g id="xtick_16">
     <g id="line2d_16">
      <g>
       <use xlink:href="#m8df355d146" x="187.542413" y="595.675" style="stroke: #000000; stroke-width: 0.8"/>
      </g>
     </g>
    </g>
    <g id="xtick_17">
     <g id="line2d_17">
      <g>
       <use xlink:href="#m8df355d146" x="195.429952" y="595.675" style="stroke: #000000; stroke-width: 0.8"/>
      </g>
     </g>
     <g id="text_2">
      <!-- 2016 -->
      <g transform="translate(199.293077 638.305) rotate(-90) scale(0.14 -0.14)">
       <defs>
        <path id="DejaVuSans-36" d="M 2113 2584 
Q 1688 2584 1439 2293 
Q 1191 2003 1191 1497 
Q 1191 994 1439 701 
Q 1688 409 2113 409 
Q 2538 409 2786 701 
Q 3034 994 3034 1497 
Q 3034 2003 2786 2293 
Q 2538 2584 2113 2584 
z
M 3366 4563 
L 3366 3988 
Q 3128 4100 2886 4159 
Q 2644 4219 2406 4219 
Q 1781 4219 1451 3797 
Q 1122 3375 1075 2522 
Q 1259 2794 1537 2939 
Q 1816 3084 2150 3084 
Q 2853 3084 3261 2657 
Q 3669 2231 3669 1497 
Q 3669 778 3244 343 
Q 2819 -91 2113 -91 
Q 1303 -91 875 529 
Q 447 1150 447 2328 
Q 447 3434 972 4092 
Q 1497 4750 2381 4750 
Q 2619 4750 2861 4703 
Q 3103 4656 3366 4563 
z
" transform="scale(0.015625)"/>
       </defs>
       <use xlink:href="#DejaVuSans-32"/>
       <use xlink:href="#DejaVuSans-30" x="63.623047"/>
       <use xlink:href="#DejaVuSans-31" x="127.246094"/>
       <use xlink:href="#DejaVuSans-36" x="190.869141"/>
      </g>
     </g>
    </g>
    <g id="xtick_18">
     <g id="line2d_18">
      <g>
       <use xlink:href="#m8df355d146" x="203.31749" y="595.675" style="stroke: #000000; stroke-width: 0.8"/>
      </g>
     </g>
    </g>
    <g id="xtick_19">
     <g id="line2d_19">
      <g>
       <use xlink:href="#m8df355d146" x="211.205029" y="595.675" style="stroke: #000000; stroke-width: 0.8"/>
      </g>
     </g>
    </g>
    <g id="xtick_20">
     <g id="line2d_20">
      <g>
       <use xlink:href="#m8df355d146" x="219.092568" y="595.675" style="stroke: #000000; stroke-width: 0.8"/>
      </g>
     </g>
    </g>
    <g id="xtick_21">
     <g id="line2d_21">
      <g>
       <use xlink:href="#m8df355d146" x="226.980107" y="595.675" style="stroke: #000000; stroke-width: 0.8"/>
      </g>
     </g>
    </g>
    <g id="xtick_22">
     <g id="line2d_22">
      <g>
       <use xlink:href="#m8df355d146" x="234.867646" y="595.675" style="stroke: #000000; stroke-width: 0.8"/>
      </g>
     </g>
    </g>
    <g id="xtick_23">
     <g id="line2d_23">
      <g>
       <use xlink:href="#m8df355d146" x="242.755184" y="595.675" style="stroke: #000000; stroke-width: 0.8"/>
      </g>
     </g>
    </g>
    <g id="xtick_24">
     <g id="line2d_24">
      <g>
       <use xlink:href="#m8df355d146" x="250.642723" y="595.675" style="stroke: #000000; stroke-width: 0.8"/>
      </g>
     </g>
    </g>
    <g id="xtick_25">
     <g id="line2d_25">
      <g>
       <use xlink:href="#m8df355d146" x="258.530262" y="595.675" style="stroke: #000000; stroke-width: 0.8"/>
      </g>
     </g>
    </g>
    <g id="xtick_26">
     <g id="line2d_26">
      <g>
       <use xlink:href="#m8df355d146" x="266.417801" y="595.675" style="stroke: #000000; stroke-width: 0.8"/>
      </g>
     </g>
    </g>
    <g id="xtick_27">
     <g id="line2d_27">
      <g>
       <use xlink:href="#m8df355d146" x="274.305339" y="595.675" style="stroke: #000000; stroke-width: 0.8"/>
      </g>
     </g>
    </g>
    <g id="xtick_28">
     <g id="line2d_28">
      <g>
       <use xlink:href="#m8df355d146" x="282.192878" y="595.675" style="stroke: #000000; stroke-width: 0.8"/>
      </g>
     </g>
    </g>
    <g id="xtick_29">
     <g id="line2d_29">
      <g>
       <use xlink:href="#m8df355d146" x="290.080417" y="595.675" style="stroke: #000000; stroke-width: 0.8"/>
      </g>
     </g>
     <g id="text_3">
      <!-- 2017 -->
      <g transform="translate(293.943542 638.305) rotate(-90) scale(0.14 -0.14)">
       <defs>
        <path id="DejaVuSans-37" d="M 525 4666 
L 3525 4666 
L 3525 4397 
L 1831 0 
L 1172 0 
L 2766 4134 
L 525 4134 
L 525 4666 
z
" transform="scale(0.015625)"/>
       </defs>
       <use xlink:href="#DejaVuSans-32"/>
       <use xlink:href="#DejaVuSans-30" x="63.623047"/>
       <use xlink:href="#DejaVuSans-31" x="127.246094"/>
       <use xlink:href="#DejaVuSans-37" x="190.869141"/>
      </g>
     </g>
    </g>
    <g id="xtick_30">
     <g id="line2d_30">
      <g>
       <use xlink:href="#m8df355d146" x="297.967956" y="595.675" style="stroke: #000000; stroke-width: 0.8"/>
      </g>
     </g>
    </g>
    <g id="xtick_31">
     <g id="line2d_31">
      <g>
       <use xlink:href="#m8df355d146" x="305.855494" y="595.675" style="stroke: #000000; stroke-width: 0.8"/>
      </g>
     </g>
    </g>
    <g id="xtick_32">
     <g id="line2d_32">
      <g>
       <use xlink:href="#m8df355d146" x="313.743033" y="595.675" style="stroke: #000000; stroke-width: 0.8"/>
      </g>
     </g>
    </g>
    <g id="xtick_33">
     <g id="line2d_33">
      <g>
       <use xlink:href="#m8df355d146" x="321.630572" y="595.675" style="stroke: #000000; stroke-width: 0.8"/>
      </g>
     </g>
    </g>
    <g id="xtick_34">
     <g id="line2d_34">
      <g>
       <use xlink:href="#m8df355d146" x="329.518111" y="595.675" style="stroke: #000000; stroke-width: 0.8"/>
      </g>
     </g>
    </g>
    <g id="xtick_35">
     <g id="line2d_35">
      <g>
       <use xlink:href="#m8df355d146" x="337.405649" y="595.675" style="stroke: #000000; stroke-width: 0.8"/>
      </g>
     </g>
    </g>
    <g id="xtick_36">
     <g id="line2d_36">
      <g>
       <use xlink:href="#m8df355d146" x="345.293188" y="595.675" style="stroke: #000000; stroke-width: 0.8"/>
      </g>
     </g>
    </g>
    <g id="xtick_37">
     <g id="line2d_37">
      <g>
       <use xlink:href="#m8df355d146" x="353.180727" y="595.675" style="stroke: #000000; stroke-width: 0.8"/>
      </g>
     </g>
    </g>
    <g id="xtick_38">
     <g id="line2d_38">
      <g>
       <use xlink:href="#m8df355d146" x="361.068266" y="595.675" style="stroke: #000000; stroke-width: 0.8"/>
      </g>
     </g>
    </g>
    <g id="xtick_39">
     <g id="line2d_39">
      <g>
       <use xlink:href="#m8df355d146" x="368.955804" y="595.675" style="stroke: #000000; stroke-width: 0.8"/>
      </g>
     </g>
    </g>
    <g id="xtick_40">
     <g id="line2d_40">
      <g>
       <use xlink:href="#m8df355d146" x="376.843343" y="595.675" style="stroke: #000000; stroke-width: 0.8"/>
      </g>
     </g>
    </g>
    <g id="xtick_41">
     <g id="line2d_41">
      <g>
       <use xlink:href="#m8df355d146" x="384.730882" y="595.675" style="stroke: #000000; stroke-width: 0.8"/>
      </g>
     </g>
     <g id="text_4">
      <!-- 2018 -->
      <g transform="translate(388.594007 638.305) rotate(-90) scale(0.14 -0.14)">
       <defs>
        <path id="DejaVuSans-38" d="M 2034 2216 
Q 1584 2216 1326 1975 
Q 1069 1734 1069 1313 
Q 1069 891 1326 650 
Q 1584 409 2034 409 
Q 2484 409 2743 651 
Q 3003 894 3003 1313 
Q 3003 1734 2745 1975 
Q 2488 2216 2034 2216 
z
M 1403 2484 
Q 997 2584 770 2862 
Q 544 3141 544 3541 
Q 544 4100 942 4425 
Q 1341 4750 2034 4750 
Q 2731 4750 3128 4425 
Q 3525 4100 3525 3541 
Q 3525 3141 3298 2862 
Q 3072 2584 2669 2484 
Q 3125 2378 3379 2068 
Q 3634 1759 3634 1313 
Q 3634 634 3220 271 
Q 2806 -91 2034 -91 
Q 1263 -91 848 271 
Q 434 634 434 1313 
Q 434 1759 690 2068 
Q 947 2378 1403 2484 
z
M 1172 3481 
Q 1172 3119 1398 2916 
Q 1625 2713 2034 2713 
Q 2441 2713 2670 2916 
Q 2900 3119 2900 3481 
Q 2900 3844 2670 4047 
Q 2441 4250 2034 4250 
Q 1625 4250 1398 4047 
Q 1172 3844 1172 3481 
z
" transform="scale(0.015625)"/>
       </defs>
       <use xlink:href="#DejaVuSans-32"/>
       <use xlink:href="#DejaVuSans-30" x="63.623047"/>
       <use xlink:href="#DejaVuSans-31" x="127.246094"/>
       <use xlink:href="#DejaVuSans-38" x="190.869141"/>
      </g>
     </g>
    </g>
    <g id="xtick_42">
     <g id="line2d_42">
      <g>
       <use xlink:href="#m8df355d146" x="392.618421" y="595.675" style="stroke: #000000; stroke-width: 0.8"/>
      </g>
     </g>
    </g>
    <g id="xtick_43">
     <g id="line2d_43">
      <g>
       <use xlink:href="#m8df355d146" x="400.505959" y="595.675" style="stroke: #000000; stroke-width: 0.8"/>
      </g>
     </g>
    </g>
    <g id="xtick_44">
     <g id="line2d_44">
      <g>
       <use xlink:href="#m8df355d146" x="408.393498" y="595.675" style="stroke: #000000; stroke-width: 0.8"/>
      </g>
     </g>
    </g>
    <g id="xtick_45">
     <g id="line2d_45">
      <g>
       <use xlink:href="#m8df355d146" x="416.281037" y="595.675" style="stroke: #000000; stroke-width: 0.8"/>
      </g>
     </g>
    </g>
    <g id="xtick_46">
     <g id="line2d_46">
      <g>
       <use xlink:href="#m8df355d146" x="424.168576" y="595.675" style="stroke: #000000; stroke-width: 0.8"/>
      </g>
     </g>
    </g>
    <g id="xtick_47">
     <g id="line2d_47">
      <g>
       <use xlink:href="#m8df355d146" x="432.056114" y="595.675" style="stroke: #000000; stroke-width: 0.8"/>
      </g>
     </g>
    </g>
    <g id="xtick_48">
     <g id="line2d_48">
      <g>
       <use xlink:href="#m8df355d146" x="439.943653" y="595.675" style="stroke: #000000; stroke-width: 0.8"/>
      </g>
     </g>
    </g>
    <g id="xtick_49">
     <g id="line2d_49">
      <g>
       <use xlink:href="#m8df355d146" x="447.831192" y="595.675" style="stroke: #000000; stroke-width: 0.8"/>
      </g>
     </g>
    </g>
    <g id="xtick_50">
     <g id="line2d_50">
      <g>
       <use xlink:href="#m8df355d146" x="455.718731" y="595.675" style="stroke: #000000; stroke-width: 0.8"/>
      </g>
     </g>
    </g>
    <g id="xtick_51">
     <g id="line2d_51">
      <g>
       <use xlink:href="#m8df355d146" x="463.606269" y="595.675" style="stroke: #000000; stroke-width: 0.8"/>
      </g>
     </g>
    </g>
    <g id="xtick_52">
     <g id="line2d_52">
      <g>
       <use xlink:href="#m8df355d146" x="471.493808" y="595.675" style="stroke: #000000; stroke-width: 0.8"/>
      </g>
     </g>
    </g>
    <g id="xtick_53">
     <g id="line2d_53">
      <g>
       <use xlink:href="#m8df355d146" x="479.381347" y="595.675" style="stroke: #000000; stroke-width: 0.8"/>
      </g>
     </g>
     <g id="text_5">
      <!-- 2019 -->
      <g transform="translate(483.244472 638.305) rotate(-90) scale(0.14 -0.14)">
       <defs>
        <path id="DejaVuSans-39" d="M 703 97 
L 703 672 
Q 941 559 1184 500 
Q 1428 441 1663 441 
Q 2288 441 2617 861 
Q 2947 1281 2994 2138 
Q 2813 1869 2534 1725 
Q 2256 1581 1919 1581 
Q 1219 1581 811 2004 
Q 403 2428 403 3163 
Q 403 3881 828 4315 
Q 1253 4750 1959 4750 
Q 2769 4750 3195 4129 
Q 3622 3509 3622 2328 
Q 3622 1225 3098 567 
Q 2575 -91 1691 -91 
Q 1453 -91 1209 -44 
Q 966 3 703 97 
z
M 1959 2075 
Q 2384 2075 2632 2365 
Q 2881 2656 2881 3163 
Q 2881 3666 2632 3958 
Q 2384 4250 1959 4250 
Q 1534 4250 1286 3958 
Q 1038 3666 1038 3163 
Q 1038 2656 1286 2365 
Q 1534 2075 1959 2075 
z
" transform="scale(0.015625)"/>
       </defs>
       <use xlink:href="#DejaVuSans-32"/>
       <use xlink:href="#DejaVuSans-30" x="63.623047"/>
       <use xlink:href="#DejaVuSans-31" x="127.246094"/>
       <use xlink:href="#DejaVuSans-39" x="190.869141"/>
      </g>
     </g>
    </g>
    <g id="xtick_54">
     <g id="line2d_54">
      <g>
       <use xlink:href="#m8df355d146" x="487.268886" y="595.675" style="stroke: #000000; stroke-width: 0.8"/>
      </g>
     </g>
    </g>
    <g id="xtick_55">
     <g id="line2d_55">
      <g>
       <use xlink:href="#m8df355d146" x="495.156424" y="595.675" style="stroke: #000000; stroke-width: 0.8"/>
      </g>
     </g>
    </g>
    <g id="xtick_56">
     <g id="line2d_56">
      <g>
       <use xlink:href="#m8df355d146" x="503.043963" y="595.675" style="stroke: #000000; stroke-width: 0.8"/>
      </g>
     </g>
    </g>
    <g id="xtick_57">
     <g id="line2d_57">
      <g>
       <use xlink:href="#m8df355d146" x="510.931502" y="595.675" style="stroke: #000000; stroke-width: 0.8"/>
      </g>
     </g>
    </g>
    <g id="xtick_58">
     <g id="line2d_58">
      <g>
       <use xlink:href="#m8df355d146" x="518.819041" y="595.675" style="stroke: #000000; stroke-width: 0.8"/>
      </g>
     </g>
    </g>
    <g id="xtick_59">
     <g id="line2d_59">
      <g>
       <use xlink:href="#m8df355d146" x="526.706579" y="595.675" style="stroke: #000000; stroke-width: 0.8"/>
      </g>
     </g>
    </g>
    <g id="xtick_60">
     <g id="line2d_60">
      <g>
       <use xlink:href="#m8df355d146" x="534.594118" y="595.675" style="stroke: #000000; stroke-width: 0.8"/>
      </g>
     </g>
    </g>
    <g id="xtick_61">
     <g id="line2d_61">
      <g>
       <use xlink:href="#m8df355d146" x="542.481657" y="595.675" style="stroke: #000000; stroke-width: 0.8"/>
      </g>
     </g>
    </g>
    <g id="xtick_62">
     <g id="line2d_62">
      <g>
       <use xlink:href="#m8df355d146" x="550.369196" y="595.675" style="stroke: #000000; stroke-width: 0.8"/>
      </g>
     </g>
    </g>
    <g id="xtick_63">
     <g id="line2d_63">
      <g>
       <use xlink:href="#m8df355d146" x="558.256734" y="595.675" style="stroke: #000000; stroke-width: 0.8"/>
      </g>
     </g>
    </g>
    <g id="xtick_64">
     <g id="line2d_64">
      <g>
       <use xlink:href="#m8df355d146" x="566.144273" y="595.675" style="stroke: #000000; stroke-width: 0.8"/>
      </g>
     </g>
    </g>
    <g id="xtick_65">
     <g id="line2d_65">
      <g>
       <use xlink:href="#m8df355d146" x="574.031812" y="595.675" style="stroke: #000000; stroke-width: 0.8"/>
      </g>
     </g>
     <g id="text_6">
      <!-- 2020 -->
      <g transform="translate(577.894937 638.305) rotate(-90) scale(0.14 -0.14)">
       <use xlink:href="#DejaVuSans-32"/>
       <use xlink:href="#DejaVuSans-30" x="63.623047"/>
       <use xlink:href="#DejaVuSans-32" x="127.246094"/>
       <use xlink:href="#DejaVuSans-30" x="190.869141"/>
      </g>
     </g>
    </g>
    <g id="xtick_66">
     <g id="line2d_66">
      <g>
       <use xlink:href="#m8df355d146" x="581.919351" y="595.675" style="stroke: #000000; stroke-width: 0.8"/>
      </g>
     </g>
    </g>
    <g id="xtick_67">
     <g id="line2d_67">
      <g>
       <use xlink:href="#m8df355d146" x="589.806889" y="595.675" style="stroke: #000000; stroke-width: 0.8"/>
      </g>
     </g>
    </g>
    <g id="xtick_68">
     <g id="line2d_68">
      <g>
       <use xlink:href="#m8df355d146" x="597.694428" y="595.675" style="stroke: #000000; stroke-width: 0.8"/>
      </g>
     </g>
    </g>
    <g id="xtick_69">
     <g id="line2d_69">
      <g>
       <use xlink:href="#m8df355d146" x="605.581967" y="595.675" style="stroke: #000000; stroke-width: 0.8"/>
      </g>
     </g>
    </g>
    <g id="xtick_70">
     <g id="line2d_70">
      <g>
       <use xlink:href="#m8df355d146" x="613.469506" y="595.675" style="stroke: #000000; stroke-width: 0.8"/>
      </g>
     </g>
    </g>
    <g id="xtick_71">
     <g id="line2d_71">
      <g>
       <use xlink:href="#m8df355d146" x="621.357044" y="595.675" style="stroke: #000000; stroke-width: 0.8"/>
      </g>
     </g>
    </g>
    <g id="xtick_72">
     <g id="line2d_72">
      <g>
       <use xlink:href="#m8df355d146" x="629.244583" y="595.675" style="stroke: #000000; stroke-width: 0.8"/>
      </g>
     </g>
    </g>
    <g id="xtick_73">
     <g id="line2d_73">
      <g>
       <use xlink:href="#m8df355d146" x="637.132122" y="595.675" style="stroke: #000000; stroke-width: 0.8"/>
      </g>
     </g>
    </g>
    <g id="xtick_74">
     <g id="line2d_74">
      <g>
       <use xlink:href="#m8df355d146" x="645.019661" y="595.675" style="stroke: #000000; stroke-width: 0.8"/>
      </g>
     </g>
    </g>
    <g id="xtick_75">
     <g id="line2d_75">
      <g>
       <use xlink:href="#m8df355d146" x="652.907199" y="595.675" style="stroke: #000000; stroke-width: 0.8"/>
      </g>
     </g>
    </g>
    <g id="xtick_76">
     <g id="line2d_76">
      <g>
       <use xlink:href="#m8df355d146" x="660.794738" y="595.675" style="stroke: #000000; stroke-width: 0.8"/>
      </g>
     </g>
    </g>
    <g id="xtick_77">
     <g id="line2d_77">
      <g>
       <use xlink:href="#m8df355d146" x="668.682277" y="595.675" style="stroke: #000000; stroke-width: 0.8"/>
      </g>
     </g>
     <g id="text_7">
      <!-- 2021 -->
      <g transform="translate(672.545402 638.305) rotate(-90) scale(0.14 -0.14)">
       <use xlink:href="#DejaVuSans-32"/>
       <use xlink:href="#DejaVuSans-30" x="63.623047"/>
       <use xlink:href="#DejaVuSans-32" x="127.246094"/>
       <use xlink:href="#DejaVuSans-31" x="190.869141"/>
      </g>
     </g>
    </g>
    <g id="xtick_78">
     <g id="line2d_78">
      <g>
       <use xlink:href="#m8df355d146" x="676.569816" y="595.675" style="stroke: #000000; stroke-width: 0.8"/>
      </g>
     </g>
    </g>
    <g id="xtick_79">
     <g id="line2d_79">
      <g>
       <use xlink:href="#m8df355d146" x="684.457354" y="595.675" style="stroke: #000000; stroke-width: 0.8"/>
      </g>
     </g>
    </g>
    <g id="xtick_80">
     <g id="line2d_80">
      <g>
       <use xlink:href="#m8df355d146" x="692.344893" y="595.675" style="stroke: #000000; stroke-width: 0.8"/>
      </g>
     </g>
    </g>
    <g id="xtick_81">
     <g id="line2d_81">
      <g>
       <use xlink:href="#m8df355d146" x="700.232432" y="595.675" style="stroke: #000000; stroke-width: 0.8"/>
      </g>
     </g>
    </g>
    <g id="xtick_82">
     <g id="line2d_82">
      <g>
       <use xlink:href="#m8df355d146" x="708.119971" y="595.675" style="stroke: #000000; stroke-width: 0.8"/>
      </g>
     </g>
    </g>
    <g id="xtick_83">
     <g id="line2d_83">
      <g>
       <use xlink:href="#m8df355d146" x="716.00751" y="595.675" style="stroke: #000000; stroke-width: 0.8"/>
      </g>
     </g>
    </g>
    <g id="xtick_84">
     <g id="line2d_84">
      <g>
       <use xlink:href="#m8df355d146" x="723.895048" y="595.675" style="stroke: #000000; stroke-width: 0.8"/>
      </g>
     </g>
    </g>
    <g id="xtick_85">
     <g id="line2d_85">
      <g>
       <use xlink:href="#m8df355d146" x="731.782587" y="595.675" style="stroke: #000000; stroke-width: 0.8"/>
      </g>
     </g>
    </g>
    <g id="xtick_86">
     <g id="line2d_86">
      <g>
       <use xlink:href="#m8df355d146" x="739.670126" y="595.675" style="stroke: #000000; stroke-width: 0.8"/>
      </g>
     </g>
    </g>
    <g id="xtick_87">
     <g id="line2d_87">
      <g>
       <use xlink:href="#m8df355d146" x="747.557665" y="595.675" style="stroke: #000000; stroke-width: 0.8"/>
      </g>
     </g>
    </g>
    <g id="xtick_88">
     <g id="line2d_88">
      <g>
       <use xlink:href="#m8df355d146" x="755.445203" y="595.675" style="stroke: #000000; stroke-width: 0.8"/>
      </g>
     </g>
    </g>
    <g id="xtick_89">
     <g id="line2d_89">
      <g>
       <use xlink:href="#m8df355d146" x="763.332742" y="595.675" style="stroke: #000000; stroke-width: 0.8"/>
      </g>
     </g>
     <g id="text_8">
      <!-- 2022 -->
      <g transform="translate(767.195867 638.305) rotate(-90) scale(0.14 -0.14)">
       <use xlink:href="#DejaVuSans-32"/>
       <use xlink:href="#DejaVuSans-30" x="63.623047"/>
       <use xlink:href="#DejaVuSans-32" x="127.246094"/>
       <use xlink:href="#DejaVuSans-32" x="190.869141"/>
      </g>
     </g>
    </g>
    <g id="xtick_90">
     <g id="line2d_90">
      <g>
       <use xlink:href="#m8df355d146" x="771.220281" y="595.675" style="stroke: #000000; stroke-width: 0.8"/>
      </g>
     </g>
    </g>
    <g id="xtick_91">
     <g id="line2d_91">
      <g>
       <use xlink:href="#m8df355d146" x="779.10782" y="595.675" style="stroke: #000000; stroke-width: 0.8"/>
      </g>
     </g>
    </g>
    <g id="xtick_92">
     <g id="line2d_92">
      <g>
       <use xlink:href="#m8df355d146" x="786.995358" y="595.675" style="stroke: #000000; stroke-width: 0.8"/>
      </g>
     </g>
    </g>
    <g id="xtick_93">
     <g id="line2d_93">
      <g>
       <use xlink:href="#m8df355d146" x="794.882897" y="595.675" style="stroke: #000000; stroke-width: 0.8"/>
      </g>
     </g>
    </g>
    <g id="xtick_94">
     <g id="line2d_94">
      <g>
       <use xlink:href="#m8df355d146" x="802.770436" y="595.675" style="stroke: #000000; stroke-width: 0.8"/>
      </g>
     </g>
    </g>
    <g id="xtick_95">
     <g id="line2d_95">
      <g>
       <use xlink:href="#m8df355d146" x="810.657975" y="595.675" style="stroke: #000000; stroke-width: 0.8"/>
      </g>
     </g>
    </g>
    <g id="xtick_96">
     <g id="line2d_96">
      <g>
       <use xlink:href="#m8df355d146" x="818.545513" y="595.675" style="stroke: #000000; stroke-width: 0.8"/>
      </g>
     </g>
    </g>
    <g id="xtick_97">
     <g id="line2d_97">
      <g>
       <use xlink:href="#m8df355d146" x="826.433052" y="595.675" style="stroke: #000000; stroke-width: 0.8"/>
      </g>
     </g>
    </g>
    <g id="xtick_98">
     <g id="line2d_98">
      <g>
       <use xlink:href="#m8df355d146" x="834.320591" y="595.675" style="stroke: #000000; stroke-width: 0.8"/>
      </g>
     </g>
    </g>
    <g id="xtick_99">
     <g id="line2d_99">
      <g>
       <use xlink:href="#m8df355d146" x="842.20813" y="595.675" style="stroke: #000000; stroke-width: 0.8"/>
      </g>
     </g>
    </g>
    <g id="xtick_100">
     <g id="line2d_100">
      <g>
       <use xlink:href="#m8df355d146" x="850.095668" y="595.675" style="stroke: #000000; stroke-width: 0.8"/>
      </g>
     </g>
    </g>
   </g>
   <g id="matplotlib.axis_2">
    <g id="ytick_1">
     <g id="line2d_101">
      <defs>
       <path id="m4e159edf14" d="M 0 0 
L -3.5 0 
" style="stroke: #000000; stroke-width: 0.8"/>
      </defs>
      <g>
       <use xlink:href="#m4e159edf14" x="65.325" y="503.52698" style="stroke: #000000; stroke-width: 0.8"/>
      </g>
     </g>
     <g id="text_9">
      <!-- 500 -->
      <g transform="translate(31.6025 508.845886) scale(0.14 -0.14)">
       <use xlink:href="#DejaVuSans-35"/>
       <use xlink:href="#DejaVuSans-30" x="63.623047"/>
       <use xlink:href="#DejaVuSans-30" x="127.246094"/>
      </g>
     </g>
    </g>
    <g id="ytick_2">
     <g id="line2d_102">
      <g>
       <use xlink:href="#m4e159edf14" x="65.325" y="383.569132" style="stroke: #000000; stroke-width: 0.8"/>
      </g>
     </g>
     <g id="text_10">
      <!-- 1000 -->
      <g transform="translate(22.695 388.888038) scale(0.14 -0.14)">
       <use xlink:href="#DejaVuSans-31"/>
       <use xlink:href="#DejaVuSans-30" x="63.623047"/>
       <use xlink:href="#DejaVuSans-30" x="127.246094"/>
       <use xlink:href="#DejaVuSans-30" x="190.869141"/>
      </g>
     </g>
    </g>
    <g id="ytick_3">
     <g id="line2d_103">
      <g>
       <use xlink:href="#m4e159edf14" x="65.325" y="263.611284" style="stroke: #000000; stroke-width: 0.8"/>
      </g>
     </g>
     <g id="text_11">
      <!-- 1500 -->
      <g transform="translate(22.695 268.93019) scale(0.14 -0.14)">
       <use xlink:href="#DejaVuSans-31"/>
       <use xlink:href="#DejaVuSans-35" x="63.623047"/>
       <use xlink:href="#DejaVuSans-30" x="127.246094"/>
       <use xlink:href="#DejaVuSans-30" x="190.869141"/>
      </g>
     </g>
    </g>
    <g id="ytick_4">
     <g id="line2d_104">
      <g>
       <use xlink:href="#m4e159edf14" x="65.325" y="143.653436" style="stroke: #000000; stroke-width: 0.8"/>
      </g>
     </g>
     <g id="text_12">
      <!-- 2000 -->
      <g transform="translate(22.695 148.972342) scale(0.14 -0.14)">
       <use xlink:href="#DejaVuSans-32"/>
       <use xlink:href="#DejaVuSans-30" x="63.623047"/>
       <use xlink:href="#DejaVuSans-30" x="127.246094"/>
       <use xlink:href="#DejaVuSans-30" x="190.869141"/>
      </g>
     </g>
    </g>
    <g id="ytick_5">
     <g id="line2d_105">
      <g>
       <use xlink:href="#m4e159edf14" x="65.325" y="23.695588" style="stroke: #000000; stroke-width: 0.8"/>
      </g>
     </g>
     <g id="text_13">
      <!-- 2500 -->
      <g transform="translate(22.695 29.014494) scale(0.14 -0.14)">
       <use xlink:href="#DejaVuSans-32"/>
       <use xlink:href="#DejaVuSans-35" x="63.623047"/>
       <use xlink:href="#DejaVuSans-30" x="127.246094"/>
       <use xlink:href="#DejaVuSans-30" x="190.869141"/>
      </g>
     </g>
    </g>
    <g id="text_14">
     <!-- Petitions -->
     <g transform="translate(16.615312 324.278906) rotate(-90) scale(0.1 -0.1)">
      <defs>
       <path id="DejaVuSans-50" d="M 1259 4147 
L 1259 2394 
L 2053 2394 
Q 2494 2394 2734 2622 
Q 2975 2850 2975 3272 
Q 2975 3691 2734 3919 
Q 2494 4147 2053 4147 
L 1259 4147 
z
M 628 4666 
L 2053 4666 
Q 2838 4666 3239 4311 
Q 3641 3956 3641 3272 
Q 3641 2581 3239 2228 
Q 2838 1875 2053 1875 
L 1259 1875 
L 1259 0 
L 628 0 
L 628 4666 
z
" transform="scale(0.015625)"/>
       <path id="DejaVuSans-65" d="M 3597 1894 
L 3597 1613 
L 953 1613 
Q 991 1019 1311 708 
Q 1631 397 2203 397 
Q 2534 397 2845 478 
Q 3156 559 3463 722 
L 3463 178 
Q 3153 47 2828 -22 
Q 2503 -91 2169 -91 
Q 1331 -91 842 396 
Q 353 884 353 1716 
Q 353 2575 817 3079 
Q 1281 3584 2069 3584 
Q 2775 3584 3186 3129 
Q 3597 2675 3597 1894 
z
M 3022 2063 
Q 3016 2534 2758 2815 
Q 2500 3097 2075 3097 
Q 1594 3097 1305 2825 
Q 1016 2553 972 2059 
L 3022 2063 
z
" transform="scale(0.015625)"/>
       <path id="DejaVuSans-74" d="M 1172 4494 
L 1172 3500 
L 2356 3500 
L 2356 3053 
L 1172 3053 
L 1172 1153 
Q 1172 725 1289 603 
Q 1406 481 1766 481 
L 2356 481 
L 2356 0 
L 1766 0 
Q 1100 0 847 248 
Q 594 497 594 1153 
L 594 3053 
L 172 3053 
L 172 3500 
L 594 3500 
L 594 4494 
L 1172 4494 
z
" transform="scale(0.015625)"/>
       <path id="DejaVuSans-69" d="M 603 3500 
L 1178 3500 
L 1178 0 
L 603 0 
L 603 3500 
z
M 603 4863 
L 1178 4863 
L 1178 4134 
L 603 4134 
L 603 4863 
z
" transform="scale(0.015625)"/>
       <path id="DejaVuSans-6f" d="M 1959 3097 
Q 1497 3097 1228 2736 
Q 959 2375 959 1747 
Q 959 1119 1226 758 
Q 1494 397 1959 397 
Q 2419 397 2687 759 
Q 2956 1122 2956 1747 
Q 2956 2369 2687 2733 
Q 2419 3097 1959 3097 
z
M 1959 3584 
Q 2709 3584 3137 3096 
Q 3566 2609 3566 1747 
Q 3566 888 3137 398 
Q 2709 -91 1959 -91 
Q 1206 -91 779 398 
Q 353 888 353 1747 
Q 353 2609 779 3096 
Q 1206 3584 1959 3584 
z
" transform="scale(0.015625)"/>
       <path id="DejaVuSans-6e" d="M 3513 2113 
L 3513 0 
L 2938 0 
L 2938 2094 
Q 2938 2591 2744 2837 
Q 2550 3084 2163 3084 
Q 1697 3084 1428 2787 
Q 1159 2491 1159 1978 
L 1159 0 
L 581 0 
L 581 3500 
L 1159 3500 
L 1159 2956 
Q 1366 3272 1645 3428 
Q 1925 3584 2291 3584 
Q 2894 3584 3203 3211 
Q 3513 2838 3513 2113 
z
" transform="scale(0.015625)"/>
       <path id="DejaVuSans-73" d="M 2834 3397 
L 2834 2853 
Q 2591 2978 2328 3040 
Q 2066 3103 1784 3103 
Q 1356 3103 1142 2972 
Q 928 2841 928 2578 
Q 928 2378 1081 2264 
Q 1234 2150 1697 2047 
L 1894 2003 
Q 2506 1872 2764 1633 
Q 3022 1394 3022 966 
Q 3022 478 2636 193 
Q 2250 -91 1575 -91 
Q 1294 -91 989 -36 
Q 684 19 347 128 
L 347 722 
Q 666 556 975 473 
Q 1284 391 1588 391 
Q 1994 391 2212 530 
Q 2431 669 2431 922 
Q 2431 1156 2273 1281 
Q 2116 1406 1581 1522 
L 1381 1569 
Q 847 1681 609 1914 
Q 372 2147 372 2553 
Q 372 3047 722 3315 
Q 1072 3584 1716 3584 
Q 2034 3584 2315 3537 
Q 2597 3491 2834 3397 
z
" transform="scale(0.015625)"/>
      </defs>
      <use xlink:href="#DejaVuSans-50"/>
      <use xlink:href="#DejaVuSans-65" x="56.677734"/>
      <use xlink:href="#DejaVuSans-74" x="118.201172"/>
      <use xlink:href="#DejaVuSans-69" x="157.410156"/>
      <use xlink:href="#DejaVuSans-74" x="185.193359"/>
      <use xlink:href="#DejaVuSans-69" x="224.402344"/>
      <use xlink:href="#DejaVuSans-6f" x="252.185547"/>
      <use xlink:href="#DejaVuSans-6e" x="313.367188"/>
      <use xlink:href="#DejaVuSans-73" x="376.746094"/>
     </g>
    </g>
   </g>
   <g id="line2d_106">
    <path d="M 69.229332 592.775619 
L 77.11687 576.461351 
L 85.004409 564.225651 
L 92.891948 559.427337 
L 100.779487 555.34877 
L 108.667025 545.752142 
L 116.554564 539.274419 
L 124.442103 532.796695 
L 132.329642 526.558887 
L 140.21718 525.119392 
L 148.104719 524.879477 
L 155.992258 521.760573 
L 163.879797 512.643776 
L 171.767335 507.365631 
L 179.654874 502.807233 
L 187.542413 498.48875 
L 195.429952 495.849678 
L 203.31749 487.452628 
L 211.205029 480.974904 
L 219.092568 476.416506 
L 226.980107 473.057686 
L 234.867646 472.817771 
L 242.755184 472.577855 
L 250.642723 466.579963 
L 258.530262 454.104346 
L 266.417801 446.427044 
L 274.305339 442.108562 
L 282.192878 440.669067 
L 290.080417 437.070332 
L 297.967956 431.07244 
L 305.855494 428.673283 
L 313.743033 422.67539 
L 321.630572 417.397245 
L 329.518111 416.917414 
L 337.405649 415.957751 
L 345.293188 413.318678 
L 353.180727 400.843062 
L 361.068266 389.567024 
L 368.955804 385.728373 
L 376.843343 383.569132 
L 384.730882 380.210312 
L 392.618421 376.611577 
L 400.505959 371.813263 
L 408.393498 366.295202 
L 416.281037 364.855707 
L 424.168576 364.13596 
L 432.056114 362.936382 
L 439.943653 358.377984 
L 447.831192 343.263295 
L 455.718731 331.507426 
L 463.606269 321.910798 
L 471.493808 317.832231 
L 479.381347 282.564624 
L 487.268886 264.810862 
L 495.156424 255.694066 
L 503.043963 250.41592 
L 510.931502 248.976426 
L 518.819041 248.016763 
L 526.706579 247.057101 
L 534.594118 239.85963 
L 542.481657 226.904182 
L 550.369196 215.148313 
L 558.256734 208.430674 
L 566.144273 204.831938 
L 574.031812 199.313877 
L 581.919351 189.717249 
L 589.806889 178.681127 
L 597.694428 176.042055 
L 605.581967 173.882813 
L 613.469506 173.163066 
L 621.357044 165.72568 
L 629.244583 157.088715 
L 637.132122 147.012255 
L 645.019661 136.455965 
L 652.907199 129.978241 
L 660.794738 128.538747 
L 668.682277 123.500517 
L 676.569816 114.143805 
L 684.457354 104.067346 
L 692.344893 90.392151 
L 700.232432 87.273247 
L 708.119971 86.793416 
L 716.00751 86.793416 
L 723.895048 86.793416 
L 731.782587 78.156451 
L 739.670126 72.878305 
L 747.557665 65.680834 
L 755.445203 62.082099 
L 763.332742 56.324122 
L 771.220281 50.086314 
L 779.10782 47.687157 
L 786.995358 41.449349 
L 794.882897 40.729602 
L 802.770436 40.729602 
L 810.657975 40.729602 
L 818.545513 33.0523 
L 826.433052 25.614913 
L 834.320591 18.897274 
L 842.20813 13.619128 
L 850.095668 12.899381 
" clip-path="url(#p3c6149aea8)" style="fill: none; stroke: #1f77b4; stroke-width: 1.5; stroke-linecap: square"/>
    <defs>
     <path id="mc350c760f5" d="M 0 3 
C 0.795609 3 1.55874 2.683901 2.12132 2.12132 
C 2.683901 1.55874 3 0.795609 3 0 
C 3 -0.795609 2.683901 -1.55874 2.12132 -2.12132 
C 1.55874 -2.683901 0.795609 -3 0 -3 
C -0.795609 -3 -1.55874 -2.683901 -2.12132 -2.12132 
C -2.683901 -1.55874 -3 -0.795609 -3 0 
C -3 0.795609 -2.683901 1.55874 -2.12132 2.12132 
C -1.55874 2.683901 -0.795609 3 0 3 
z
" style="stroke: #1f77b4"/>
    </defs>
    <g clip-path="url(#p3c6149aea8)">
     <use xlink:href="#mc350c760f5" x="69.229332" y="592.775619" style="fill: #1f77b4; stroke: #1f77b4"/>
     <use xlink:href="#mc350c760f5" x="77.11687" y="576.461351" style="fill: #1f77b4; stroke: #1f77b4"/>
     <use xlink:href="#mc350c760f5" x="85.004409" y="564.225651" style="fill: #1f77b4; stroke: #1f77b4"/>
     <use xlink:href="#mc350c760f5" x="92.891948" y="559.427337" style="fill: #1f77b4; stroke: #1f77b4"/>
     <use xlink:href="#mc350c760f5" x="100.779487" y="555.34877" style="fill: #1f77b4; stroke: #1f77b4"/>
     <use xlink:href="#mc350c760f5" x="108.667025" y="545.752142" style="fill: #1f77b4; stroke: #1f77b4"/>
     <use xlink:href="#mc350c760f5" x="116.554564" y="539.274419" style="fill: #1f77b4; stroke: #1f77b4"/>
     <use xlink:href="#mc350c760f5" x="124.442103" y="532.796695" style="fill: #1f77b4; stroke: #1f77b4"/>
     <use xlink:href="#mc350c760f5" x="132.329642" y="526.558887" style="fill: #1f77b4; stroke: #1f77b4"/>
     <use xlink:href="#mc350c760f5" x="140.21718" y="525.119392" style="fill: #1f77b4; stroke: #1f77b4"/>
     <use xlink:href="#mc350c760f5" x="148.104719" y="524.879477" style="fill: #1f77b4; stroke: #1f77b4"/>
     <use xlink:href="#mc350c760f5" x="155.992258" y="521.760573" style="fill: #1f77b4; stroke: #1f77b4"/>
     <use xlink:href="#mc350c760f5" x="163.879797" y="512.643776" style="fill: #1f77b4; stroke: #1f77b4"/>
     <use xlink:href="#mc350c760f5" x="171.767335" y="507.365631" style="fill: #1f77b4; stroke: #1f77b4"/>
     <use xlink:href="#mc350c760f5" x="179.654874" y="502.807233" style="fill: #1f77b4; stroke: #1f77b4"/>
     <use xlink:href="#mc350c760f5" x="187.542413" y="498.48875" style="fill: #1f77b4; stroke: #1f77b4"/>
     <use xlink:href="#mc350c760f5" x="195.429952" y="495.849678" style="fill: #1f77b4; stroke: #1f77b4"/>
     <use xlink:href="#mc350c760f5" x="203.31749" y="487.452628" style="fill: #1f77b4; stroke: #1f77b4"/>
     <use xlink:href="#mc350c760f5" x="211.205029" y="480.974904" style="fill: #1f77b4; stroke: #1f77b4"/>
     <use xlink:href="#mc350c760f5" x="219.092568" y="476.416506" style="fill: #1f77b4; stroke: #1f77b4"/>
     <use xlink:href="#mc350c760f5" x="226.980107" y="473.057686" style="fill: #1f77b4; stroke: #1f77b4"/>
     <use xlink:href="#mc350c760f5" x="234.867646" y="472.817771" style="fill: #1f77b4; stroke: #1f77b4"/>
     <use xlink:href="#mc350c760f5" x="242.755184" y="472.577855" style="fill: #1f77b4; stroke: #1f77b4"/>
     <use xlink:href="#mc350c760f5" x="250.642723" y="466.579963" style="fill: #1f77b4; stroke: #1f77b4"/>
     <use xlink:href="#mc350c760f5" x="258.530262" y="454.104346" style="fill: #1f77b4; stroke: #1f77b4"/>
     <use xlink:href="#mc350c760f5" x="266.417801" y="446.427044" style="fill: #1f77b4; stroke: #1f77b4"/>
     <use xlink:href="#mc350c760f5" x="274.305339" y="442.108562" style="fill: #1f77b4; stroke: #1f77b4"/>
     <use xlink:href="#mc350c760f5" x="282.192878" y="440.669067" style="fill: #1f77b4; stroke: #1f77b4"/>
     <use xlink:href="#mc350c760f5" x="290.080417" y="437.070332" style="fill: #1f77b4; stroke: #1f77b4"/>
     <use xlink:href="#mc350c760f5" x="297.967956" y="431.07244" style="fill: #1f77b4; stroke: #1f77b4"/>
     <use xlink:href="#mc350c760f5" x="305.855494" y="428.673283" style="fill: #1f77b4; stroke: #1f77b4"/>
     <use xlink:href="#mc350c760f5" x="313.743033" y="422.67539" style="fill: #1f77b4; stroke: #1f77b4"/>
     <use xlink:href="#mc350c760f5" x="321.630572" y="417.397245" style="fill: #1f77b4; stroke: #1f77b4"/>
     <use xlink:href="#mc350c760f5" x="329.518111" y="416.917414" style="fill: #1f77b4; stroke: #1f77b4"/>
     <use xlink:href="#mc350c760f5" x="337.405649" y="415.957751" style="fill: #1f77b4; stroke: #1f77b4"/>
     <use xlink:href="#mc350c760f5" x="345.293188" y="413.318678" style="fill: #1f77b4; stroke: #1f77b4"/>
     <use xlink:href="#mc350c760f5" x="353.180727" y="400.843062" style="fill: #1f77b4; stroke: #1f77b4"/>
     <use xlink:href="#mc350c760f5" x="361.068266" y="389.567024" style="fill: #1f77b4; stroke: #1f77b4"/>
     <use xlink:href="#mc350c760f5" x="368.955804" y="385.728373" style="fill: #1f77b4; stroke: #1f77b4"/>
     <use xlink:href="#mc350c760f5" x="376.843343" y="383.569132" style="fill: #1f77b4; stroke: #1f77b4"/>
     <use xlink:href="#mc350c760f5" x="384.730882" y="380.210312" style="fill: #1f77b4; stroke: #1f77b4"/>
     <use xlink:href="#mc350c760f5" x="392.618421" y="376.611577" style="fill: #1f77b4; stroke: #1f77b4"/>
     <use xlink:href="#mc350c760f5" x="400.505959" y="371.813263" style="fill: #1f77b4; stroke: #1f77b4"/>
     <use xlink:href="#mc350c760f5" x="408.393498" y="366.295202" style="fill: #1f77b4; stroke: #1f77b4"/>
     <use xlink:href="#mc350c760f5" x="416.281037" y="364.855707" style="fill: #1f77b4; stroke: #1f77b4"/>
     <use xlink:href="#mc350c760f5" x="424.168576" y="364.13596" style="fill: #1f77b4; stroke: #1f77b4"/>
     <use xlink:href="#mc350c760f5" x="432.056114" y="362.936382" style="fill: #1f77b4; stroke: #1f77b4"/>
     <use xlink:href="#mc350c760f5" x="439.943653" y="358.377984" style="fill: #1f77b4; stroke: #1f77b4"/>
     <use xlink:href="#mc350c760f5" x="447.831192" y="343.263295" style="fill: #1f77b4; stroke: #1f77b4"/>
     <use xlink:href="#mc350c760f5" x="455.718731" y="331.507426" style="fill: #1f77b4; stroke: #1f77b4"/>
     <use xlink:href="#mc350c760f5" x="463.606269" y="321.910798" style="fill: #1f77b4; stroke: #1f77b4"/>
     <use xlink:href="#mc350c760f5" x="471.493808" y="317.832231" style="fill: #1f77b4; stroke: #1f77b4"/>
     <use xlink:href="#mc350c760f5" x="479.381347" y="282.564624" style="fill: #1f77b4; stroke: #1f77b4"/>
     <use xlink:href="#mc350c760f5" x="487.268886" y="264.810862" style="fill: #1f77b4; stroke: #1f77b4"/>
     <use xlink:href="#mc350c760f5" x="495.156424" y="255.694066" style="fill: #1f77b4; stroke: #1f77b4"/>
     <use xlink:href="#mc350c760f5" x="503.043963" y="250.41592" style="fill: #1f77b4; stroke: #1f77b4"/>
     <use xlink:href="#mc350c760f5" x="510.931502" y="248.976426" style="fill: #1f77b4; stroke: #1f77b4"/>
     <use xlink:href="#mc350c760f5" x="518.819041" y="248.016763" style="fill: #1f77b4; stroke: #1f77b4"/>
     <use xlink:href="#mc350c760f5" x="526.706579" y="247.057101" style="fill: #1f77b4; stroke: #1f77b4"/>
     <use xlink:href="#mc350c760f5" x="534.594118" y="239.85963" style="fill: #1f77b4; stroke: #1f77b4"/>
     <use xlink:href="#mc350c760f5" x="542.481657" y="226.904182" style="fill: #1f77b4; stroke: #1f77b4"/>
     <use xlink:href="#mc350c760f5" x="550.369196" y="215.148313" style="fill: #1f77b4; stroke: #1f77b4"/>
     <use xlink:href="#mc350c760f5" x="558.256734" y="208.430674" style="fill: #1f77b4; stroke: #1f77b4"/>
     <use xlink:href="#mc350c760f5" x="566.144273" y="204.831938" style="fill: #1f77b4; stroke: #1f77b4"/>
     <use xlink:href="#mc350c760f5" x="574.031812" y="199.313877" style="fill: #1f77b4; stroke: #1f77b4"/>
     <use xlink:href="#mc350c760f5" x="581.919351" y="189.717249" style="fill: #1f77b4; stroke: #1f77b4"/>
     <use xlink:href="#mc350c760f5" x="589.806889" y="178.681127" style="fill: #1f77b4; stroke: #1f77b4"/>
     <use xlink:href="#mc350c760f5" x="597.694428" y="176.042055" style="fill: #1f77b4; stroke: #1f77b4"/>
     <use xlink:href="#mc350c760f5" x="605.581967" y="173.882813" style="fill: #1f77b4; stroke: #1f77b4"/>
     <use xlink:href="#mc350c760f5" x="613.469506" y="173.163066" style="fill: #1f77b4; stroke: #1f77b4"/>
     <use xlink:href="#mc350c760f5" x="621.357044" y="165.72568" style="fill: #1f77b4; stroke: #1f77b4"/>
     <use xlink:href="#mc350c760f5" x="629.244583" y="157.088715" style="fill: #1f77b4; stroke: #1f77b4"/>
     <use xlink:href="#mc350c760f5" x="637.132122" y="147.012255" style="fill: #1f77b4; stroke: #1f77b4"/>
     <use xlink:href="#mc350c760f5" x="645.019661" y="136.455965" style="fill: #1f77b4; stroke: #1f77b4"/>
     <use xlink:href="#mc350c760f5" x="652.907199" y="129.978241" style="fill: #1f77b4; stroke: #1f77b4"/>
     <use xlink:href="#mc350c760f5" x="660.794738" y="128.538747" style="fill: #1f77b4; stroke: #1f77b4"/>
     <use xlink:href="#mc350c760f5" x="668.682277" y="123.500517" style="fill: #1f77b4; stroke: #1f77b4"/>
     <use xlink:href="#mc350c760f5" x="676.569816" y="114.143805" style="fill: #1f77b4; stroke: #1f77b4"/>
     <use xlink:href="#mc350c760f5" x="684.457354" y="104.067346" style="fill: #1f77b4; stroke: #1f77b4"/>
     <use xlink:href="#mc350c760f5" x="692.344893" y="90.392151" style="fill: #1f77b4; stroke: #1f77b4"/>
     <use xlink:href="#mc350c760f5" x="700.232432" y="87.273247" style="fill: #1f77b4; stroke: #1f77b4"/>
     <use xlink:href="#mc350c760f5" x="708.119971" y="86.793416" style="fill: #1f77b4; stroke: #1f77b4"/>
     <use xlink:href="#mc350c760f5" x="716.00751" y="86.793416" style="fill: #1f77b4; stroke: #1f77b4"/>
     <use xlink:href="#mc350c760f5" x="723.895048" y="86.793416" style="fill: #1f77b4; stroke: #1f77b4"/>
     <use xlink:href="#mc350c760f5" x="731.782587" y="78.156451" style="fill: #1f77b4; stroke: #1f77b4"/>
     <use xlink:href="#mc350c760f5" x="739.670126" y="72.878305" style="fill: #1f77b4; stroke: #1f77b4"/>
     <use xlink:href="#mc350c760f5" x="747.557665" y="65.680834" style="fill: #1f77b4; stroke: #1f77b4"/>
     <use xlink:href="#mc350c760f5" x="755.445203" y="62.082099" style="fill: #1f77b4; stroke: #1f77b4"/>
     <use xlink:href="#mc350c760f5" x="763.332742" y="56.324122" style="fill: #1f77b4; stroke: #1f77b4"/>
     <use xlink:href="#mc350c760f5" x="771.220281" y="50.086314" style="fill: #1f77b4; stroke: #1f77b4"/>
     <use xlink:href="#mc350c760f5" x="779.10782" y="47.687157" style="fill: #1f77b4; stroke: #1f77b4"/>
     <use xlink:href="#mc350c760f5" x="786.995358" y="41.449349" style="fill: #1f77b4; stroke: #1f77b4"/>
     <use xlink:href="#mc350c760f5" x="794.882897" y="40.729602" style="fill: #1f77b4; stroke: #1f77b4"/>
     <use xlink:href="#mc350c760f5" x="802.770436" y="40.729602" style="fill: #1f77b4; stroke: #1f77b4"/>
     <use xlink:href="#mc350c760f5" x="810.657975" y="40.729602" style="fill: #1f77b4; stroke: #1f77b4"/>
     <use xlink:href="#mc350c760f5" x="818.545513" y="33.0523" style="fill: #1f77b4; stroke: #1f77b4"/>
     <use xlink:href="#mc350c760f5" x="826.433052" y="25.614913" style="fill: #1f77b4; stroke: #1f77b4"/>
     <use xlink:href="#mc350c760f5" x="834.320591" y="18.897274" style="fill: #1f77b4; stroke: #1f77b4"/>
     <use xlink:href="#mc350c760f5" x="842.20813" y="13.619128" style="fill: #1f77b4; stroke: #1f77b4"/>
     <use xlink:href="#mc350c760f5" x="850.095668" y="12.899381" style="fill: #1f77b4; stroke: #1f77b4"/>
    </g>
   </g>
   <g id="patch_3">
    <path d="M 65.325 595.675 
L 65.325 10 
" style="fill: none; stroke: #000000; stroke-width: 0.8; stroke-linejoin: miter; stroke-linecap: square"/>
   </g>
   <g id="patch_4">
    <path d="M 854 595.675 
L 854 10 
" style="fill: none; stroke: #000000; stroke-width: 0.8; stroke-linejoin: miter; stroke-linecap: square"/>
   </g>
   <g id="patch_5">
    <path d="M 65.325 595.675 
L 854 595.675 
" style="fill: none; stroke: #000000; stroke-width: 0.8; stroke-linejoin: miter; stroke-linecap: square"/>
   </g>
   <g id="patch_6">
    <path d="M 65.325 10 
L 854 10 
" style="fill: none; stroke: #000000; stroke-width: 0.8; stroke-linejoin: miter; stroke-linecap: square"/>
   </g>
  </g>
 </g>
 <defs>
  <clipPath id="p3c6149aea8">
   <rect x="65.325" y="10" width="788.675" height="585.675"/>
  </clipPath>
 </defs>
</svg>
