<?xml version="1.0" encoding="utf-8" standalone="no"?>
<!DOCTYPE svg PUBLIC "-//W3C//DTD SVG 1.1//EN"
  "http://www.w3.org/Graphics/SVG/1.1/DTD/svg11.dtd">
<svg xmlns:xlink="http://www.w3.org/1999/xlink" width="864pt" height="648pt" viewBox="0 0 864 648" xmlns="http://www.w3.org/2000/svg" version="1.1">
 <metadata>
  <rdf:RDF xmlns:dc="http://purl.org/dc/elements/1.1/" xmlns:cc="http://creativecommons.org/ns#" xmlns:rdf="http://www.w3.org/1999/02/22-rdf-syntax-ns#">
   <cc:Work>
    <dc:type rdf:resource="http://purl.org/dc/dcmitype/StillImage"/>
    <dc:date>2022-11-07T05:03:33.008440</dc:date>
    <dc:format>image/svg+xml</dc:format>
    <dc:creator>
     <cc:Agent>
      <dc:title>Matplotlib v3.6.1, https://matplotlib.org/</dc:title>
     </cc:Agent>
    </dc:creator>
   </cc:Work>
  </rdf:RDF>
 </metadata>
 <defs>
  <style type="text/css">*{stroke-linejoin: round; stroke-linecap: butt}</style>
 </defs>
 <g id="figure_1">
  <g id="patch_1">
   <path d="M 0 648 
L 864 648 
L 864 0 
L 0 0 
z
" style="fill: #ffffff"/>
  </g>
  <g id="axes_1">
   <g id="patch_2">
    <path d="M 65.325 595.675 
L 854 595.675 
L 854 10 
L 65.325 10 
z
" style="fill: #ffffff"/>
   </g>
   <g id="matplotlib.axis_1">
    <g id="xtick_1">
     <g id="line2d_1">
      <defs>
       <path id="m71d70abe40" d="M 0 0 
L 0 3.5 
" style="stroke: #000000; stroke-width: 0.8"/>
      </defs>
      <g>
       <use xlink:href="#m71d70abe40" x="69.229332" y="595.675" style="stroke: #000000; stroke-width: 0.8"/>
      </g>
     </g>
    </g>
    <g id="xtick_2">
     <g id="line2d_2">
      <g>
       <use xlink:href="#m71d70abe40" x="77.197356" y="595.675" style="stroke: #000000; stroke-width: 0.8"/>
      </g>
     </g>
    </g>
    <g id="xtick_3">
     <g id="line2d_3">
      <g>
       <use xlink:href="#m71d70abe40" x="85.165379" y="595.675" style="stroke: #000000; stroke-width: 0.8"/>
      </g>
     </g>
    </g>
    <g id="xtick_4">
     <g id="line2d_4">
      <g>
       <use xlink:href="#m71d70abe40" x="93.133403" y="595.675" style="stroke: #000000; stroke-width: 0.8"/>
      </g>
     </g>
    </g>
    <g id="xtick_5">
     <g id="line2d_5">
      <g>
       <use xlink:href="#m71d70abe40" x="101.101427" y="595.675" style="stroke: #000000; stroke-width: 0.8"/>
      </g>
     </g>
     <g id="text_1">
      <!-- 2015 -->
      <g transform="translate(104.964552 638.305) rotate(-90) scale(0.14 -0.14)">
       <defs>
        <path id="DejaVuSans-32" d="M 1228 531 
L 3431 531 
L 3431 0 
L 469 0 
L 469 531 
Q 828 903 1448 1529 
Q 2069 2156 2228 2338 
Q 2531 2678 2651 2914 
Q 2772 3150 2772 3378 
Q 2772 3750 2511 3984 
Q 2250 4219 1831 4219 
Q 1534 4219 1204 4116 
Q 875 4013 500 3803 
L 500 4441 
Q 881 4594 1212 4672 
Q 1544 4750 1819 4750 
Q 2544 4750 2975 4387 
Q 3406 4025 3406 3419 
Q 3406 3131 3298 2873 
Q 3191 2616 2906 2266 
Q 2828 2175 2409 1742 
Q 1991 1309 1228 531 
z
" transform="scale(0.015625)"/>
        <path id="DejaVuSans-30" d="M 2034 4250 
Q 1547 4250 1301 3770 
Q 1056 3291 1056 2328 
Q 1056 1369 1301 889 
Q 1547 409 2034 409 
Q 2525 409 2770 889 
Q 3016 1369 3016 2328 
Q 3016 3291 2770 3770 
Q 2525 4250 2034 4250 
z
M 2034 4750 
Q 2819 4750 3233 4129 
Q 3647 3509 3647 2328 
Q 3647 1150 3233 529 
Q 2819 -91 2034 -91 
Q 1250 -91 836 529 
Q 422 1150 422 2328 
Q 422 3509 836 4129 
Q 1250 4750 2034 4750 
z
" transform="scale(0.015625)"/>
        <path id="DejaVuSans-31" d="M 794 531 
L 1825 531 
L 1825 4091 
L 703 3866 
L 703 4441 
L 1819 4666 
L 2450 4666 
L 2450 531 
L 3481 531 
L 3481 0 
L 794 0 
L 794 531 
z
" transform="scale(0.015625)"/>
        <path id="DejaVuSans-35" d="M 691 4666 
L 3169 4666 
L 3169 4134 
L 1269 4134 
L 1269 2991 
Q 1406 3038 1543 3061 
Q 1681 3084 1819 3084 
Q 2600 3084 3056 2656 
Q 3513 2228 3513 1497 
Q 3513 744 3044 326 
Q 2575 -91 1722 -91 
Q 1428 -91 1123 -41 
Q 819 9 494 109 
L 494 744 
Q 775 591 1075 516 
Q 1375 441 1709 441 
Q 2250 441 2565 725 
Q 2881 1009 2881 1497 
Q 2881 1984 2565 2268 
Q 2250 2553 1709 2553 
Q 1456 2553 1204 2497 
Q 953 2441 691 2322 
L 691 4666 
z
" transform="scale(0.015625)"/>
       </defs>
       <use xlink:href="#DejaVuSans-32"/>
       <use xlink:href="#DejaVuSans-30" x="63.623047"/>
       <use xlink:href="#DejaVuSans-31" x="127.246094"/>
       <use xlink:href="#DejaVuSans-35" x="190.869141"/>
      </g>
     </g>
    </g>
    <g id="xtick_6">
     <g id="line2d_6">
      <g>
       <use xlink:href="#m71d70abe40" x="109.069451" y="595.675" style="stroke: #000000; stroke-width: 0.8"/>
      </g>
     </g>
    </g>
    <g id="xtick_7">
     <g id="line2d_7">
      <g>
       <use xlink:href="#m71d70abe40" x="117.037475" y="595.675" style="stroke: #000000; stroke-width: 0.8"/>
      </g>
     </g>
    </g>
    <g id="xtick_8">
     <g id="line2d_8">
      <g>
       <use xlink:href="#m71d70abe40" x="125.005499" y="595.675" style="stroke: #000000; stroke-width: 0.8"/>
      </g>
     </g>
    </g>
    <g id="xtick_9">
     <g id="line2d_9">
      <g>
       <use xlink:href="#m71d70abe40" x="132.973522" y="595.675" style="stroke: #000000; stroke-width: 0.8"/>
      </g>
     </g>
    </g>
    <g id="xtick_10">
     <g id="line2d_10">
      <g>
       <use xlink:href="#m71d70abe40" x="140.941546" y="595.675" style="stroke: #000000; stroke-width: 0.8"/>
      </g>
     </g>
    </g>
    <g id="xtick_11">
     <g id="line2d_11">
      <g>
       <use xlink:href="#m71d70abe40" x="148.90957" y="595.675" style="stroke: #000000; stroke-width: 0.8"/>
      </g>
     </g>
    </g>
    <g id="xtick_12">
     <g id="line2d_12">
      <g>
       <use xlink:href="#m71d70abe40" x="156.877594" y="595.675" style="stroke: #000000; stroke-width: 0.8"/>
      </g>
     </g>
    </g>
    <g id="xtick_13">
     <g id="line2d_13">
      <g>
       <use xlink:href="#m71d70abe40" x="164.845618" y="595.675" style="stroke: #000000; stroke-width: 0.8"/>
      </g>
     </g>
    </g>
    <g id="xtick_14">
     <g id="line2d_14">
      <g>
       <use xlink:href="#m71d70abe40" x="172.813642" y="595.675" style="stroke: #000000; stroke-width: 0.8"/>
      </g>
     </g>
    </g>
    <g id="xtick_15">
     <g id="line2d_15">
      <g>
       <use xlink:href="#m71d70abe40" x="180.781665" y="595.675" style="stroke: #000000; stroke-width: 0.8"/>
      </g>
     </g>
    </g>
    <g id="xtick_16">
     <g id="line2d_16">
      <g>
       <use xlink:href="#m71d70abe40" x="188.749689" y="595.675" style="stroke: #000000; stroke-width: 0.8"/>
      </g>
     </g>
    </g>
    <g id="xtick_17">
     <g id="line2d_17">
      <g>
       <use xlink:href="#m71d70abe40" x="196.717713" y="595.675" style="stroke: #000000; stroke-width: 0.8"/>
      </g>
     </g>
     <g id="text_2">
      <!-- 2016 -->
      <g transform="translate(200.580838 638.305) rotate(-90) scale(0.14 -0.14)">
       <defs>
        <path id="DejaVuSans-36" d="M 2113 2584 
Q 1688 2584 1439 2293 
Q 1191 2003 1191 1497 
Q 1191 994 1439 701 
Q 1688 409 2113 409 
Q 2538 409 2786 701 
Q 3034 994 3034 1497 
Q 3034 2003 2786 2293 
Q 2538 2584 2113 2584 
z
M 3366 4563 
L 3366 3988 
Q 3128 4100 2886 4159 
Q 2644 4219 2406 4219 
Q 1781 4219 1451 3797 
Q 1122 3375 1075 2522 
Q 1259 2794 1537 2939 
Q 1816 3084 2150 3084 
Q 2853 3084 3261 2657 
Q 3669 2231 3669 1497 
Q 3669 778 3244 343 
Q 2819 -91 2113 -91 
Q 1303 -91 875 529 
Q 447 1150 447 2328 
Q 447 3434 972 4092 
Q 1497 4750 2381 4750 
Q 2619 4750 2861 4703 
Q 3103 4656 3366 4563 
z
" transform="scale(0.015625)"/>
       </defs>
       <use xlink:href="#DejaVuSans-32"/>
       <use xlink:href="#DejaVuSans-30" x="63.623047"/>
       <use xlink:href="#DejaVuSans-31" x="127.246094"/>
       <use xlink:href="#DejaVuSans-36" x="190.869141"/>
      </g>
     </g>
    </g>
    <g id="xtick_18">
     <g id="line2d_18">
      <g>
       <use xlink:href="#m71d70abe40" x="204.685737" y="595.675" style="stroke: #000000; stroke-width: 0.8"/>
      </g>
     </g>
    </g>
    <g id="xtick_19">
     <g id="line2d_19">
      <g>
       <use xlink:href="#m71d70abe40" x="212.653761" y="595.675" style="stroke: #000000; stroke-width: 0.8"/>
      </g>
     </g>
    </g>
    <g id="xtick_20">
     <g id="line2d_20">
      <g>
       <use xlink:href="#m71d70abe40" x="220.621785" y="595.675" style="stroke: #000000; stroke-width: 0.8"/>
      </g>
     </g>
    </g>
    <g id="xtick_21">
     <g id="line2d_21">
      <g>
       <use xlink:href="#m71d70abe40" x="228.589809" y="595.675" style="stroke: #000000; stroke-width: 0.8"/>
      </g>
     </g>
    </g>
    <g id="xtick_22">
     <g id="line2d_22">
      <g>
       <use xlink:href="#m71d70abe40" x="236.557832" y="595.675" style="stroke: #000000; stroke-width: 0.8"/>
      </g>
     </g>
    </g>
    <g id="xtick_23">
     <g id="line2d_23">
      <g>
       <use xlink:href="#m71d70abe40" x="244.525856" y="595.675" style="stroke: #000000; stroke-width: 0.8"/>
      </g>
     </g>
    </g>
    <g id="xtick_24">
     <g id="line2d_24">
      <g>
       <use xlink:href="#m71d70abe40" x="252.49388" y="595.675" style="stroke: #000000; stroke-width: 0.8"/>
      </g>
     </g>
    </g>
    <g id="xtick_25">
     <g id="line2d_25">
      <g>
       <use xlink:href="#m71d70abe40" x="260.461904" y="595.675" style="stroke: #000000; stroke-width: 0.8"/>
      </g>
     </g>
    </g>
    <g id="xtick_26">
     <g id="line2d_26">
      <g>
       <use xlink:href="#m71d70abe40" x="268.429928" y="595.675" style="stroke: #000000; stroke-width: 0.8"/>
      </g>
     </g>
    </g>
    <g id="xtick_27">
     <g id="line2d_27">
      <g>
       <use xlink:href="#m71d70abe40" x="276.397952" y="595.675" style="stroke: #000000; stroke-width: 0.8"/>
      </g>
     </g>
    </g>
    <g id="xtick_28">
     <g id="line2d_28">
      <g>
       <use xlink:href="#m71d70abe40" x="284.365975" y="595.675" style="stroke: #000000; stroke-width: 0.8"/>
      </g>
     </g>
    </g>
    <g id="xtick_29">
     <g id="line2d_29">
      <g>
       <use xlink:href="#m71d70abe40" x="292.333999" y="595.675" style="stroke: #000000; stroke-width: 0.8"/>
      </g>
     </g>
     <g id="text_3">
      <!-- 2017 -->
      <g transform="translate(296.197124 638.305) rotate(-90) scale(0.14 -0.14)">
       <defs>
        <path id="DejaVuSans-37" d="M 525 4666 
L 3525 4666 
L 3525 4397 
L 1831 0 
L 1172 0 
L 2766 4134 
L 525 4134 
L 525 4666 
z
" transform="scale(0.015625)"/>
       </defs>
       <use xlink:href="#DejaVuSans-32"/>
       <use xlink:href="#DejaVuSans-30" x="63.623047"/>
       <use xlink:href="#DejaVuSans-31" x="127.246094"/>
       <use xlink:href="#DejaVuSans-37" x="190.869141"/>
      </g>
     </g>
    </g>
    <g id="xtick_30">
     <g id="line2d_30">
      <g>
       <use xlink:href="#m71d70abe40" x="300.302023" y="595.675" style="stroke: #000000; stroke-width: 0.8"/>
      </g>
     </g>
    </g>
    <g id="xtick_31">
     <g id="line2d_31">
      <g>
       <use xlink:href="#m71d70abe40" x="308.270047" y="595.675" style="stroke: #000000; stroke-width: 0.8"/>
      </g>
     </g>
    </g>
    <g id="xtick_32">
     <g id="line2d_32">
      <g>
       <use xlink:href="#m71d70abe40" x="316.238071" y="595.675" style="stroke: #000000; stroke-width: 0.8"/>
      </g>
     </g>
    </g>
    <g id="xtick_33">
     <g id="line2d_33">
      <g>
       <use xlink:href="#m71d70abe40" x="324.206095" y="595.675" style="stroke: #000000; stroke-width: 0.8"/>
      </g>
     </g>
    </g>
    <g id="xtick_34">
     <g id="line2d_34">
      <g>
       <use xlink:href="#m71d70abe40" x="332.174119" y="595.675" style="stroke: #000000; stroke-width: 0.8"/>
      </g>
     </g>
    </g>
    <g id="xtick_35">
     <g id="line2d_35">
      <g>
       <use xlink:href="#m71d70abe40" x="340.142142" y="595.675" style="stroke: #000000; stroke-width: 0.8"/>
      </g>
     </g>
    </g>
    <g id="xtick_36">
     <g id="line2d_36">
      <g>
       <use xlink:href="#m71d70abe40" x="348.110166" y="595.675" style="stroke: #000000; stroke-width: 0.8"/>
      </g>
     </g>
    </g>
    <g id="xtick_37">
     <g id="line2d_37">
      <g>
       <use xlink:href="#m71d70abe40" x="356.07819" y="595.675" style="stroke: #000000; stroke-width: 0.8"/>
      </g>
     </g>
    </g>
    <g id="xtick_38">
     <g id="line2d_38">
      <g>
       <use xlink:href="#m71d70abe40" x="364.046214" y="595.675" style="stroke: #000000; stroke-width: 0.8"/>
      </g>
     </g>
    </g>
    <g id="xtick_39">
     <g id="line2d_39">
      <g>
       <use xlink:href="#m71d70abe40" x="372.014238" y="595.675" style="stroke: #000000; stroke-width: 0.8"/>
      </g>
     </g>
    </g>
    <g id="xtick_40">
     <g id="line2d_40">
      <g>
       <use xlink:href="#m71d70abe40" x="379.982262" y="595.675" style="stroke: #000000; stroke-width: 0.8"/>
      </g>
     </g>
    </g>
    <g id="xtick_41">
     <g id="line2d_41">
      <g>
       <use xlink:href="#m71d70abe40" x="387.950285" y="595.675" style="stroke: #000000; stroke-width: 0.8"/>
      </g>
     </g>
     <g id="text_4">
      <!-- 2018 -->
      <g transform="translate(391.81341 638.305) rotate(-90) scale(0.14 -0.14)">
       <defs>
        <path id="DejaVuSans-38" d="M 2034 2216 
Q 1584 2216 1326 1975 
Q 1069 1734 1069 1313 
Q 1069 891 1326 650 
Q 1584 409 2034 409 
Q 2484 409 2743 651 
Q 3003 894 3003 1313 
Q 3003 1734 2745 1975 
Q 2488 2216 2034 2216 
z
M 1403 2484 
Q 997 2584 770 2862 
Q 544 3141 544 3541 
Q 544 4100 942 4425 
Q 1341 4750 2034 4750 
Q 2731 4750 3128 4425 
Q 3525 4100 3525 3541 
Q 3525 3141 3298 2862 
Q 3072 2584 2669 2484 
Q 3125 2378 3379 2068 
Q 3634 1759 3634 1313 
Q 3634 634 3220 271 
Q 2806 -91 2034 -91 
Q 1263 -91 848 271 
Q 434 634 434 1313 
Q 434 1759 690 2068 
Q 947 2378 1403 2484 
z
M 1172 3481 
Q 1172 3119 1398 2916 
Q 1625 2713 2034 2713 
Q 2441 2713 2670 2916 
Q 2900 3119 2900 3481 
Q 2900 3844 2670 4047 
Q 2441 4250 2034 4250 
Q 1625 4250 1398 4047 
Q 1172 3844 1172 3481 
z
" transform="scale(0.015625)"/>
       </defs>
       <use xlink:href="#DejaVuSans-32"/>
       <use xlink:href="#DejaVuSans-30" x="63.623047"/>
       <use xlink:href="#DejaVuSans-31" x="127.246094"/>
       <use xlink:href="#DejaVuSans-38" x="190.869141"/>
      </g>
     </g>
    </g>
    <g id="xtick_42">
     <g id="line2d_42">
      <g>
       <use xlink:href="#m71d70abe40" x="395.918309" y="595.675" style="stroke: #000000; stroke-width: 0.8"/>
      </g>
     </g>
    </g>
    <g id="xtick_43">
     <g id="line2d_43">
      <g>
       <use xlink:href="#m71d70abe40" x="403.886333" y="595.675" style="stroke: #000000; stroke-width: 0.8"/>
      </g>
     </g>
    </g>
    <g id="xtick_44">
     <g id="line2d_44">
      <g>
       <use xlink:href="#m71d70abe40" x="411.854357" y="595.675" style="stroke: #000000; stroke-width: 0.8"/>
      </g>
     </g>
    </g>
    <g id="xtick_45">
     <g id="line2d_45">
      <g>
       <use xlink:href="#m71d70abe40" x="419.822381" y="595.675" style="stroke: #000000; stroke-width: 0.8"/>
      </g>
     </g>
    </g>
    <g id="xtick_46">
     <g id="line2d_46">
      <g>
       <use xlink:href="#m71d70abe40" x="427.790405" y="595.675" style="stroke: #000000; stroke-width: 0.8"/>
      </g>
     </g>
    </g>
    <g id="xtick_47">
     <g id="line2d_47">
      <g>
       <use xlink:href="#m71d70abe40" x="435.758428" y="595.675" style="stroke: #000000; stroke-width: 0.8"/>
      </g>
     </g>
    </g>
    <g id="xtick_48">
     <g id="line2d_48">
      <g>
       <use xlink:href="#m71d70abe40" x="443.726452" y="595.675" style="stroke: #000000; stroke-width: 0.8"/>
      </g>
     </g>
    </g>
    <g id="xtick_49">
     <g id="line2d_49">
      <g>
       <use xlink:href="#m71d70abe40" x="451.694476" y="595.675" style="stroke: #000000; stroke-width: 0.8"/>
      </g>
     </g>
    </g>
    <g id="xtick_50">
     <g id="line2d_50">
      <g>
       <use xlink:href="#m71d70abe40" x="459.6625" y="595.675" style="stroke: #000000; stroke-width: 0.8"/>
      </g>
     </g>
    </g>
    <g id="xtick_51">
     <g id="line2d_51">
      <g>
       <use xlink:href="#m71d70abe40" x="467.630524" y="595.675" style="stroke: #000000; stroke-width: 0.8"/>
      </g>
     </g>
    </g>
    <g id="xtick_52">
     <g id="line2d_52">
      <g>
       <use xlink:href="#m71d70abe40" x="475.598548" y="595.675" style="stroke: #000000; stroke-width: 0.8"/>
      </g>
     </g>
    </g>
    <g id="xtick_53">
     <g id="line2d_53">
      <g>
       <use xlink:href="#m71d70abe40" x="483.566572" y="595.675" style="stroke: #000000; stroke-width: 0.8"/>
      </g>
     </g>
     <g id="text_5">
      <!-- 2019 -->
      <g transform="translate(487.429697 638.305) rotate(-90) scale(0.14 -0.14)">
       <defs>
        <path id="DejaVuSans-39" d="M 703 97 
L 703 672 
Q 941 559 1184 500 
Q 1428 441 1663 441 
Q 2288 441 2617 861 
Q 2947 1281 2994 2138 
Q 2813 1869 2534 1725 
Q 2256 1581 1919 1581 
Q 1219 1581 811 2004 
Q 403 2428 403 3163 
Q 403 3881 828 4315 
Q 1253 4750 1959 4750 
Q 2769 4750 3195 4129 
Q 3622 3509 3622 2328 
Q 3622 1225 3098 567 
Q 2575 -91 1691 -91 
Q 1453 -91 1209 -44 
Q 966 3 703 97 
z
M 1959 2075 
Q 2384 2075 2632 2365 
Q 2881 2656 2881 3163 
Q 2881 3666 2632 3958 
Q 2384 4250 1959 4250 
Q 1534 4250 1286 3958 
Q 1038 3666 1038 3163 
Q 1038 2656 1286 2365 
Q 1534 2075 1959 2075 
z
" transform="scale(0.015625)"/>
       </defs>
       <use xlink:href="#DejaVuSans-32"/>
       <use xlink:href="#DejaVuSans-30" x="63.623047"/>
       <use xlink:href="#DejaVuSans-31" x="127.246094"/>
       <use xlink:href="#DejaVuSans-39" x="190.869141"/>
      </g>
     </g>
    </g>
    <g id="xtick_54">
     <g id="line2d_54">
      <g>
       <use xlink:href="#m71d70abe40" x="491.534595" y="595.675" style="stroke: #000000; stroke-width: 0.8"/>
      </g>
     </g>
    </g>
    <g id="xtick_55">
     <g id="line2d_55">
      <g>
       <use xlink:href="#m71d70abe40" x="499.502619" y="595.675" style="stroke: #000000; stroke-width: 0.8"/>
      </g>
     </g>
    </g>
    <g id="xtick_56">
     <g id="line2d_56">
      <g>
       <use xlink:href="#m71d70abe40" x="507.470643" y="595.675" style="stroke: #000000; stroke-width: 0.8"/>
      </g>
     </g>
    </g>
    <g id="xtick_57">
     <g id="line2d_57">
      <g>
       <use xlink:href="#m71d70abe40" x="515.438667" y="595.675" style="stroke: #000000; stroke-width: 0.8"/>
      </g>
     </g>
    </g>
    <g id="xtick_58">
     <g id="line2d_58">
      <g>
       <use xlink:href="#m71d70abe40" x="523.406691" y="595.675" style="stroke: #000000; stroke-width: 0.8"/>
      </g>
     </g>
    </g>
    <g id="xtick_59">
     <g id="line2d_59">
      <g>
       <use xlink:href="#m71d70abe40" x="531.374715" y="595.675" style="stroke: #000000; stroke-width: 0.8"/>
      </g>
     </g>
    </g>
    <g id="xtick_60">
     <g id="line2d_60">
      <g>
       <use xlink:href="#m71d70abe40" x="539.342738" y="595.675" style="stroke: #000000; stroke-width: 0.8"/>
      </g>
     </g>
    </g>
    <g id="xtick_61">
     <g id="line2d_61">
      <g>
       <use xlink:href="#m71d70abe40" x="547.310762" y="595.675" style="stroke: #000000; stroke-width: 0.8"/>
      </g>
     </g>
    </g>
    <g id="xtick_62">
     <g id="line2d_62">
      <g>
       <use xlink:href="#m71d70abe40" x="555.278786" y="595.675" style="stroke: #000000; stroke-width: 0.8"/>
      </g>
     </g>
    </g>
    <g id="xtick_63">
     <g id="line2d_63">
      <g>
       <use xlink:href="#m71d70abe40" x="563.24681" y="595.675" style="stroke: #000000; stroke-width: 0.8"/>
      </g>
     </g>
    </g>
    <g id="xtick_64">
     <g id="line2d_64">
      <g>
       <use xlink:href="#m71d70abe40" x="571.214834" y="595.675" style="stroke: #000000; stroke-width: 0.8"/>
      </g>
     </g>
    </g>
    <g id="xtick_65">
     <g id="line2d_65">
      <g>
       <use xlink:href="#m71d70abe40" x="579.182858" y="595.675" style="stroke: #000000; stroke-width: 0.8"/>
      </g>
     </g>
     <g id="text_6">
      <!-- 2020 -->
      <g transform="translate(583.045983 638.305) rotate(-90) scale(0.14 -0.14)">
       <use xlink:href="#DejaVuSans-32"/>
       <use xlink:href="#DejaVuSans-30" x="63.623047"/>
       <use xlink:href="#DejaVuSans-32" x="127.246094"/>
       <use xlink:href="#DejaVuSans-30" x="190.869141"/>
      </g>
     </g>
    </g>
    <g id="xtick_66">
     <g id="line2d_66">
      <g>
       <use xlink:href="#m71d70abe40" x="587.150881" y="595.675" style="stroke: #000000; stroke-width: 0.8"/>
      </g>
     </g>
    </g>
    <g id="xtick_67">
     <g id="line2d_67">
      <g>
       <use xlink:href="#m71d70abe40" x="595.118905" y="595.675" style="stroke: #000000; stroke-width: 0.8"/>
      </g>
     </g>
    </g>
    <g id="xtick_68">
     <g id="line2d_68">
      <g>
       <use xlink:href="#m71d70abe40" x="603.086929" y="595.675" style="stroke: #000000; stroke-width: 0.8"/>
      </g>
     </g>
    </g>
    <g id="xtick_69">
     <g id="line2d_69">
      <g>
       <use xlink:href="#m71d70abe40" x="611.054953" y="595.675" style="stroke: #000000; stroke-width: 0.8"/>
      </g>
     </g>
    </g>
    <g id="xtick_70">
     <g id="line2d_70">
      <g>
       <use xlink:href="#m71d70abe40" x="619.022977" y="595.675" style="stroke: #000000; stroke-width: 0.8"/>
      </g>
     </g>
    </g>
    <g id="xtick_71">
     <g id="line2d_71">
      <g>
       <use xlink:href="#m71d70abe40" x="626.991001" y="595.675" style="stroke: #000000; stroke-width: 0.8"/>
      </g>
     </g>
    </g>
    <g id="xtick_72">
     <g id="line2d_72">
      <g>
       <use xlink:href="#m71d70abe40" x="634.959025" y="595.675" style="stroke: #000000; stroke-width: 0.8"/>
      </g>
     </g>
    </g>
    <g id="xtick_73">
     <g id="line2d_73">
      <g>
       <use xlink:href="#m71d70abe40" x="642.927048" y="595.675" style="stroke: #000000; stroke-width: 0.8"/>
      </g>
     </g>
    </g>
    <g id="xtick_74">
     <g id="line2d_74">
      <g>
       <use xlink:href="#m71d70abe40" x="650.895072" y="595.675" style="stroke: #000000; stroke-width: 0.8"/>
      </g>
     </g>
    </g>
    <g id="xtick_75">
     <g id="line2d_75">
      <g>
       <use xlink:href="#m71d70abe40" x="658.863096" y="595.675" style="stroke: #000000; stroke-width: 0.8"/>
      </g>
     </g>
    </g>
    <g id="xtick_76">
     <g id="line2d_76">
      <g>
       <use xlink:href="#m71d70abe40" x="666.83112" y="595.675" style="stroke: #000000; stroke-width: 0.8"/>
      </g>
     </g>
    </g>
    <g id="xtick_77">
     <g id="line2d_77">
      <g>
       <use xlink:href="#m71d70abe40" x="674.799144" y="595.675" style="stroke: #000000; stroke-width: 0.8"/>
      </g>
     </g>
     <g id="text_7">
      <!-- 2021 -->
      <g transform="translate(678.662269 638.305) rotate(-90) scale(0.14 -0.14)">
       <use xlink:href="#DejaVuSans-32"/>
       <use xlink:href="#DejaVuSans-30" x="63.623047"/>
       <use xlink:href="#DejaVuSans-32" x="127.246094"/>
       <use xlink:href="#DejaVuSans-31" x="190.869141"/>
      </g>
     </g>
    </g>
    <g id="xtick_78">
     <g id="line2d_78">
      <g>
       <use xlink:href="#m71d70abe40" x="682.767168" y="595.675" style="stroke: #000000; stroke-width: 0.8"/>
      </g>
     </g>
    </g>
    <g id="xtick_79">
     <g id="line2d_79">
      <g>
       <use xlink:href="#m71d70abe40" x="690.735191" y="595.675" style="stroke: #000000; stroke-width: 0.8"/>
      </g>
     </g>
    </g>
    <g id="xtick_80">
     <g id="line2d_80">
      <g>
       <use xlink:href="#m71d70abe40" x="698.703215" y="595.675" style="stroke: #000000; stroke-width: 0.8"/>
      </g>
     </g>
    </g>
    <g id="xtick_81">
     <g id="line2d_81">
      <g>
       <use xlink:href="#m71d70abe40" x="706.671239" y="595.675" style="stroke: #000000; stroke-width: 0.8"/>
      </g>
     </g>
    </g>
    <g id="xtick_82">
     <g id="line2d_82">
      <g>
       <use xlink:href="#m71d70abe40" x="714.639263" y="595.675" style="stroke: #000000; stroke-width: 0.8"/>
      </g>
     </g>
    </g>
    <g id="xtick_83">
     <g id="line2d_83">
      <g>
       <use xlink:href="#m71d70abe40" x="722.607287" y="595.675" style="stroke: #000000; stroke-width: 0.8"/>
      </g>
     </g>
    </g>
    <g id="xtick_84">
     <g id="line2d_84">
      <g>
       <use xlink:href="#m71d70abe40" x="730.575311" y="595.675" style="stroke: #000000; stroke-width: 0.8"/>
      </g>
     </g>
    </g>
    <g id="xtick_85">
     <g id="line2d_85">
      <g>
       <use xlink:href="#m71d70abe40" x="738.543335" y="595.675" style="stroke: #000000; stroke-width: 0.8"/>
      </g>
     </g>
    </g>
    <g id="xtick_86">
     <g id="line2d_86">
      <g>
       <use xlink:href="#m71d70abe40" x="746.511358" y="595.675" style="stroke: #000000; stroke-width: 0.8"/>
      </g>
     </g>
    </g>
    <g id="xtick_87">
     <g id="line2d_87">
      <g>
       <use xlink:href="#m71d70abe40" x="754.479382" y="595.675" style="stroke: #000000; stroke-width: 0.8"/>
      </g>
     </g>
    </g>
    <g id="xtick_88">
     <g id="line2d_88">
      <g>
       <use xlink:href="#m71d70abe40" x="762.447406" y="595.675" style="stroke: #000000; stroke-width: 0.8"/>
      </g>
     </g>
    </g>
    <g id="xtick_89">
     <g id="line2d_89">
      <g>
       <use xlink:href="#m71d70abe40" x="770.41543" y="595.675" style="stroke: #000000; stroke-width: 0.8"/>
      </g>
     </g>
     <g id="text_8">
      <!-- 2022 -->
      <g transform="translate(774.278555 638.305) rotate(-90) scale(0.14 -0.14)">
       <use xlink:href="#DejaVuSans-32"/>
       <use xlink:href="#DejaVuSans-30" x="63.623047"/>
       <use xlink:href="#DejaVuSans-32" x="127.246094"/>
       <use xlink:href="#DejaVuSans-32" x="190.869141"/>
      </g>
     </g>
    </g>
    <g id="xtick_90">
     <g id="line2d_90">
      <g>
       <use xlink:href="#m71d70abe40" x="778.383454" y="595.675" style="stroke: #000000; stroke-width: 0.8"/>
      </g>
     </g>
    </g>
    <g id="xtick_91">
     <g id="line2d_91">
      <g>
       <use xlink:href="#m71d70abe40" x="786.351478" y="595.675" style="stroke: #000000; stroke-width: 0.8"/>
      </g>
     </g>
    </g>
    <g id="xtick_92">
     <g id="line2d_92">
      <g>
       <use xlink:href="#m71d70abe40" x="794.319501" y="595.675" style="stroke: #000000; stroke-width: 0.8"/>
      </g>
     </g>
    </g>
    <g id="xtick_93">
     <g id="line2d_93">
      <g>
       <use xlink:href="#m71d70abe40" x="802.287525" y="595.675" style="stroke: #000000; stroke-width: 0.8"/>
      </g>
     </g>
    </g>
    <g id="xtick_94">
     <g id="line2d_94">
      <g>
       <use xlink:href="#m71d70abe40" x="810.255549" y="595.675" style="stroke: #000000; stroke-width: 0.8"/>
      </g>
     </g>
    </g>
    <g id="xtick_95">
     <g id="line2d_95">
      <g>
       <use xlink:href="#m71d70abe40" x="818.223573" y="595.675" style="stroke: #000000; stroke-width: 0.8"/>
      </g>
     </g>
    </g>
    <g id="xtick_96">
     <g id="line2d_96">
      <g>
       <use xlink:href="#m71d70abe40" x="826.191597" y="595.675" style="stroke: #000000; stroke-width: 0.8"/>
      </g>
     </g>
    </g>
    <g id="xtick_97">
     <g id="line2d_97">
      <g>
       <use xlink:href="#m71d70abe40" x="834.159621" y="595.675" style="stroke: #000000; stroke-width: 0.8"/>
      </g>
     </g>
    </g>
    <g id="xtick_98">
     <g id="line2d_98">
      <g>
       <use xlink:href="#m71d70abe40" x="842.127644" y="595.675" style="stroke: #000000; stroke-width: 0.8"/>
      </g>
     </g>
    </g>
    <g id="xtick_99">
     <g id="line2d_99">
      <g>
       <use xlink:href="#m71d70abe40" x="850.095668" y="595.675" style="stroke: #000000; stroke-width: 0.8"/>
      </g>
     </g>
    </g>
   </g>
   <g id="matplotlib.axis_2">
    <g id="ytick_1">
     <g id="line2d_100">
      <defs>
       <path id="mda90fc92d6" d="M 0 0 
L -3.5 0 
" style="stroke: #000000; stroke-width: 0.8"/>
      </defs>
      <g>
       <use xlink:href="#mda90fc92d6" x="65.325" y="502.78231" style="stroke: #000000; stroke-width: 0.8"/>
      </g>
     </g>
     <g id="text_9">
      <!-- 500 -->
      <g transform="translate(31.6025 508.101217) scale(0.14 -0.14)">
       <use xlink:href="#DejaVuSans-35"/>
       <use xlink:href="#DejaVuSans-30" x="63.623047"/>
       <use xlink:href="#DejaVuSans-30" x="127.246094"/>
      </g>
     </g>
    </g>
    <g id="ytick_2">
     <g id="line2d_101">
      <g>
       <use xlink:href="#mda90fc92d6" x="65.325" y="381.823562" style="stroke: #000000; stroke-width: 0.8"/>
      </g>
     </g>
     <g id="text_10">
      <!-- 1000 -->
      <g transform="translate(22.695 387.142469) scale(0.14 -0.14)">
       <use xlink:href="#DejaVuSans-31"/>
       <use xlink:href="#DejaVuSans-30" x="63.623047"/>
       <use xlink:href="#DejaVuSans-30" x="127.246094"/>
       <use xlink:href="#DejaVuSans-30" x="190.869141"/>
      </g>
     </g>
    </g>
    <g id="ytick_3">
     <g id="line2d_102">
      <g>
       <use xlink:href="#mda90fc92d6" x="65.325" y="260.864814" style="stroke: #000000; stroke-width: 0.8"/>
      </g>
     </g>
     <g id="text_11">
      <!-- 1500 -->
      <g transform="translate(22.695 266.183721) scale(0.14 -0.14)">
       <use xlink:href="#DejaVuSans-31"/>
       <use xlink:href="#DejaVuSans-35" x="63.623047"/>
       <use xlink:href="#DejaVuSans-30" x="127.246094"/>
       <use xlink:href="#DejaVuSans-30" x="190.869141"/>
      </g>
     </g>
    </g>
    <g id="ytick_4">
     <g id="line2d_103">
      <g>
       <use xlink:href="#mda90fc92d6" x="65.325" y="139.906067" style="stroke: #000000; stroke-width: 0.8"/>
      </g>
     </g>
     <g id="text_12">
      <!-- 2000 -->
      <g transform="translate(22.695 145.224973) scale(0.14 -0.14)">
       <use xlink:href="#DejaVuSans-32"/>
       <use xlink:href="#DejaVuSans-30" x="63.623047"/>
       <use xlink:href="#DejaVuSans-30" x="127.246094"/>
       <use xlink:href="#DejaVuSans-30" x="190.869141"/>
      </g>
     </g>
    </g>
    <g id="ytick_5">
     <g id="line2d_104">
      <g>
       <use xlink:href="#mda90fc92d6" x="65.325" y="18.947319" style="stroke: #000000; stroke-width: 0.8"/>
      </g>
     </g>
     <g id="text_13">
      <!-- 2500 -->
      <g transform="translate(22.695 24.266225) scale(0.14 -0.14)">
       <use xlink:href="#DejaVuSans-32"/>
       <use xlink:href="#DejaVuSans-35" x="63.623047"/>
       <use xlink:href="#DejaVuSans-30" x="127.246094"/>
       <use xlink:href="#DejaVuSans-30" x="190.869141"/>
      </g>
     </g>
    </g>
    <g id="text_14">
     <!-- Petitions -->
     <g transform="translate(16.615312 324.278906) rotate(-90) scale(0.1 -0.1)">
      <defs>
       <path id="DejaVuSans-50" d="M 1259 4147 
L 1259 2394 
L 2053 2394 
Q 2494 2394 2734 2622 
Q 2975 2850 2975 3272 
Q 2975 3691 2734 3919 
Q 2494 4147 2053 4147 
L 1259 4147 
z
M 628 4666 
L 2053 4666 
Q 2838 4666 3239 4311 
Q 3641 3956 3641 3272 
Q 3641 2581 3239 2228 
Q 2838 1875 2053 1875 
L 1259 1875 
L 1259 0 
L 628 0 
L 628 4666 
z
" transform="scale(0.015625)"/>
       <path id="DejaVuSans-65" d="M 3597 1894 
L 3597 1613 
L 953 1613 
Q 991 1019 1311 708 
Q 1631 397 2203 397 
Q 2534 397 2845 478 
Q 3156 559 3463 722 
L 3463 178 
Q 3153 47 2828 -22 
Q 2503 -91 2169 -91 
Q 1331 -91 842 396 
Q 353 884 353 1716 
Q 353 2575 817 3079 
Q 1281 3584 2069 3584 
Q 2775 3584 3186 3129 
Q 3597 2675 3597 1894 
z
M 3022 2063 
Q 3016 2534 2758 2815 
Q 2500 3097 2075 3097 
Q 1594 3097 1305 2825 
Q 1016 2553 972 2059 
L 3022 2063 
z
" transform="scale(0.015625)"/>
       <path id="DejaVuSans-74" d="M 1172 4494 
L 1172 3500 
L 2356 3500 
L 2356 3053 
L 1172 3053 
L 1172 1153 
Q 1172 725 1289 603 
Q 1406 481 1766 481 
L 2356 481 
L 2356 0 
L 1766 0 
Q 1100 0 847 248 
Q 594 497 594 1153 
L 594 3053 
L 172 3053 
L 172 3500 
L 594 3500 
L 594 4494 
L 1172 4494 
z
" transform="scale(0.015625)"/>
       <path id="DejaVuSans-69" d="M 603 3500 
L 1178 3500 
L 1178 0 
L 603 0 
L 603 3500 
z
M 603 4863 
L 1178 4863 
L 1178 4134 
L 603 4134 
L 603 4863 
z
" transform="scale(0.015625)"/>
       <path id="DejaVuSans-6f" d="M 1959 3097 
Q 1497 3097 1228 2736 
Q 959 2375 959 1747 
Q 959 1119 1226 758 
Q 1494 397 1959 397 
Q 2419 397 2687 759 
Q 2956 1122 2956 1747 
Q 2956 2369 2687 2733 
Q 2419 3097 1959 3097 
z
M 1959 3584 
Q 2709 3584 3137 3096 
Q 3566 2609 3566 1747 
Q 3566 888 3137 398 
Q 2709 -91 1959 -91 
Q 1206 -91 779 398 
Q 353 888 353 1747 
Q 353 2609 779 3096 
Q 1206 3584 1959 3584 
z
" transform="scale(0.015625)"/>
       <path id="DejaVuSans-6e" d="M 3513 2113 
L 3513 0 
L 2938 0 
L 2938 2094 
Q 2938 2591 2744 2837 
Q 2550 3084 2163 3084 
Q 1697 3084 1428 2787 
Q 1159 2491 1159 1978 
L 1159 0 
L 581 0 
L 581 3500 
L 1159 3500 
L 1159 2956 
Q 1366 3272 1645 3428 
Q 1925 3584 2291 3584 
Q 2894 3584 3203 3211 
Q 3513 2838 3513 2113 
z
" transform="scale(0.015625)"/>
       <path id="DejaVuSans-73" d="M 2834 3397 
L 2834 2853 
Q 2591 2978 2328 3040 
Q 2066 3103 1784 3103 
Q 1356 3103 1142 2972 
Q 928 2841 928 2578 
Q 928 2378 1081 2264 
Q 1234 2150 1697 2047 
L 1894 2003 
Q 2506 1872 2764 1633 
Q 3022 1394 3022 966 
Q 3022 478 2636 193 
Q 2250 -91 1575 -91 
Q 1294 -91 989 -36 
Q 684 19 347 128 
L 347 722 
Q 666 556 975 473 
Q 1284 391 1588 391 
Q 1994 391 2212 530 
Q 2431 669 2431 922 
Q 2431 1156 2273 1281 
Q 2116 1406 1581 1522 
L 1381 1569 
Q 847 1681 609 1914 
Q 372 2147 372 2553 
Q 372 3047 722 3315 
Q 1072 3584 1716 3584 
Q 2034 3584 2315 3537 
Q 2597 3491 2834 3397 
z
" transform="scale(0.015625)"/>
      </defs>
      <use xlink:href="#DejaVuSans-50"/>
      <use xlink:href="#DejaVuSans-65" x="56.677734"/>
      <use xlink:href="#DejaVuSans-74" x="118.201172"/>
      <use xlink:href="#DejaVuSans-69" x="157.410156"/>
      <use xlink:href="#DejaVuSans-74" x="185.193359"/>
      <use xlink:href="#DejaVuSans-69" x="224.402344"/>
      <use xlink:href="#DejaVuSans-6f" x="252.185547"/>
      <use xlink:href="#DejaVuSans-6e" x="313.367188"/>
      <use xlink:href="#DejaVuSans-73" x="376.746094"/>
     </g>
    </g>
   </g>
   <g id="line2d_105">
    <path d="M 69.229332 592.775619 
L 77.197356 576.325229 
L 85.165379 563.987437 
L 93.133403 559.149087 
L 101.101427 555.036489 
L 109.069451 545.35979 
L 117.037475 538.828017 
L 125.005499 532.296245 
L 132.973522 526.00639 
L 140.941546 524.554885 
L 148.90957 524.312967 
L 156.877594 521.16804 
L 164.845618 511.975175 
L 172.813642 506.65299 
L 180.781665 502.056558 
L 188.749689 497.702043 
L 196.717713 495.04095 
L 204.685737 486.573838 
L 212.653761 480.042066 
L 220.621785 475.445633 
L 228.589809 472.058788 
L 236.557832 471.816871 
L 244.525856 471.574953 
L 252.49388 465.527016 
L 260.461904 452.947306 
L 268.429928 445.205946 
L 276.397952 440.851431 
L 284.365975 439.399926 
L 292.333999 435.771164 
L 300.302023 429.723227 
L 308.270047 427.304052 
L 316.238071 421.256114 
L 324.206095 415.933929 
L 332.174119 415.450094 
L 340.142142 414.482424 
L 348.110166 411.821332 
L 356.07819 399.241622 
L 364.046214 387.8715 
L 372.014238 384.00082 
L 379.982262 381.823562 
L 387.950285 378.436717 
L 395.918309 374.807955 
L 403.886333 369.969605 
L 411.854357 364.405503 
L 419.822381 362.953998 
L 427.790405 362.228245 
L 435.758428 361.018658 
L 443.726452 356.422225 
L 451.694476 341.181423 
L 459.6625 329.327466 
L 467.630524 319.650766 
L 475.598548 315.538169 
L 483.566572 279.976297 
L 491.534595 262.074402 
L 499.502619 252.881537 
L 507.470643 247.559352 
L 515.438667 246.107847 
L 523.406691 245.140177 
L 531.374715 244.172507 
L 539.342738 236.914982 
L 547.310762 223.851438 
L 555.278786 211.99748 
L 563.24681 205.22379 
L 571.214834 201.595028 
L 579.182858 196.030926 
L 587.150881 186.354226 
L 595.118905 175.226021 
L 603.086929 172.564928 
L 611.054953 170.387671 
L 619.022977 169.661919 
L 626.991001 162.162476 
L 634.959025 153.453446 
L 642.927048 143.292911 
L 650.895072 132.648542 
L 658.863096 126.116769 
L 666.83112 124.665264 
L 674.799144 119.584997 
L 682.767168 110.150215 
L 690.735191 99.98968 
L 698.703215 86.200382 
L 706.671239 83.055455 
L 714.639263 82.57162 
L 722.607287 82.57162 
L 730.575311 82.57162 
L 738.543335 73.86259 
L 746.511358 68.540405 
L 754.479382 61.28288 
L 762.447406 57.654118 
L 770.41543 51.848098 
L 778.383454 45.558243 
L 786.351478 43.139068 
L 794.319501 36.849213 
L 802.287525 36.123461 
L 810.255549 36.123461 
L 818.223573 36.123461 
L 826.191597 28.382101 
L 834.159621 20.882659 
L 842.127644 14.108969 
L 850.095668 12.899381 
" clip-path="url(#p8e61ec3f97)" style="fill: none; stroke: #1f77b4; stroke-width: 1.5; stroke-linecap: square"/>
    <defs>
     <path id="m487c28f950" d="M 0 3 
C 0.795609 3 1.55874 2.683901 2.12132 2.12132 
C 2.683901 1.55874 3 0.795609 3 0 
C 3 -0.795609 2.683901 -1.55874 2.12132 -2.12132 
C 1.55874 -2.683901 0.795609 -3 0 -3 
C -0.795609 -3 -1.55874 -2.683901 -2.12132 -2.12132 
C -2.683901 -1.55874 -3 -0.795609 -3 0 
C -3 0.795609 -2.683901 1.55874 -2.12132 2.12132 
C -1.55874 2.683901 -0.795609 3 0 3 
z
" style="stroke: #1f77b4"/>
    </defs>
    <g clip-path="url(#p8e61ec3f97)">
     <use xlink:href="#m487c28f950" x="69.229332" y="592.775619" style="fill: #1f77b4; stroke: #1f77b4"/>
     <use xlink:href="#m487c28f950" x="77.197356" y="576.325229" style="fill: #1f77b4; stroke: #1f77b4"/>
     <use xlink:href="#m487c28f950" x="85.165379" y="563.987437" style="fill: #1f77b4; stroke: #1f77b4"/>
     <use xlink:href="#m487c28f950" x="93.133403" y="559.149087" style="fill: #1f77b4; stroke: #1f77b4"/>
     <use xlink:href="#m487c28f950" x="101.101427" y="555.036489" style="fill: #1f77b4; stroke: #1f77b4"/>
     <use xlink:href="#m487c28f950" x="109.069451" y="545.35979" style="fill: #1f77b4; stroke: #1f77b4"/>
     <use xlink:href="#m487c28f950" x="117.037475" y="538.828017" style="fill: #1f77b4; stroke: #1f77b4"/>
     <use xlink:href="#m487c28f950" x="125.005499" y="532.296245" style="fill: #1f77b4; stroke: #1f77b4"/>
     <use xlink:href="#m487c28f950" x="132.973522" y="526.00639" style="fill: #1f77b4; stroke: #1f77b4"/>
     <use xlink:href="#m487c28f950" x="140.941546" y="524.554885" style="fill: #1f77b4; stroke: #1f77b4"/>
     <use xlink:href="#m487c28f950" x="148.90957" y="524.312967" style="fill: #1f77b4; stroke: #1f77b4"/>
     <use xlink:href="#m487c28f950" x="156.877594" y="521.16804" style="fill: #1f77b4; stroke: #1f77b4"/>
     <use xlink:href="#m487c28f950" x="164.845618" y="511.975175" style="fill: #1f77b4; stroke: #1f77b4"/>
     <use xlink:href="#m487c28f950" x="172.813642" y="506.65299" style="fill: #1f77b4; stroke: #1f77b4"/>
     <use xlink:href="#m487c28f950" x="180.781665" y="502.056558" style="fill: #1f77b4; stroke: #1f77b4"/>
     <use xlink:href="#m487c28f950" x="188.749689" y="497.702043" style="fill: #1f77b4; stroke: #1f77b4"/>
     <use xlink:href="#m487c28f950" x="196.717713" y="495.04095" style="fill: #1f77b4; stroke: #1f77b4"/>
     <use xlink:href="#m487c28f950" x="204.685737" y="486.573838" style="fill: #1f77b4; stroke: #1f77b4"/>
     <use xlink:href="#m487c28f950" x="212.653761" y="480.042066" style="fill: #1f77b4; stroke: #1f77b4"/>
     <use xlink:href="#m487c28f950" x="220.621785" y="475.445633" style="fill: #1f77b4; stroke: #1f77b4"/>
     <use xlink:href="#m487c28f950" x="228.589809" y="472.058788" style="fill: #1f77b4; stroke: #1f77b4"/>
     <use xlink:href="#m487c28f950" x="236.557832" y="471.816871" style="fill: #1f77b4; stroke: #1f77b4"/>
     <use xlink:href="#m487c28f950" x="244.525856" y="471.574953" style="fill: #1f77b4; stroke: #1f77b4"/>
     <use xlink:href="#m487c28f950" x="252.49388" y="465.527016" style="fill: #1f77b4; stroke: #1f77b4"/>
     <use xlink:href="#m487c28f950" x="260.461904" y="452.947306" style="fill: #1f77b4; stroke: #1f77b4"/>
     <use xlink:href="#m487c28f950" x="268.429928" y="445.205946" style="fill: #1f77b4; stroke: #1f77b4"/>
     <use xlink:href="#m487c28f950" x="276.397952" y="440.851431" style="fill: #1f77b4; stroke: #1f77b4"/>
     <use xlink:href="#m487c28f950" x="284.365975" y="439.399926" style="fill: #1f77b4; stroke: #1f77b4"/>
     <use xlink:href="#m487c28f950" x="292.333999" y="435.771164" style="fill: #1f77b4; stroke: #1f77b4"/>
     <use xlink:href="#m487c28f950" x="300.302023" y="429.723227" style="fill: #1f77b4; stroke: #1f77b4"/>
     <use xlink:href="#m487c28f950" x="308.270047" y="427.304052" style="fill: #1f77b4; stroke: #1f77b4"/>
     <use xlink:href="#m487c28f950" x="316.238071" y="421.256114" style="fill: #1f77b4; stroke: #1f77b4"/>
     <use xlink:href="#m487c28f950" x="324.206095" y="415.933929" style="fill: #1f77b4; stroke: #1f77b4"/>
     <use xlink:href="#m487c28f950" x="332.174119" y="415.450094" style="fill: #1f77b4; stroke: #1f77b4"/>
     <use xlink:href="#m487c28f950" x="340.142142" y="414.482424" style="fill: #1f77b4; stroke: #1f77b4"/>
     <use xlink:href="#m487c28f950" x="348.110166" y="411.821332" style="fill: #1f77b4; stroke: #1f77b4"/>
     <use xlink:href="#m487c28f950" x="356.07819" y="399.241622" style="fill: #1f77b4; stroke: #1f77b4"/>
     <use xlink:href="#m487c28f950" x="364.046214" y="387.8715" style="fill: #1f77b4; stroke: #1f77b4"/>
     <use xlink:href="#m487c28f950" x="372.014238" y="384.00082" style="fill: #1f77b4; stroke: #1f77b4"/>
     <use xlink:href="#m487c28f950" x="379.982262" y="381.823562" style="fill: #1f77b4; stroke: #1f77b4"/>
     <use xlink:href="#m487c28f950" x="387.950285" y="378.436717" style="fill: #1f77b4; stroke: #1f77b4"/>
     <use xlink:href="#m487c28f950" x="395.918309" y="374.807955" style="fill: #1f77b4; stroke: #1f77b4"/>
     <use xlink:href="#m487c28f950" x="403.886333" y="369.969605" style="fill: #1f77b4; stroke: #1f77b4"/>
     <use xlink:href="#m487c28f950" x="411.854357" y="364.405503" style="fill: #1f77b4; stroke: #1f77b4"/>
     <use xlink:href="#m487c28f950" x="419.822381" y="362.953998" style="fill: #1f77b4; stroke: #1f77b4"/>
     <use xlink:href="#m487c28f950" x="427.790405" y="362.228245" style="fill: #1f77b4; stroke: #1f77b4"/>
     <use xlink:href="#m487c28f950" x="435.758428" y="361.018658" style="fill: #1f77b4; stroke: #1f77b4"/>
     <use xlink:href="#m487c28f950" x="443.726452" y="356.422225" style="fill: #1f77b4; stroke: #1f77b4"/>
     <use xlink:href="#m487c28f950" x="451.694476" y="341.181423" style="fill: #1f77b4; stroke: #1f77b4"/>
     <use xlink:href="#m487c28f950" x="459.6625" y="329.327466" style="fill: #1f77b4; stroke: #1f77b4"/>
     <use xlink:href="#m487c28f950" x="467.630524" y="319.650766" style="fill: #1f77b4; stroke: #1f77b4"/>
     <use xlink:href="#m487c28f950" x="475.598548" y="315.538169" style="fill: #1f77b4; stroke: #1f77b4"/>
     <use xlink:href="#m487c28f950" x="483.566572" y="279.976297" style="fill: #1f77b4; stroke: #1f77b4"/>
     <use xlink:href="#m487c28f950" x="491.534595" y="262.074402" style="fill: #1f77b4; stroke: #1f77b4"/>
     <use xlink:href="#m487c28f950" x="499.502619" y="252.881537" style="fill: #1f77b4; stroke: #1f77b4"/>
     <use xlink:href="#m487c28f950" x="507.470643" y="247.559352" style="fill: #1f77b4; stroke: #1f77b4"/>
     <use xlink:href="#m487c28f950" x="515.438667" y="246.107847" style="fill: #1f77b4; stroke: #1f77b4"/>
     <use xlink:href="#m487c28f950" x="523.406691" y="245.140177" style="fill: #1f77b4; stroke: #1f77b4"/>
     <use xlink:href="#m487c28f950" x="531.374715" y="244.172507" style="fill: #1f77b4; stroke: #1f77b4"/>
     <use xlink:href="#m487c28f950" x="539.342738" y="236.914982" style="fill: #1f77b4; stroke: #1f77b4"/>
     <use xlink:href="#m487c28f950" x="547.310762" y="223.851438" style="fill: #1f77b4; stroke: #1f77b4"/>
     <use xlink:href="#m487c28f950" x="555.278786" y="211.99748" style="fill: #1f77b4; stroke: #1f77b4"/>
     <use xlink:href="#m487c28f950" x="563.24681" y="205.22379" style="fill: #1f77b4; stroke: #1f77b4"/>
     <use xlink:href="#m487c28f950" x="571.214834" y="201.595028" style="fill: #1f77b4; stroke: #1f77b4"/>
     <use xlink:href="#m487c28f950" x="579.182858" y="196.030926" style="fill: #1f77b4; stroke: #1f77b4"/>
     <use xlink:href="#m487c28f950" x="587.150881" y="186.354226" style="fill: #1f77b4; stroke: #1f77b4"/>
     <use xlink:href="#m487c28f950" x="595.118905" y="175.226021" style="fill: #1f77b4; stroke: #1f77b4"/>
     <use xlink:href="#m487c28f950" x="603.086929" y="172.564928" style="fill: #1f77b4; stroke: #1f77b4"/>
     <use xlink:href="#m487c28f950" x="611.054953" y="170.387671" style="fill: #1f77b4; stroke: #1f77b4"/>
     <use xlink:href="#m487c28f950" x="619.022977" y="169.661919" style="fill: #1f77b4; stroke: #1f77b4"/>
     <use xlink:href="#m487c28f950" x="626.991001" y="162.162476" style="fill: #1f77b4; stroke: #1f77b4"/>
     <use xlink:href="#m487c28f950" x="634.959025" y="153.453446" style="fill: #1f77b4; stroke: #1f77b4"/>
     <use xlink:href="#m487c28f950" x="642.927048" y="143.292911" style="fill: #1f77b4; stroke: #1f77b4"/>
     <use xlink:href="#m487c28f950" x="650.895072" y="132.648542" style="fill: #1f77b4; stroke: #1f77b4"/>
     <use xlink:href="#m487c28f950" x="658.863096" y="126.116769" style="fill: #1f77b4; stroke: #1f77b4"/>
     <use xlink:href="#m487c28f950" x="666.83112" y="124.665264" style="fill: #1f77b4; stroke: #1f77b4"/>
     <use xlink:href="#m487c28f950" x="674.799144" y="119.584997" style="fill: #1f77b4; stroke: #1f77b4"/>
     <use xlink:href="#m487c28f950" x="682.767168" y="110.150215" style="fill: #1f77b4; stroke: #1f77b4"/>
     <use xlink:href="#m487c28f950" x="690.735191" y="99.98968" style="fill: #1f77b4; stroke: #1f77b4"/>
     <use xlink:href="#m487c28f950" x="698.703215" y="86.200382" style="fill: #1f77b4; stroke: #1f77b4"/>
     <use xlink:href="#m487c28f950" x="706.671239" y="83.055455" style="fill: #1f77b4; stroke: #1f77b4"/>
     <use xlink:href="#m487c28f950" x="714.639263" y="82.57162" style="fill: #1f77b4; stroke: #1f77b4"/>
     <use xlink:href="#m487c28f950" x="722.607287" y="82.57162" style="fill: #1f77b4; stroke: #1f77b4"/>
     <use xlink:href="#m487c28f950" x="730.575311" y="82.57162" style="fill: #1f77b4; stroke: #1f77b4"/>
     <use xlink:href="#m487c28f950" x="738.543335" y="73.86259" style="fill: #1f77b4; stroke: #1f77b4"/>
     <use xlink:href="#m487c28f950" x="746.511358" y="68.540405" style="fill: #1f77b4; stroke: #1f77b4"/>
     <use xlink:href="#m487c28f950" x="754.479382" y="61.28288" style="fill: #1f77b4; stroke: #1f77b4"/>
     <use xlink:href="#m487c28f950" x="762.447406" y="57.654118" style="fill: #1f77b4; stroke: #1f77b4"/>
     <use xlink:href="#m487c28f950" x="770.41543" y="51.848098" style="fill: #1f77b4; stroke: #1f77b4"/>
     <use xlink:href="#m487c28f950" x="778.383454" y="45.558243" style="fill: #1f77b4; stroke: #1f77b4"/>
     <use xlink:href="#m487c28f950" x="786.351478" y="43.139068" style="fill: #1f77b4; stroke: #1f77b4"/>
     <use xlink:href="#m487c28f950" x="794.319501" y="36.849213" style="fill: #1f77b4; stroke: #1f77b4"/>
     <use xlink:href="#m487c28f950" x="802.287525" y="36.123461" style="fill: #1f77b4; stroke: #1f77b4"/>
     <use xlink:href="#m487c28f950" x="810.255549" y="36.123461" style="fill: #1f77b4; stroke: #1f77b4"/>
     <use xlink:href="#m487c28f950" x="818.223573" y="36.123461" style="fill: #1f77b4; stroke: #1f77b4"/>
     <use xlink:href="#m487c28f950" x="826.191597" y="28.382101" style="fill: #1f77b4; stroke: #1f77b4"/>
     <use xlink:href="#m487c28f950" x="834.159621" y="20.882659" style="fill: #1f77b4; stroke: #1f77b4"/>
     <use xlink:href="#m487c28f950" x="842.127644" y="14.108969" style="fill: #1f77b4; stroke: #1f77b4"/>
     <use xlink:href="#m487c28f950" x="850.095668" y="12.899381" style="fill: #1f77b4; stroke: #1f77b4"/>
    </g>
   </g>
   <g id="patch_3">
    <path d="M 65.325 595.675 
L 65.325 10 
" style="fill: none; stroke: #000000; stroke-width: 0.8; stroke-linejoin: miter; stroke-linecap: square"/>
   </g>
   <g id="patch_4">
    <path d="M 854 595.675 
L 854 10 
" style="fill: none; stroke: #000000; stroke-width: 0.8; stroke-linejoin: miter; stroke-linecap: square"/>
   </g>
   <g id="patch_5">
    <path d="M 65.325 595.675 
L 854 595.675 
" style="fill: none; stroke: #000000; stroke-width: 0.8; stroke-linejoin: miter; stroke-linecap: square"/>
   </g>
   <g id="patch_6">
    <path d="M 65.325 10 
L 854 10 
" style="fill: none; stroke: #000000; stroke-width: 0.8; stroke-linejoin: miter; stroke-linecap: square"/>
   </g>
  </g>
 </g>
 <defs>
  <clipPath id="p8e61ec3f97">
   <rect x="65.325" y="10" width="788.675" height="585.675"/>
  </clipPath>
 </defs>
</svg>
