<?xml version="1.0" encoding="utf-8" standalone="no"?>
<!DOCTYPE svg PUBLIC "-//W3C//DTD SVG 1.1//EN"
  "http://www.w3.org/Graphics/SVG/1.1/DTD/svg11.dtd">
<svg xmlns:xlink="http://www.w3.org/1999/xlink" width="864pt" height="648pt" viewBox="0 0 864 648" xmlns="http://www.w3.org/2000/svg" version="1.1">
 <metadata>
  <rdf:RDF xmlns:dc="http://purl.org/dc/elements/1.1/" xmlns:cc="http://creativecommons.org/ns#" xmlns:rdf="http://www.w3.org/1999/02/22-rdf-syntax-ns#">
   <cc:Work>
    <dc:type rdf:resource="http://purl.org/dc/dcmitype/StillImage"/>
    <dc:date>2022-11-29T04:57:45.140882</dc:date>
    <dc:format>image/svg+xml</dc:format>
    <dc:creator>
     <cc:Agent>
      <dc:title>Matplotlib v3.6.1, https://matplotlib.org/</dc:title>
     </cc:Agent>
    </dc:creator>
   </cc:Work>
  </rdf:RDF>
 </metadata>
 <defs>
  <style type="text/css">*{stroke-linejoin: round; stroke-linecap: butt}</style>
 </defs>
 <g id="figure_1">
  <g id="patch_1">
   <path d="M 0 648 
L 864 648 
L 864 0 
L 0 0 
z
" style="fill: #ffffff"/>
  </g>
  <g id="axes_1">
   <g id="patch_2">
    <path d="M 82.875 595.675 
L 854 595.675 
L 854 10 
L 82.875 10 
z
" style="fill: #ffffff"/>
   </g>
   <g id="matplotlib.axis_1">
    <g id="xtick_1">
     <g id="line2d_1">
      <defs>
       <path id="ma1ba099bea" d="M 0 0 
L 0 3.5 
" style="stroke: #000000; stroke-width: 0.8"/>
      </defs>
      <g>
       <use xlink:href="#ma1ba099bea" x="86.69245" y="595.675" style="stroke: #000000; stroke-width: 0.8"/>
      </g>
     </g>
    </g>
    <g id="xtick_2">
     <g id="line2d_2">
      <g>
       <use xlink:href="#ma1ba099bea" x="94.483166" y="595.675" style="stroke: #000000; stroke-width: 0.8"/>
      </g>
     </g>
    </g>
    <g id="xtick_3">
     <g id="line2d_3">
      <g>
       <use xlink:href="#ma1ba099bea" x="102.273881" y="595.675" style="stroke: #000000; stroke-width: 0.8"/>
      </g>
     </g>
    </g>
    <g id="xtick_4">
     <g id="line2d_4">
      <g>
       <use xlink:href="#ma1ba099bea" x="110.064596" y="595.675" style="stroke: #000000; stroke-width: 0.8"/>
      </g>
     </g>
    </g>
    <g id="xtick_5">
     <g id="line2d_5">
      <g>
       <use xlink:href="#ma1ba099bea" x="117.855312" y="595.675" style="stroke: #000000; stroke-width: 0.8"/>
      </g>
     </g>
     <g id="text_1">
      <!-- 2015 -->
      <g transform="translate(121.718437 638.305) rotate(-90) scale(0.14 -0.14)">
       <defs>
        <path id="DejaVuSans-32" d="M 1228 531 
L 3431 531 
L 3431 0 
L 469 0 
L 469 531 
Q 828 903 1448 1529 
Q 2069 2156 2228 2338 
Q 2531 2678 2651 2914 
Q 2772 3150 2772 3378 
Q 2772 3750 2511 3984 
Q 2250 4219 1831 4219 
Q 1534 4219 1204 4116 
Q 875 4013 500 3803 
L 500 4441 
Q 881 4594 1212 4672 
Q 1544 4750 1819 4750 
Q 2544 4750 2975 4387 
Q 3406 4025 3406 3419 
Q 3406 3131 3298 2873 
Q 3191 2616 2906 2266 
Q 2828 2175 2409 1742 
Q 1991 1309 1228 531 
z
" transform="scale(0.015625)"/>
        <path id="DejaVuSans-30" d="M 2034 4250 
Q 1547 4250 1301 3770 
Q 1056 3291 1056 2328 
Q 1056 1369 1301 889 
Q 1547 409 2034 409 
Q 2525 409 2770 889 
Q 3016 1369 3016 2328 
Q 3016 3291 2770 3770 
Q 2525 4250 2034 4250 
z
M 2034 4750 
Q 2819 4750 3233 4129 
Q 3647 3509 3647 2328 
Q 3647 1150 3233 529 
Q 2819 -91 2034 -91 
Q 1250 -91 836 529 
Q 422 1150 422 2328 
Q 422 3509 836 4129 
Q 1250 4750 2034 4750 
z
" transform="scale(0.015625)"/>
        <path id="DejaVuSans-31" d="M 794 531 
L 1825 531 
L 1825 4091 
L 703 3866 
L 703 4441 
L 1819 4666 
L 2450 4666 
L 2450 531 
L 3481 531 
L 3481 0 
L 794 0 
L 794 531 
z
" transform="scale(0.015625)"/>
        <path id="DejaVuSans-35" d="M 691 4666 
L 3169 4666 
L 3169 4134 
L 1269 4134 
L 1269 2991 
Q 1406 3038 1543 3061 
Q 1681 3084 1819 3084 
Q 2600 3084 3056 2656 
Q 3513 2228 3513 1497 
Q 3513 744 3044 326 
Q 2575 -91 1722 -91 
Q 1428 -91 1123 -41 
Q 819 9 494 109 
L 494 744 
Q 775 591 1075 516 
Q 1375 441 1709 441 
Q 2250 441 2565 725 
Q 2881 1009 2881 1497 
Q 2881 1984 2565 2268 
Q 2250 2553 1709 2553 
Q 1456 2553 1204 2497 
Q 953 2441 691 2322 
L 691 4666 
z
" transform="scale(0.015625)"/>
       </defs>
       <use xlink:href="#DejaVuSans-32"/>
       <use xlink:href="#DejaVuSans-30" x="63.623047"/>
       <use xlink:href="#DejaVuSans-31" x="127.246094"/>
       <use xlink:href="#DejaVuSans-35" x="190.869141"/>
      </g>
     </g>
    </g>
    <g id="xtick_6">
     <g id="line2d_6">
      <g>
       <use xlink:href="#ma1ba099bea" x="125.646027" y="595.675" style="stroke: #000000; stroke-width: 0.8"/>
      </g>
     </g>
    </g>
    <g id="xtick_7">
     <g id="line2d_7">
      <g>
       <use xlink:href="#ma1ba099bea" x="133.436742" y="595.675" style="stroke: #000000; stroke-width: 0.8"/>
      </g>
     </g>
    </g>
    <g id="xtick_8">
     <g id="line2d_8">
      <g>
       <use xlink:href="#ma1ba099bea" x="141.227458" y="595.675" style="stroke: #000000; stroke-width: 0.8"/>
      </g>
     </g>
    </g>
    <g id="xtick_9">
     <g id="line2d_9">
      <g>
       <use xlink:href="#ma1ba099bea" x="149.018173" y="595.675" style="stroke: #000000; stroke-width: 0.8"/>
      </g>
     </g>
    </g>
    <g id="xtick_10">
     <g id="line2d_10">
      <g>
       <use xlink:href="#ma1ba099bea" x="156.808888" y="595.675" style="stroke: #000000; stroke-width: 0.8"/>
      </g>
     </g>
    </g>
    <g id="xtick_11">
     <g id="line2d_11">
      <g>
       <use xlink:href="#ma1ba099bea" x="164.599603" y="595.675" style="stroke: #000000; stroke-width: 0.8"/>
      </g>
     </g>
    </g>
    <g id="xtick_12">
     <g id="line2d_12">
      <g>
       <use xlink:href="#ma1ba099bea" x="172.390319" y="595.675" style="stroke: #000000; stroke-width: 0.8"/>
      </g>
     </g>
    </g>
    <g id="xtick_13">
     <g id="line2d_13">
      <g>
       <use xlink:href="#ma1ba099bea" x="180.181034" y="595.675" style="stroke: #000000; stroke-width: 0.8"/>
      </g>
     </g>
    </g>
    <g id="xtick_14">
     <g id="line2d_14">
      <g>
       <use xlink:href="#ma1ba099bea" x="187.971749" y="595.675" style="stroke: #000000; stroke-width: 0.8"/>
      </g>
     </g>
    </g>
    <g id="xtick_15">
     <g id="line2d_15">
      <g>
       <use xlink:href="#ma1ba099bea" x="195.762465" y="595.675" style="stroke: #000000; stroke-width: 0.8"/>
      </g>
     </g>
    </g>
    <g id="xtick_16">
     <g id="line2d_16">
      <g>
       <use xlink:href="#ma1ba099bea" x="203.55318" y="595.675" style="stroke: #000000; stroke-width: 0.8"/>
      </g>
     </g>
    </g>
    <g id="xtick_17">
     <g id="line2d_17">
      <g>
       <use xlink:href="#ma1ba099bea" x="211.343895" y="595.675" style="stroke: #000000; stroke-width: 0.8"/>
      </g>
     </g>
     <g id="text_2">
      <!-- 2016 -->
      <g transform="translate(215.20702 638.305) rotate(-90) scale(0.14 -0.14)">
       <defs>
        <path id="DejaVuSans-36" d="M 2113 2584 
Q 1688 2584 1439 2293 
Q 1191 2003 1191 1497 
Q 1191 994 1439 701 
Q 1688 409 2113 409 
Q 2538 409 2786 701 
Q 3034 994 3034 1497 
Q 3034 2003 2786 2293 
Q 2538 2584 2113 2584 
z
M 3366 4563 
L 3366 3988 
Q 3128 4100 2886 4159 
Q 2644 4219 2406 4219 
Q 1781 4219 1451 3797 
Q 1122 3375 1075 2522 
Q 1259 2794 1537 2939 
Q 1816 3084 2150 3084 
Q 2853 3084 3261 2657 
Q 3669 2231 3669 1497 
Q 3669 778 3244 343 
Q 2819 -91 2113 -91 
Q 1303 -91 875 529 
Q 447 1150 447 2328 
Q 447 3434 972 4092 
Q 1497 4750 2381 4750 
Q 2619 4750 2861 4703 
Q 3103 4656 3366 4563 
z
" transform="scale(0.015625)"/>
       </defs>
       <use xlink:href="#DejaVuSans-32"/>
       <use xlink:href="#DejaVuSans-30" x="63.623047"/>
       <use xlink:href="#DejaVuSans-31" x="127.246094"/>
       <use xlink:href="#DejaVuSans-36" x="190.869141"/>
      </g>
     </g>
    </g>
    <g id="xtick_18">
     <g id="line2d_18">
      <g>
       <use xlink:href="#ma1ba099bea" x="219.134611" y="595.675" style="stroke: #000000; stroke-width: 0.8"/>
      </g>
     </g>
    </g>
    <g id="xtick_19">
     <g id="line2d_19">
      <g>
       <use xlink:href="#ma1ba099bea" x="226.925326" y="595.675" style="stroke: #000000; stroke-width: 0.8"/>
      </g>
     </g>
    </g>
    <g id="xtick_20">
     <g id="line2d_20">
      <g>
       <use xlink:href="#ma1ba099bea" x="234.716041" y="595.675" style="stroke: #000000; stroke-width: 0.8"/>
      </g>
     </g>
    </g>
    <g id="xtick_21">
     <g id="line2d_21">
      <g>
       <use xlink:href="#ma1ba099bea" x="242.506756" y="595.675" style="stroke: #000000; stroke-width: 0.8"/>
      </g>
     </g>
    </g>
    <g id="xtick_22">
     <g id="line2d_22">
      <g>
       <use xlink:href="#ma1ba099bea" x="250.297472" y="595.675" style="stroke: #000000; stroke-width: 0.8"/>
      </g>
     </g>
    </g>
    <g id="xtick_23">
     <g id="line2d_23">
      <g>
       <use xlink:href="#ma1ba099bea" x="258.088187" y="595.675" style="stroke: #000000; stroke-width: 0.8"/>
      </g>
     </g>
    </g>
    <g id="xtick_24">
     <g id="line2d_24">
      <g>
       <use xlink:href="#ma1ba099bea" x="265.878902" y="595.675" style="stroke: #000000; stroke-width: 0.8"/>
      </g>
     </g>
    </g>
    <g id="xtick_25">
     <g id="line2d_25">
      <g>
       <use xlink:href="#ma1ba099bea" x="273.669618" y="595.675" style="stroke: #000000; stroke-width: 0.8"/>
      </g>
     </g>
    </g>
    <g id="xtick_26">
     <g id="line2d_26">
      <g>
       <use xlink:href="#ma1ba099bea" x="281.460333" y="595.675" style="stroke: #000000; stroke-width: 0.8"/>
      </g>
     </g>
    </g>
    <g id="xtick_27">
     <g id="line2d_27">
      <g>
       <use xlink:href="#ma1ba099bea" x="289.251048" y="595.675" style="stroke: #000000; stroke-width: 0.8"/>
      </g>
     </g>
    </g>
    <g id="xtick_28">
     <g id="line2d_28">
      <g>
       <use xlink:href="#ma1ba099bea" x="297.041763" y="595.675" style="stroke: #000000; stroke-width: 0.8"/>
      </g>
     </g>
    </g>
    <g id="xtick_29">
     <g id="line2d_29">
      <g>
       <use xlink:href="#ma1ba099bea" x="304.832479" y="595.675" style="stroke: #000000; stroke-width: 0.8"/>
      </g>
     </g>
     <g id="text_3">
      <!-- 2017 -->
      <g transform="translate(308.695604 638.305) rotate(-90) scale(0.14 -0.14)">
       <defs>
        <path id="DejaVuSans-37" d="M 525 4666 
L 3525 4666 
L 3525 4397 
L 1831 0 
L 1172 0 
L 2766 4134 
L 525 4134 
L 525 4666 
z
" transform="scale(0.015625)"/>
       </defs>
       <use xlink:href="#DejaVuSans-32"/>
       <use xlink:href="#DejaVuSans-30" x="63.623047"/>
       <use xlink:href="#DejaVuSans-31" x="127.246094"/>
       <use xlink:href="#DejaVuSans-37" x="190.869141"/>
      </g>
     </g>
    </g>
    <g id="xtick_30">
     <g id="line2d_30">
      <g>
       <use xlink:href="#ma1ba099bea" x="312.623194" y="595.675" style="stroke: #000000; stroke-width: 0.8"/>
      </g>
     </g>
    </g>
    <g id="xtick_31">
     <g id="line2d_31">
      <g>
       <use xlink:href="#ma1ba099bea" x="320.413909" y="595.675" style="stroke: #000000; stroke-width: 0.8"/>
      </g>
     </g>
    </g>
    <g id="xtick_32">
     <g id="line2d_32">
      <g>
       <use xlink:href="#ma1ba099bea" x="328.204625" y="595.675" style="stroke: #000000; stroke-width: 0.8"/>
      </g>
     </g>
    </g>
    <g id="xtick_33">
     <g id="line2d_33">
      <g>
       <use xlink:href="#ma1ba099bea" x="335.99534" y="595.675" style="stroke: #000000; stroke-width: 0.8"/>
      </g>
     </g>
    </g>
    <g id="xtick_34">
     <g id="line2d_34">
      <g>
       <use xlink:href="#ma1ba099bea" x="343.786055" y="595.675" style="stroke: #000000; stroke-width: 0.8"/>
      </g>
     </g>
    </g>
    <g id="xtick_35">
     <g id="line2d_35">
      <g>
       <use xlink:href="#ma1ba099bea" x="351.576771" y="595.675" style="stroke: #000000; stroke-width: 0.8"/>
      </g>
     </g>
    </g>
    <g id="xtick_36">
     <g id="line2d_36">
      <g>
       <use xlink:href="#ma1ba099bea" x="359.367486" y="595.675" style="stroke: #000000; stroke-width: 0.8"/>
      </g>
     </g>
    </g>
    <g id="xtick_37">
     <g id="line2d_37">
      <g>
       <use xlink:href="#ma1ba099bea" x="367.158201" y="595.675" style="stroke: #000000; stroke-width: 0.8"/>
      </g>
     </g>
    </g>
    <g id="xtick_38">
     <g id="line2d_38">
      <g>
       <use xlink:href="#ma1ba099bea" x="374.948916" y="595.675" style="stroke: #000000; stroke-width: 0.8"/>
      </g>
     </g>
    </g>
    <g id="xtick_39">
     <g id="line2d_39">
      <g>
       <use xlink:href="#ma1ba099bea" x="382.739632" y="595.675" style="stroke: #000000; stroke-width: 0.8"/>
      </g>
     </g>
    </g>
    <g id="xtick_40">
     <g id="line2d_40">
      <g>
       <use xlink:href="#ma1ba099bea" x="390.530347" y="595.675" style="stroke: #000000; stroke-width: 0.8"/>
      </g>
     </g>
    </g>
    <g id="xtick_41">
     <g id="line2d_41">
      <g>
       <use xlink:href="#ma1ba099bea" x="398.321062" y="595.675" style="stroke: #000000; stroke-width: 0.8"/>
      </g>
     </g>
     <g id="text_4">
      <!-- 2018 -->
      <g transform="translate(402.184187 638.305) rotate(-90) scale(0.14 -0.14)">
       <defs>
        <path id="DejaVuSans-38" d="M 2034 2216 
Q 1584 2216 1326 1975 
Q 1069 1734 1069 1313 
Q 1069 891 1326 650 
Q 1584 409 2034 409 
Q 2484 409 2743 651 
Q 3003 894 3003 1313 
Q 3003 1734 2745 1975 
Q 2488 2216 2034 2216 
z
M 1403 2484 
Q 997 2584 770 2862 
Q 544 3141 544 3541 
Q 544 4100 942 4425 
Q 1341 4750 2034 4750 
Q 2731 4750 3128 4425 
Q 3525 4100 3525 3541 
Q 3525 3141 3298 2862 
Q 3072 2584 2669 2484 
Q 3125 2378 3379 2068 
Q 3634 1759 3634 1313 
Q 3634 634 3220 271 
Q 2806 -91 2034 -91 
Q 1263 -91 848 271 
Q 434 634 434 1313 
Q 434 1759 690 2068 
Q 947 2378 1403 2484 
z
M 1172 3481 
Q 1172 3119 1398 2916 
Q 1625 2713 2034 2713 
Q 2441 2713 2670 2916 
Q 2900 3119 2900 3481 
Q 2900 3844 2670 4047 
Q 2441 4250 2034 4250 
Q 1625 4250 1398 4047 
Q 1172 3844 1172 3481 
z
" transform="scale(0.015625)"/>
       </defs>
       <use xlink:href="#DejaVuSans-32"/>
       <use xlink:href="#DejaVuSans-30" x="63.623047"/>
       <use xlink:href="#DejaVuSans-31" x="127.246094"/>
       <use xlink:href="#DejaVuSans-38" x="190.869141"/>
      </g>
     </g>
    </g>
    <g id="xtick_42">
     <g id="line2d_42">
      <g>
       <use xlink:href="#ma1ba099bea" x="406.111778" y="595.675" style="stroke: #000000; stroke-width: 0.8"/>
      </g>
     </g>
    </g>
    <g id="xtick_43">
     <g id="line2d_43">
      <g>
       <use xlink:href="#ma1ba099bea" x="413.902493" y="595.675" style="stroke: #000000; stroke-width: 0.8"/>
      </g>
     </g>
    </g>
    <g id="xtick_44">
     <g id="line2d_44">
      <g>
       <use xlink:href="#ma1ba099bea" x="421.693208" y="595.675" style="stroke: #000000; stroke-width: 0.8"/>
      </g>
     </g>
    </g>
    <g id="xtick_45">
     <g id="line2d_45">
      <g>
       <use xlink:href="#ma1ba099bea" x="429.483924" y="595.675" style="stroke: #000000; stroke-width: 0.8"/>
      </g>
     </g>
    </g>
    <g id="xtick_46">
     <g id="line2d_46">
      <g>
       <use xlink:href="#ma1ba099bea" x="437.274639" y="595.675" style="stroke: #000000; stroke-width: 0.8"/>
      </g>
     </g>
    </g>
    <g id="xtick_47">
     <g id="line2d_47">
      <g>
       <use xlink:href="#ma1ba099bea" x="445.065354" y="595.675" style="stroke: #000000; stroke-width: 0.8"/>
      </g>
     </g>
    </g>
    <g id="xtick_48">
     <g id="line2d_48">
      <g>
       <use xlink:href="#ma1ba099bea" x="452.856069" y="595.675" style="stroke: #000000; stroke-width: 0.8"/>
      </g>
     </g>
    </g>
    <g id="xtick_49">
     <g id="line2d_49">
      <g>
       <use xlink:href="#ma1ba099bea" x="460.646785" y="595.675" style="stroke: #000000; stroke-width: 0.8"/>
      </g>
     </g>
    </g>
    <g id="xtick_50">
     <g id="line2d_50">
      <g>
       <use xlink:href="#ma1ba099bea" x="468.4375" y="595.675" style="stroke: #000000; stroke-width: 0.8"/>
      </g>
     </g>
    </g>
    <g id="xtick_51">
     <g id="line2d_51">
      <g>
       <use xlink:href="#ma1ba099bea" x="476.228215" y="595.675" style="stroke: #000000; stroke-width: 0.8"/>
      </g>
     </g>
    </g>
    <g id="xtick_52">
     <g id="line2d_52">
      <g>
       <use xlink:href="#ma1ba099bea" x="484.018931" y="595.675" style="stroke: #000000; stroke-width: 0.8"/>
      </g>
     </g>
    </g>
    <g id="xtick_53">
     <g id="line2d_53">
      <g>
       <use xlink:href="#ma1ba099bea" x="491.809646" y="595.675" style="stroke: #000000; stroke-width: 0.8"/>
      </g>
     </g>
     <g id="text_5">
      <!-- 2019 -->
      <g transform="translate(495.672771 638.305) rotate(-90) scale(0.14 -0.14)">
       <defs>
        <path id="DejaVuSans-39" d="M 703 97 
L 703 672 
Q 941 559 1184 500 
Q 1428 441 1663 441 
Q 2288 441 2617 861 
Q 2947 1281 2994 2138 
Q 2813 1869 2534 1725 
Q 2256 1581 1919 1581 
Q 1219 1581 811 2004 
Q 403 2428 403 3163 
Q 403 3881 828 4315 
Q 1253 4750 1959 4750 
Q 2769 4750 3195 4129 
Q 3622 3509 3622 2328 
Q 3622 1225 3098 567 
Q 2575 -91 1691 -91 
Q 1453 -91 1209 -44 
Q 966 3 703 97 
z
M 1959 2075 
Q 2384 2075 2632 2365 
Q 2881 2656 2881 3163 
Q 2881 3666 2632 3958 
Q 2384 4250 1959 4250 
Q 1534 4250 1286 3958 
Q 1038 3666 1038 3163 
Q 1038 2656 1286 2365 
Q 1534 2075 1959 2075 
z
" transform="scale(0.015625)"/>
       </defs>
       <use xlink:href="#DejaVuSans-32"/>
       <use xlink:href="#DejaVuSans-30" x="63.623047"/>
       <use xlink:href="#DejaVuSans-31" x="127.246094"/>
       <use xlink:href="#DejaVuSans-39" x="190.869141"/>
      </g>
     </g>
    </g>
    <g id="xtick_54">
     <g id="line2d_54">
      <g>
       <use xlink:href="#ma1ba099bea" x="499.600361" y="595.675" style="stroke: #000000; stroke-width: 0.8"/>
      </g>
     </g>
    </g>
    <g id="xtick_55">
     <g id="line2d_55">
      <g>
       <use xlink:href="#ma1ba099bea" x="507.391076" y="595.675" style="stroke: #000000; stroke-width: 0.8"/>
      </g>
     </g>
    </g>
    <g id="xtick_56">
     <g id="line2d_56">
      <g>
       <use xlink:href="#ma1ba099bea" x="515.181792" y="595.675" style="stroke: #000000; stroke-width: 0.8"/>
      </g>
     </g>
    </g>
    <g id="xtick_57">
     <g id="line2d_57">
      <g>
       <use xlink:href="#ma1ba099bea" x="522.972507" y="595.675" style="stroke: #000000; stroke-width: 0.8"/>
      </g>
     </g>
    </g>
    <g id="xtick_58">
     <g id="line2d_58">
      <g>
       <use xlink:href="#ma1ba099bea" x="530.763222" y="595.675" style="stroke: #000000; stroke-width: 0.8"/>
      </g>
     </g>
    </g>
    <g id="xtick_59">
     <g id="line2d_59">
      <g>
       <use xlink:href="#ma1ba099bea" x="538.553938" y="595.675" style="stroke: #000000; stroke-width: 0.8"/>
      </g>
     </g>
    </g>
    <g id="xtick_60">
     <g id="line2d_60">
      <g>
       <use xlink:href="#ma1ba099bea" x="546.344653" y="595.675" style="stroke: #000000; stroke-width: 0.8"/>
      </g>
     </g>
    </g>
    <g id="xtick_61">
     <g id="line2d_61">
      <g>
       <use xlink:href="#ma1ba099bea" x="554.135368" y="595.675" style="stroke: #000000; stroke-width: 0.8"/>
      </g>
     </g>
    </g>
    <g id="xtick_62">
     <g id="line2d_62">
      <g>
       <use xlink:href="#ma1ba099bea" x="561.926084" y="595.675" style="stroke: #000000; stroke-width: 0.8"/>
      </g>
     </g>
    </g>
    <g id="xtick_63">
     <g id="line2d_63">
      <g>
       <use xlink:href="#ma1ba099bea" x="569.716799" y="595.675" style="stroke: #000000; stroke-width: 0.8"/>
      </g>
     </g>
    </g>
    <g id="xtick_64">
     <g id="line2d_64">
      <g>
       <use xlink:href="#ma1ba099bea" x="577.507514" y="595.675" style="stroke: #000000; stroke-width: 0.8"/>
      </g>
     </g>
    </g>
    <g id="xtick_65">
     <g id="line2d_65">
      <g>
       <use xlink:href="#ma1ba099bea" x="585.298229" y="595.675" style="stroke: #000000; stroke-width: 0.8"/>
      </g>
     </g>
     <g id="text_6">
      <!-- 2020 -->
      <g transform="translate(589.161354 638.305) rotate(-90) scale(0.14 -0.14)">
       <use xlink:href="#DejaVuSans-32"/>
       <use xlink:href="#DejaVuSans-30" x="63.623047"/>
       <use xlink:href="#DejaVuSans-32" x="127.246094"/>
       <use xlink:href="#DejaVuSans-30" x="190.869141"/>
      </g>
     </g>
    </g>
    <g id="xtick_66">
     <g id="line2d_66">
      <g>
       <use xlink:href="#ma1ba099bea" x="593.088945" y="595.675" style="stroke: #000000; stroke-width: 0.8"/>
      </g>
     </g>
    </g>
    <g id="xtick_67">
     <g id="line2d_67">
      <g>
       <use xlink:href="#ma1ba099bea" x="600.87966" y="595.675" style="stroke: #000000; stroke-width: 0.8"/>
      </g>
     </g>
    </g>
    <g id="xtick_68">
     <g id="line2d_68">
      <g>
       <use xlink:href="#ma1ba099bea" x="608.670375" y="595.675" style="stroke: #000000; stroke-width: 0.8"/>
      </g>
     </g>
    </g>
    <g id="xtick_69">
     <g id="line2d_69">
      <g>
       <use xlink:href="#ma1ba099bea" x="616.461091" y="595.675" style="stroke: #000000; stroke-width: 0.8"/>
      </g>
     </g>
    </g>
    <g id="xtick_70">
     <g id="line2d_70">
      <g>
       <use xlink:href="#ma1ba099bea" x="624.251806" y="595.675" style="stroke: #000000; stroke-width: 0.8"/>
      </g>
     </g>
    </g>
    <g id="xtick_71">
     <g id="line2d_71">
      <g>
       <use xlink:href="#ma1ba099bea" x="632.042521" y="595.675" style="stroke: #000000; stroke-width: 0.8"/>
      </g>
     </g>
    </g>
    <g id="xtick_72">
     <g id="line2d_72">
      <g>
       <use xlink:href="#ma1ba099bea" x="639.833237" y="595.675" style="stroke: #000000; stroke-width: 0.8"/>
      </g>
     </g>
    </g>
    <g id="xtick_73">
     <g id="line2d_73">
      <g>
       <use xlink:href="#ma1ba099bea" x="647.623952" y="595.675" style="stroke: #000000; stroke-width: 0.8"/>
      </g>
     </g>
    </g>
    <g id="xtick_74">
     <g id="line2d_74">
      <g>
       <use xlink:href="#ma1ba099bea" x="655.414667" y="595.675" style="stroke: #000000; stroke-width: 0.8"/>
      </g>
     </g>
    </g>
    <g id="xtick_75">
     <g id="line2d_75">
      <g>
       <use xlink:href="#ma1ba099bea" x="663.205382" y="595.675" style="stroke: #000000; stroke-width: 0.8"/>
      </g>
     </g>
    </g>
    <g id="xtick_76">
     <g id="line2d_76">
      <g>
       <use xlink:href="#ma1ba099bea" x="670.996098" y="595.675" style="stroke: #000000; stroke-width: 0.8"/>
      </g>
     </g>
    </g>
    <g id="xtick_77">
     <g id="line2d_77">
      <g>
       <use xlink:href="#ma1ba099bea" x="678.786813" y="595.675" style="stroke: #000000; stroke-width: 0.8"/>
      </g>
     </g>
     <g id="text_7">
      <!-- 2021 -->
      <g transform="translate(682.649938 638.305) rotate(-90) scale(0.14 -0.14)">
       <use xlink:href="#DejaVuSans-32"/>
       <use xlink:href="#DejaVuSans-30" x="63.623047"/>
       <use xlink:href="#DejaVuSans-32" x="127.246094"/>
       <use xlink:href="#DejaVuSans-31" x="190.869141"/>
      </g>
     </g>
    </g>
    <g id="xtick_78">
     <g id="line2d_78">
      <g>
       <use xlink:href="#ma1ba099bea" x="686.577528" y="595.675" style="stroke: #000000; stroke-width: 0.8"/>
      </g>
     </g>
    </g>
    <g id="xtick_79">
     <g id="line2d_79">
      <g>
       <use xlink:href="#ma1ba099bea" x="694.368244" y="595.675" style="stroke: #000000; stroke-width: 0.8"/>
      </g>
     </g>
    </g>
    <g id="xtick_80">
     <g id="line2d_80">
      <g>
       <use xlink:href="#ma1ba099bea" x="702.158959" y="595.675" style="stroke: #000000; stroke-width: 0.8"/>
      </g>
     </g>
    </g>
    <g id="xtick_81">
     <g id="line2d_81">
      <g>
       <use xlink:href="#ma1ba099bea" x="709.949674" y="595.675" style="stroke: #000000; stroke-width: 0.8"/>
      </g>
     </g>
    </g>
    <g id="xtick_82">
     <g id="line2d_82">
      <g>
       <use xlink:href="#ma1ba099bea" x="717.740389" y="595.675" style="stroke: #000000; stroke-width: 0.8"/>
      </g>
     </g>
    </g>
    <g id="xtick_83">
     <g id="line2d_83">
      <g>
       <use xlink:href="#ma1ba099bea" x="725.531105" y="595.675" style="stroke: #000000; stroke-width: 0.8"/>
      </g>
     </g>
    </g>
    <g id="xtick_84">
     <g id="line2d_84">
      <g>
       <use xlink:href="#ma1ba099bea" x="733.32182" y="595.675" style="stroke: #000000; stroke-width: 0.8"/>
      </g>
     </g>
    </g>
    <g id="xtick_85">
     <g id="line2d_85">
      <g>
       <use xlink:href="#ma1ba099bea" x="741.112535" y="595.675" style="stroke: #000000; stroke-width: 0.8"/>
      </g>
     </g>
    </g>
    <g id="xtick_86">
     <g id="line2d_86">
      <g>
       <use xlink:href="#ma1ba099bea" x="748.903251" y="595.675" style="stroke: #000000; stroke-width: 0.8"/>
      </g>
     </g>
    </g>
    <g id="xtick_87">
     <g id="line2d_87">
      <g>
       <use xlink:href="#ma1ba099bea" x="756.693966" y="595.675" style="stroke: #000000; stroke-width: 0.8"/>
      </g>
     </g>
    </g>
    <g id="xtick_88">
     <g id="line2d_88">
      <g>
       <use xlink:href="#ma1ba099bea" x="764.484681" y="595.675" style="stroke: #000000; stroke-width: 0.8"/>
      </g>
     </g>
    </g>
    <g id="xtick_89">
     <g id="line2d_89">
      <g>
       <use xlink:href="#ma1ba099bea" x="772.275397" y="595.675" style="stroke: #000000; stroke-width: 0.8"/>
      </g>
     </g>
     <g id="text_8">
      <!-- 2022 -->
      <g transform="translate(776.138522 638.305) rotate(-90) scale(0.14 -0.14)">
       <use xlink:href="#DejaVuSans-32"/>
       <use xlink:href="#DejaVuSans-30" x="63.623047"/>
       <use xlink:href="#DejaVuSans-32" x="127.246094"/>
       <use xlink:href="#DejaVuSans-32" x="190.869141"/>
      </g>
     </g>
    </g>
    <g id="xtick_90">
     <g id="line2d_90">
      <g>
       <use xlink:href="#ma1ba099bea" x="780.066112" y="595.675" style="stroke: #000000; stroke-width: 0.8"/>
      </g>
     </g>
    </g>
    <g id="xtick_91">
     <g id="line2d_91">
      <g>
       <use xlink:href="#ma1ba099bea" x="787.856827" y="595.675" style="stroke: #000000; stroke-width: 0.8"/>
      </g>
     </g>
    </g>
    <g id="xtick_92">
     <g id="line2d_92">
      <g>
       <use xlink:href="#ma1ba099bea" x="795.647542" y="595.675" style="stroke: #000000; stroke-width: 0.8"/>
      </g>
     </g>
    </g>
    <g id="xtick_93">
     <g id="line2d_93">
      <g>
       <use xlink:href="#ma1ba099bea" x="803.438258" y="595.675" style="stroke: #000000; stroke-width: 0.8"/>
      </g>
     </g>
    </g>
    <g id="xtick_94">
     <g id="line2d_94">
      <g>
       <use xlink:href="#ma1ba099bea" x="811.228973" y="595.675" style="stroke: #000000; stroke-width: 0.8"/>
      </g>
     </g>
    </g>
    <g id="xtick_95">
     <g id="line2d_95">
      <g>
       <use xlink:href="#ma1ba099bea" x="819.019688" y="595.675" style="stroke: #000000; stroke-width: 0.8"/>
      </g>
     </g>
    </g>
    <g id="xtick_96">
     <g id="line2d_96">
      <g>
       <use xlink:href="#ma1ba099bea" x="826.810404" y="595.675" style="stroke: #000000; stroke-width: 0.8"/>
      </g>
     </g>
    </g>
    <g id="xtick_97">
     <g id="line2d_97">
      <g>
       <use xlink:href="#ma1ba099bea" x="834.601119" y="595.675" style="stroke: #000000; stroke-width: 0.8"/>
      </g>
     </g>
    </g>
    <g id="xtick_98">
     <g id="line2d_98">
      <g>
       <use xlink:href="#ma1ba099bea" x="842.391834" y="595.675" style="stroke: #000000; stroke-width: 0.8"/>
      </g>
     </g>
    </g>
    <g id="xtick_99">
     <g id="line2d_99">
      <g>
       <use xlink:href="#ma1ba099bea" x="850.18255" y="595.675" style="stroke: #000000; stroke-width: 0.8"/>
      </g>
     </g>
    </g>
   </g>
   <g id="matplotlib.axis_2">
    <g id="ytick_1">
     <g id="line2d_100">
      <defs>
       <path id="m384cc4566c" d="M 0 0 
L -3.5 0 
" style="stroke: #000000; stroke-width: 0.8"/>
      </defs>
      <g>
       <use xlink:href="#m384cc4566c" x="82.875" y="509.892417" style="stroke: #000000; stroke-width: 0.8"/>
      </g>
     </g>
     <g id="text_9">
      <!-- 50000 -->
      <g transform="translate(31.3375 515.211323) scale(0.14 -0.14)">
       <use xlink:href="#DejaVuSans-35"/>
       <use xlink:href="#DejaVuSans-30" x="63.623047"/>
       <use xlink:href="#DejaVuSans-30" x="127.246094"/>
       <use xlink:href="#DejaVuSans-30" x="190.869141"/>
       <use xlink:href="#DejaVuSans-30" x="254.492188"/>
      </g>
     </g>
    </g>
    <g id="ytick_2">
     <g id="line2d_101">
      <g>
       <use xlink:href="#m384cc4566c" x="82.875" y="391.219982" style="stroke: #000000; stroke-width: 0.8"/>
      </g>
     </g>
     <g id="text_10">
      <!-- 100000 -->
      <g transform="translate(22.43 396.538889) scale(0.14 -0.14)">
       <use xlink:href="#DejaVuSans-31"/>
       <use xlink:href="#DejaVuSans-30" x="63.623047"/>
       <use xlink:href="#DejaVuSans-30" x="127.246094"/>
       <use xlink:href="#DejaVuSans-30" x="190.869141"/>
       <use xlink:href="#DejaVuSans-30" x="254.492188"/>
       <use xlink:href="#DejaVuSans-30" x="318.115234"/>
      </g>
     </g>
    </g>
    <g id="ytick_3">
     <g id="line2d_102">
      <g>
       <use xlink:href="#m384cc4566c" x="82.875" y="272.547548" style="stroke: #000000; stroke-width: 0.8"/>
      </g>
     </g>
     <g id="text_11">
      <!-- 150000 -->
      <g transform="translate(22.43 277.866454) scale(0.14 -0.14)">
       <use xlink:href="#DejaVuSans-31"/>
       <use xlink:href="#DejaVuSans-35" x="63.623047"/>
       <use xlink:href="#DejaVuSans-30" x="127.246094"/>
       <use xlink:href="#DejaVuSans-30" x="190.869141"/>
       <use xlink:href="#DejaVuSans-30" x="254.492188"/>
       <use xlink:href="#DejaVuSans-30" x="318.115234"/>
      </g>
     </g>
    </g>
    <g id="ytick_4">
     <g id="line2d_103">
      <g>
       <use xlink:href="#m384cc4566c" x="82.875" y="153.875113" style="stroke: #000000; stroke-width: 0.8"/>
      </g>
     </g>
     <g id="text_12">
      <!-- 200000 -->
      <g transform="translate(22.43 159.194019) scale(0.14 -0.14)">
       <use xlink:href="#DejaVuSans-32"/>
       <use xlink:href="#DejaVuSans-30" x="63.623047"/>
       <use xlink:href="#DejaVuSans-30" x="127.246094"/>
       <use xlink:href="#DejaVuSans-30" x="190.869141"/>
       <use xlink:href="#DejaVuSans-30" x="254.492188"/>
       <use xlink:href="#DejaVuSans-30" x="318.115234"/>
      </g>
     </g>
    </g>
    <g id="ytick_5">
     <g id="line2d_104">
      <g>
       <use xlink:href="#m384cc4566c" x="82.875" y="35.202679" style="stroke: #000000; stroke-width: 0.8"/>
      </g>
     </g>
     <g id="text_13">
      <!-- 250000 -->
      <g transform="translate(22.43 40.521585) scale(0.14 -0.14)">
       <use xlink:href="#DejaVuSans-32"/>
       <use xlink:href="#DejaVuSans-35" x="63.623047"/>
       <use xlink:href="#DejaVuSans-30" x="127.246094"/>
       <use xlink:href="#DejaVuSans-30" x="190.869141"/>
       <use xlink:href="#DejaVuSans-30" x="254.492188"/>
       <use xlink:href="#DejaVuSans-30" x="318.115234"/>
      </g>
     </g>
    </g>
    <g id="text_14">
     <!-- Petitions -->
     <g transform="translate(16.350312 324.278906) rotate(-90) scale(0.1 -0.1)">
      <defs>
       <path id="DejaVuSans-50" d="M 1259 4147 
L 1259 2394 
L 2053 2394 
Q 2494 2394 2734 2622 
Q 2975 2850 2975 3272 
Q 2975 3691 2734 3919 
Q 2494 4147 2053 4147 
L 1259 4147 
z
M 628 4666 
L 2053 4666 
Q 2838 4666 3239 4311 
Q 3641 3956 3641 3272 
Q 3641 2581 3239 2228 
Q 2838 1875 2053 1875 
L 1259 1875 
L 1259 0 
L 628 0 
L 628 4666 
z
" transform="scale(0.015625)"/>
       <path id="DejaVuSans-65" d="M 3597 1894 
L 3597 1613 
L 953 1613 
Q 991 1019 1311 708 
Q 1631 397 2203 397 
Q 2534 397 2845 478 
Q 3156 559 3463 722 
L 3463 178 
Q 3153 47 2828 -22 
Q 2503 -91 2169 -91 
Q 1331 -91 842 396 
Q 353 884 353 1716 
Q 353 2575 817 3079 
Q 1281 3584 2069 3584 
Q 2775 3584 3186 3129 
Q 3597 2675 3597 1894 
z
M 3022 2063 
Q 3016 2534 2758 2815 
Q 2500 3097 2075 3097 
Q 1594 3097 1305 2825 
Q 1016 2553 972 2059 
L 3022 2063 
z
" transform="scale(0.015625)"/>
       <path id="DejaVuSans-74" d="M 1172 4494 
L 1172 3500 
L 2356 3500 
L 2356 3053 
L 1172 3053 
L 1172 1153 
Q 1172 725 1289 603 
Q 1406 481 1766 481 
L 2356 481 
L 2356 0 
L 1766 0 
Q 1100 0 847 248 
Q 594 497 594 1153 
L 594 3053 
L 172 3053 
L 172 3500 
L 594 3500 
L 594 4494 
L 1172 4494 
z
" transform="scale(0.015625)"/>
       <path id="DejaVuSans-69" d="M 603 3500 
L 1178 3500 
L 1178 0 
L 603 0 
L 603 3500 
z
M 603 4863 
L 1178 4863 
L 1178 4134 
L 603 4134 
L 603 4863 
z
" transform="scale(0.015625)"/>
       <path id="DejaVuSans-6f" d="M 1959 3097 
Q 1497 3097 1228 2736 
Q 959 2375 959 1747 
Q 959 1119 1226 758 
Q 1494 397 1959 397 
Q 2419 397 2687 759 
Q 2956 1122 2956 1747 
Q 2956 2369 2687 2733 
Q 2419 3097 1959 3097 
z
M 1959 3584 
Q 2709 3584 3137 3096 
Q 3566 2609 3566 1747 
Q 3566 888 3137 398 
Q 2709 -91 1959 -91 
Q 1206 -91 779 398 
Q 353 888 353 1747 
Q 353 2609 779 3096 
Q 1206 3584 1959 3584 
z
" transform="scale(0.015625)"/>
       <path id="DejaVuSans-6e" d="M 3513 2113 
L 3513 0 
L 2938 0 
L 2938 2094 
Q 2938 2591 2744 2837 
Q 2550 3084 2163 3084 
Q 1697 3084 1428 2787 
Q 1159 2491 1159 1978 
L 1159 0 
L 581 0 
L 581 3500 
L 1159 3500 
L 1159 2956 
Q 1366 3272 1645 3428 
Q 1925 3584 2291 3584 
Q 2894 3584 3203 3211 
Q 3513 2838 3513 2113 
z
" transform="scale(0.015625)"/>
       <path id="DejaVuSans-73" d="M 2834 3397 
L 2834 2853 
Q 2591 2978 2328 3040 
Q 2066 3103 1784 3103 
Q 1356 3103 1142 2972 
Q 928 2841 928 2578 
Q 928 2378 1081 2264 
Q 1234 2150 1697 2047 
L 1894 2003 
Q 2506 1872 2764 1633 
Q 3022 1394 3022 966 
Q 3022 478 2636 193 
Q 2250 -91 1575 -91 
Q 1294 -91 989 -36 
Q 684 19 347 128 
L 347 722 
Q 666 556 975 473 
Q 1284 391 1588 391 
Q 1994 391 2212 530 
Q 2431 669 2431 922 
Q 2431 1156 2273 1281 
Q 2116 1406 1581 1522 
L 1381 1569 
Q 847 1681 609 1914 
Q 372 2147 372 2553 
Q 372 3047 722 3315 
Q 1072 3584 1716 3584 
Q 2034 3584 2315 3537 
Q 2597 3491 2834 3397 
z
" transform="scale(0.015625)"/>
      </defs>
      <use xlink:href="#DejaVuSans-50"/>
      <use xlink:href="#DejaVuSans-65" x="56.677734"/>
      <use xlink:href="#DejaVuSans-74" x="118.201172"/>
      <use xlink:href="#DejaVuSans-69" x="157.410156"/>
      <use xlink:href="#DejaVuSans-74" x="185.193359"/>
      <use xlink:href="#DejaVuSans-69" x="224.402344"/>
      <use xlink:href="#DejaVuSans-6f" x="252.185547"/>
      <use xlink:href="#DejaVuSans-6e" x="313.367188"/>
      <use xlink:href="#DejaVuSans-73" x="376.746094"/>
     </g>
    </g>
   </g>
   <g id="line2d_105">
    <path d="M 86.69245 592.775619 
L 94.483166 575.0958 
L 102.273881 561.821101 
L 110.064596 557.005374 
L 117.855312 554.437302 
L 125.646027 544.623092 
L 133.436742 538.694217 
L 141.227458 532.874521 
L 149.018173 528.101515 
L 156.808888 527.586477 
L 164.599603 527.576983 
L 172.390319 524.391815 
L 180.181034 513.863197 
L 187.971749 510.056185 
L 195.762465 504.751527 
L 203.55318 500.764133 
L 211.343895 499.370919 
L 219.134611 491.486322 
L 226.925326 487.957004 
L 234.716041 484.510757 
L 242.506756 483.231468 
L 250.297472 483.219601 
L 258.088187 483.062953 
L 265.878902 475.536747 
L 273.669618 462.56585 
L 281.460333 458.217692 
L 289.251048 454.432041 
L 297.041763 453.019839 
L 304.832479 449.177226 
L 312.623194 445.719111 
L 320.413909 444.017349 
L 328.204625 438.658101 
L 335.99534 434.115321 
L 343.786055 432.819418 
L 351.576771 431.42383 
L 359.367486 429.221269 
L 367.158201 419.255158 
L 374.948916 410.803308 
L 382.739632 409.1324 
L 390.530347 408.541411 
L 398.321062 406.564328 
L 406.111778 403.671094 
L 413.902493 400.606972 
L 421.693208 397.580825 
L 429.483924 396.420208 
L 437.274639 395.755643 
L 445.065354 394.80389 
L 452.856069 388.63055 
L 460.646785 372.915946 
L 468.4375 348.806454 
L 476.228215 338.43923 
L 484.018931 336.500123 
L 491.809646 291.912516 
L 499.600361 280.370435 
L 507.391076 275.633031 
L 515.181792 273.01037 
L 522.972507 272.564162 
L 530.763222 272.222385 
L 538.553938 271.873488 
L 546.344653 267.857613 
L 554.135368 257.675518 
L 561.926084 247.377124 
L 569.716799 235.896753 
L 577.507514 233.841347 
L 585.298229 226.640303 
L 593.088945 215.610887 
L 600.87966 194.593999 
L 608.670375 191.513263 
L 616.461091 190.855817 
L 624.251806 189.396146 
L 632.042521 175.452135 
L 639.833237 166.660881 
L 647.623952 148.247666 
L 655.414667 136.707959 
L 663.205382 131.65726 
L 670.996098 130.451548 
L 678.786813 123.587534 
L 686.577528 115.838224 
L 694.368244 102.663211 
L 702.158959 87.000823 
L 709.949674 85.412986 
L 717.740389 85.351276 
L 725.531105 85.351276 
L 733.32182 85.351276 
L 741.112535 77.96273 
L 748.903251 72.627218 
L 756.693966 64.251317 
L 764.484681 59.165017 
L 772.275397 50.17914 
L 780.066112 47.867401 
L 787.856827 45.539048 
L 795.647542 39.928215 
L 803.438258 39.864132 
L 811.228973 39.864132 
L 819.019688 39.864132 
L 826.810404 28.267461 
L 834.601119 19.229369 
L 842.391834 14.46111 
L 850.18255 12.899381 
" clip-path="url(#pedb492f21f)" style="fill: none; stroke: #1f77b4; stroke-width: 1.5; stroke-linecap: square"/>
    <defs>
     <path id="ma748a4ee79" d="M 0 3 
C 0.795609 3 1.55874 2.683901 2.12132 2.12132 
C 2.683901 1.55874 3 0.795609 3 0 
C 3 -0.795609 2.683901 -1.55874 2.12132 -2.12132 
C 1.55874 -2.683901 0.795609 -3 0 -3 
C -0.795609 -3 -1.55874 -2.683901 -2.12132 -2.12132 
C -2.683901 -1.55874 -3 -0.795609 -3 0 
C -3 0.795609 -2.683901 1.55874 -2.12132 2.12132 
C -1.55874 2.683901 -0.795609 3 0 3 
z
" style="stroke: #1f77b4"/>
    </defs>
    <g clip-path="url(#pedb492f21f)">
     <use xlink:href="#ma748a4ee79" x="86.69245" y="592.775619" style="fill: #1f77b4; stroke: #1f77b4"/>
     <use xlink:href="#ma748a4ee79" x="94.483166" y="575.0958" style="fill: #1f77b4; stroke: #1f77b4"/>
     <use xlink:href="#ma748a4ee79" x="102.273881" y="561.821101" style="fill: #1f77b4; stroke: #1f77b4"/>
     <use xlink:href="#ma748a4ee79" x="110.064596" y="557.005374" style="fill: #1f77b4; stroke: #1f77b4"/>
     <use xlink:href="#ma748a4ee79" x="117.855312" y="554.437302" style="fill: #1f77b4; stroke: #1f77b4"/>
     <use xlink:href="#ma748a4ee79" x="125.646027" y="544.623092" style="fill: #1f77b4; stroke: #1f77b4"/>
     <use xlink:href="#ma748a4ee79" x="133.436742" y="538.694217" style="fill: #1f77b4; stroke: #1f77b4"/>
     <use xlink:href="#ma748a4ee79" x="141.227458" y="532.874521" style="fill: #1f77b4; stroke: #1f77b4"/>
     <use xlink:href="#ma748a4ee79" x="149.018173" y="528.101515" style="fill: #1f77b4; stroke: #1f77b4"/>
     <use xlink:href="#ma748a4ee79" x="156.808888" y="527.586477" style="fill: #1f77b4; stroke: #1f77b4"/>
     <use xlink:href="#ma748a4ee79" x="164.599603" y="527.576983" style="fill: #1f77b4; stroke: #1f77b4"/>
     <use xlink:href="#ma748a4ee79" x="172.390319" y="524.391815" style="fill: #1f77b4; stroke: #1f77b4"/>
     <use xlink:href="#ma748a4ee79" x="180.181034" y="513.863197" style="fill: #1f77b4; stroke: #1f77b4"/>
     <use xlink:href="#ma748a4ee79" x="187.971749" y="510.056185" style="fill: #1f77b4; stroke: #1f77b4"/>
     <use xlink:href="#ma748a4ee79" x="195.762465" y="504.751527" style="fill: #1f77b4; stroke: #1f77b4"/>
     <use xlink:href="#ma748a4ee79" x="203.55318" y="500.764133" style="fill: #1f77b4; stroke: #1f77b4"/>
     <use xlink:href="#ma748a4ee79" x="211.343895" y="499.370919" style="fill: #1f77b4; stroke: #1f77b4"/>
     <use xlink:href="#ma748a4ee79" x="219.134611" y="491.486322" style="fill: #1f77b4; stroke: #1f77b4"/>
     <use xlink:href="#ma748a4ee79" x="226.925326" y="487.957004" style="fill: #1f77b4; stroke: #1f77b4"/>
     <use xlink:href="#ma748a4ee79" x="234.716041" y="484.510757" style="fill: #1f77b4; stroke: #1f77b4"/>
     <use xlink:href="#ma748a4ee79" x="242.506756" y="483.231468" style="fill: #1f77b4; stroke: #1f77b4"/>
     <use xlink:href="#ma748a4ee79" x="250.297472" y="483.219601" style="fill: #1f77b4; stroke: #1f77b4"/>
     <use xlink:href="#ma748a4ee79" x="258.088187" y="483.062953" style="fill: #1f77b4; stroke: #1f77b4"/>
     <use xlink:href="#ma748a4ee79" x="265.878902" y="475.536747" style="fill: #1f77b4; stroke: #1f77b4"/>
     <use xlink:href="#ma748a4ee79" x="273.669618" y="462.56585" style="fill: #1f77b4; stroke: #1f77b4"/>
     <use xlink:href="#ma748a4ee79" x="281.460333" y="458.217692" style="fill: #1f77b4; stroke: #1f77b4"/>
     <use xlink:href="#ma748a4ee79" x="289.251048" y="454.432041" style="fill: #1f77b4; stroke: #1f77b4"/>
     <use xlink:href="#ma748a4ee79" x="297.041763" y="453.019839" style="fill: #1f77b4; stroke: #1f77b4"/>
     <use xlink:href="#ma748a4ee79" x="304.832479" y="449.177226" style="fill: #1f77b4; stroke: #1f77b4"/>
     <use xlink:href="#ma748a4ee79" x="312.623194" y="445.719111" style="fill: #1f77b4; stroke: #1f77b4"/>
     <use xlink:href="#ma748a4ee79" x="320.413909" y="444.017349" style="fill: #1f77b4; stroke: #1f77b4"/>
     <use xlink:href="#ma748a4ee79" x="328.204625" y="438.658101" style="fill: #1f77b4; stroke: #1f77b4"/>
     <use xlink:href="#ma748a4ee79" x="335.99534" y="434.115321" style="fill: #1f77b4; stroke: #1f77b4"/>
     <use xlink:href="#ma748a4ee79" x="343.786055" y="432.819418" style="fill: #1f77b4; stroke: #1f77b4"/>
     <use xlink:href="#ma748a4ee79" x="351.576771" y="431.42383" style="fill: #1f77b4; stroke: #1f77b4"/>
     <use xlink:href="#ma748a4ee79" x="359.367486" y="429.221269" style="fill: #1f77b4; stroke: #1f77b4"/>
     <use xlink:href="#ma748a4ee79" x="367.158201" y="419.255158" style="fill: #1f77b4; stroke: #1f77b4"/>
     <use xlink:href="#ma748a4ee79" x="374.948916" y="410.803308" style="fill: #1f77b4; stroke: #1f77b4"/>
     <use xlink:href="#ma748a4ee79" x="382.739632" y="409.1324" style="fill: #1f77b4; stroke: #1f77b4"/>
     <use xlink:href="#ma748a4ee79" x="390.530347" y="408.541411" style="fill: #1f77b4; stroke: #1f77b4"/>
     <use xlink:href="#ma748a4ee79" x="398.321062" y="406.564328" style="fill: #1f77b4; stroke: #1f77b4"/>
     <use xlink:href="#ma748a4ee79" x="406.111778" y="403.671094" style="fill: #1f77b4; stroke: #1f77b4"/>
     <use xlink:href="#ma748a4ee79" x="413.902493" y="400.606972" style="fill: #1f77b4; stroke: #1f77b4"/>
     <use xlink:href="#ma748a4ee79" x="421.693208" y="397.580825" style="fill: #1f77b4; stroke: #1f77b4"/>
     <use xlink:href="#ma748a4ee79" x="429.483924" y="396.420208" style="fill: #1f77b4; stroke: #1f77b4"/>
     <use xlink:href="#ma748a4ee79" x="437.274639" y="395.755643" style="fill: #1f77b4; stroke: #1f77b4"/>
     <use xlink:href="#ma748a4ee79" x="445.065354" y="394.80389" style="fill: #1f77b4; stroke: #1f77b4"/>
     <use xlink:href="#ma748a4ee79" x="452.856069" y="388.63055" style="fill: #1f77b4; stroke: #1f77b4"/>
     <use xlink:href="#ma748a4ee79" x="460.646785" y="372.915946" style="fill: #1f77b4; stroke: #1f77b4"/>
     <use xlink:href="#ma748a4ee79" x="468.4375" y="348.806454" style="fill: #1f77b4; stroke: #1f77b4"/>
     <use xlink:href="#ma748a4ee79" x="476.228215" y="338.43923" style="fill: #1f77b4; stroke: #1f77b4"/>
     <use xlink:href="#ma748a4ee79" x="484.018931" y="336.500123" style="fill: #1f77b4; stroke: #1f77b4"/>
     <use xlink:href="#ma748a4ee79" x="491.809646" y="291.912516" style="fill: #1f77b4; stroke: #1f77b4"/>
     <use xlink:href="#ma748a4ee79" x="499.600361" y="280.370435" style="fill: #1f77b4; stroke: #1f77b4"/>
     <use xlink:href="#ma748a4ee79" x="507.391076" y="275.633031" style="fill: #1f77b4; stroke: #1f77b4"/>
     <use xlink:href="#ma748a4ee79" x="515.181792" y="273.01037" style="fill: #1f77b4; stroke: #1f77b4"/>
     <use xlink:href="#ma748a4ee79" x="522.972507" y="272.564162" style="fill: #1f77b4; stroke: #1f77b4"/>
     <use xlink:href="#ma748a4ee79" x="530.763222" y="272.222385" style="fill: #1f77b4; stroke: #1f77b4"/>
     <use xlink:href="#ma748a4ee79" x="538.553938" y="271.873488" style="fill: #1f77b4; stroke: #1f77b4"/>
     <use xlink:href="#ma748a4ee79" x="546.344653" y="267.857613" style="fill: #1f77b4; stroke: #1f77b4"/>
     <use xlink:href="#ma748a4ee79" x="554.135368" y="257.675518" style="fill: #1f77b4; stroke: #1f77b4"/>
     <use xlink:href="#ma748a4ee79" x="561.926084" y="247.377124" style="fill: #1f77b4; stroke: #1f77b4"/>
     <use xlink:href="#ma748a4ee79" x="569.716799" y="235.896753" style="fill: #1f77b4; stroke: #1f77b4"/>
     <use xlink:href="#ma748a4ee79" x="577.507514" y="233.841347" style="fill: #1f77b4; stroke: #1f77b4"/>
     <use xlink:href="#ma748a4ee79" x="585.298229" y="226.640303" style="fill: #1f77b4; stroke: #1f77b4"/>
     <use xlink:href="#ma748a4ee79" x="593.088945" y="215.610887" style="fill: #1f77b4; stroke: #1f77b4"/>
     <use xlink:href="#ma748a4ee79" x="600.87966" y="194.593999" style="fill: #1f77b4; stroke: #1f77b4"/>
     <use xlink:href="#ma748a4ee79" x="608.670375" y="191.513263" style="fill: #1f77b4; stroke: #1f77b4"/>
     <use xlink:href="#ma748a4ee79" x="616.461091" y="190.855817" style="fill: #1f77b4; stroke: #1f77b4"/>
     <use xlink:href="#ma748a4ee79" x="624.251806" y="189.396146" style="fill: #1f77b4; stroke: #1f77b4"/>
     <use xlink:href="#ma748a4ee79" x="632.042521" y="175.452135" style="fill: #1f77b4; stroke: #1f77b4"/>
     <use xlink:href="#ma748a4ee79" x="639.833237" y="166.660881" style="fill: #1f77b4; stroke: #1f77b4"/>
     <use xlink:href="#ma748a4ee79" x="647.623952" y="148.247666" style="fill: #1f77b4; stroke: #1f77b4"/>
     <use xlink:href="#ma748a4ee79" x="655.414667" y="136.707959" style="fill: #1f77b4; stroke: #1f77b4"/>
     <use xlink:href="#ma748a4ee79" x="663.205382" y="131.65726" style="fill: #1f77b4; stroke: #1f77b4"/>
     <use xlink:href="#ma748a4ee79" x="670.996098" y="130.451548" style="fill: #1f77b4; stroke: #1f77b4"/>
     <use xlink:href="#ma748a4ee79" x="678.786813" y="123.587534" style="fill: #1f77b4; stroke: #1f77b4"/>
     <use xlink:href="#ma748a4ee79" x="686.577528" y="115.838224" style="fill: #1f77b4; stroke: #1f77b4"/>
     <use xlink:href="#ma748a4ee79" x="694.368244" y="102.663211" style="fill: #1f77b4; stroke: #1f77b4"/>
     <use xlink:href="#ma748a4ee79" x="702.158959" y="87.000823" style="fill: #1f77b4; stroke: #1f77b4"/>
     <use xlink:href="#ma748a4ee79" x="709.949674" y="85.412986" style="fill: #1f77b4; stroke: #1f77b4"/>
     <use xlink:href="#ma748a4ee79" x="717.740389" y="85.351276" style="fill: #1f77b4; stroke: #1f77b4"/>
     <use xlink:href="#ma748a4ee79" x="725.531105" y="85.351276" style="fill: #1f77b4; stroke: #1f77b4"/>
     <use xlink:href="#ma748a4ee79" x="733.32182" y="85.351276" style="fill: #1f77b4; stroke: #1f77b4"/>
     <use xlink:href="#ma748a4ee79" x="741.112535" y="77.96273" style="fill: #1f77b4; stroke: #1f77b4"/>
     <use xlink:href="#ma748a4ee79" x="748.903251" y="72.627218" style="fill: #1f77b4; stroke: #1f77b4"/>
     <use xlink:href="#ma748a4ee79" x="756.693966" y="64.251317" style="fill: #1f77b4; stroke: #1f77b4"/>
     <use xlink:href="#ma748a4ee79" x="764.484681" y="59.165017" style="fill: #1f77b4; stroke: #1f77b4"/>
     <use xlink:href="#ma748a4ee79" x="772.275397" y="50.17914" style="fill: #1f77b4; stroke: #1f77b4"/>
     <use xlink:href="#ma748a4ee79" x="780.066112" y="47.867401" style="fill: #1f77b4; stroke: #1f77b4"/>
     <use xlink:href="#ma748a4ee79" x="787.856827" y="45.539048" style="fill: #1f77b4; stroke: #1f77b4"/>
     <use xlink:href="#ma748a4ee79" x="795.647542" y="39.928215" style="fill: #1f77b4; stroke: #1f77b4"/>
     <use xlink:href="#ma748a4ee79" x="803.438258" y="39.864132" style="fill: #1f77b4; stroke: #1f77b4"/>
     <use xlink:href="#ma748a4ee79" x="811.228973" y="39.864132" style="fill: #1f77b4; stroke: #1f77b4"/>
     <use xlink:href="#ma748a4ee79" x="819.019688" y="39.864132" style="fill: #1f77b4; stroke: #1f77b4"/>
     <use xlink:href="#ma748a4ee79" x="826.810404" y="28.267461" style="fill: #1f77b4; stroke: #1f77b4"/>
     <use xlink:href="#ma748a4ee79" x="834.601119" y="19.229369" style="fill: #1f77b4; stroke: #1f77b4"/>
     <use xlink:href="#ma748a4ee79" x="842.391834" y="14.46111" style="fill: #1f77b4; stroke: #1f77b4"/>
     <use xlink:href="#ma748a4ee79" x="850.18255" y="12.899381" style="fill: #1f77b4; stroke: #1f77b4"/>
    </g>
   </g>
   <g id="patch_3">
    <path d="M 82.875 595.675 
L 82.875 10 
" style="fill: none; stroke: #000000; stroke-width: 0.8; stroke-linejoin: miter; stroke-linecap: square"/>
   </g>
   <g id="patch_4">
    <path d="M 854 595.675 
L 854 10 
" style="fill: none; stroke: #000000; stroke-width: 0.8; stroke-linejoin: miter; stroke-linecap: square"/>
   </g>
   <g id="patch_5">
    <path d="M 82.875 595.675 
L 854 595.675 
" style="fill: none; stroke: #000000; stroke-width: 0.8; stroke-linejoin: miter; stroke-linecap: square"/>
   </g>
   <g id="patch_6">
    <path d="M 82.875 10 
L 854 10 
" style="fill: none; stroke: #000000; stroke-width: 0.8; stroke-linejoin: miter; stroke-linecap: square"/>
   </g>
  </g>
 </g>
 <defs>
  <clipPath id="pedb492f21f">
   <rect x="82.875" y="10" width="771.125" height="585.675"/>
  </clipPath>
 </defs>
</svg>
