<?xml version="1.0" encoding="utf-8" standalone="no"?>
<!DOCTYPE svg PUBLIC "-//W3C//DTD SVG 1.1//EN"
  "http://www.w3.org/Graphics/SVG/1.1/DTD/svg11.dtd">
<svg xmlns:xlink="http://www.w3.org/1999/xlink" width="864pt" height="648pt" viewBox="0 0 864 648" xmlns="http://www.w3.org/2000/svg" version="1.1">
 <metadata>
  <rdf:RDF xmlns:dc="http://purl.org/dc/elements/1.1/" xmlns:cc="http://creativecommons.org/ns#" xmlns:rdf="http://www.w3.org/1999/02/22-rdf-syntax-ns#">
   <cc:Work>
    <dc:type rdf:resource="http://purl.org/dc/dcmitype/StillImage"/>
    <dc:date>2023-01-05T04:57:30.247265</dc:date>
    <dc:format>image/svg+xml</dc:format>
    <dc:creator>
     <cc:Agent>
      <dc:title>Matplotlib v3.6.1, https://matplotlib.org/</dc:title>
     </cc:Agent>
    </dc:creator>
   </cc:Work>
  </rdf:RDF>
 </metadata>
 <defs>
  <style type="text/css">*{stroke-linejoin: round; stroke-linecap: butt}</style>
 </defs>
 <g id="figure_1">
  <g id="patch_1">
   <path d="M 0 648 
L 864 648 
L 864 0 
L 0 0 
z
" style="fill: #ffffff"/>
  </g>
  <g id="axes_1">
   <g id="patch_2">
    <path d="M 65.325 595.675 
L 854 595.675 
L 854 10 
L 65.325 10 
z
" style="fill: #ffffff"/>
   </g>
   <g id="matplotlib.axis_1">
    <g id="xtick_1">
     <g id="line2d_1">
      <defs>
       <path id="mfcc76afcaf" d="M 0 0 
L 0 3.5 
" style="stroke: #000000; stroke-width: 0.8"/>
      </defs>
      <g>
       <use xlink:href="#mfcc76afcaf" x="69.229332" y="595.675" style="stroke: #000000; stroke-width: 0.8"/>
      </g>
     </g>
    </g>
    <g id="xtick_2">
     <g id="line2d_2">
      <g>
       <use xlink:href="#mfcc76afcaf" x="77.11687" y="595.675" style="stroke: #000000; stroke-width: 0.8"/>
      </g>
     </g>
    </g>
    <g id="xtick_3">
     <g id="line2d_3">
      <g>
       <use xlink:href="#mfcc76afcaf" x="85.004409" y="595.675" style="stroke: #000000; stroke-width: 0.8"/>
      </g>
     </g>
    </g>
    <g id="xtick_4">
     <g id="line2d_4">
      <g>
       <use xlink:href="#mfcc76afcaf" x="92.891948" y="595.675" style="stroke: #000000; stroke-width: 0.8"/>
      </g>
     </g>
    </g>
    <g id="xtick_5">
     <g id="line2d_5">
      <g>
       <use xlink:href="#mfcc76afcaf" x="100.779487" y="595.675" style="stroke: #000000; stroke-width: 0.8"/>
      </g>
     </g>
     <g id="text_1">
      <!-- 2015 -->
      <g transform="translate(104.642612 638.305) rotate(-90) scale(0.14 -0.14)">
       <defs>
        <path id="DejaVuSans-32" d="M 1228 531 
L 3431 531 
L 3431 0 
L 469 0 
L 469 531 
Q 828 903 1448 1529 
Q 2069 2156 2228 2338 
Q 2531 2678 2651 2914 
Q 2772 3150 2772 3378 
Q 2772 3750 2511 3984 
Q 2250 4219 1831 4219 
Q 1534 4219 1204 4116 
Q 875 4013 500 3803 
L 500 4441 
Q 881 4594 1212 4672 
Q 1544 4750 1819 4750 
Q 2544 4750 2975 4387 
Q 3406 4025 3406 3419 
Q 3406 3131 3298 2873 
Q 3191 2616 2906 2266 
Q 2828 2175 2409 1742 
Q 1991 1309 1228 531 
z
" transform="scale(0.015625)"/>
        <path id="DejaVuSans-30" d="M 2034 4250 
Q 1547 4250 1301 3770 
Q 1056 3291 1056 2328 
Q 1056 1369 1301 889 
Q 1547 409 2034 409 
Q 2525 409 2770 889 
Q 3016 1369 3016 2328 
Q 3016 3291 2770 3770 
Q 2525 4250 2034 4250 
z
M 2034 4750 
Q 2819 4750 3233 4129 
Q 3647 3509 3647 2328 
Q 3647 1150 3233 529 
Q 2819 -91 2034 -91 
Q 1250 -91 836 529 
Q 422 1150 422 2328 
Q 422 3509 836 4129 
Q 1250 4750 2034 4750 
z
" transform="scale(0.015625)"/>
        <path id="DejaVuSans-31" d="M 794 531 
L 1825 531 
L 1825 4091 
L 703 3866 
L 703 4441 
L 1819 4666 
L 2450 4666 
L 2450 531 
L 3481 531 
L 3481 0 
L 794 0 
L 794 531 
z
" transform="scale(0.015625)"/>
        <path id="DejaVuSans-35" d="M 691 4666 
L 3169 4666 
L 3169 4134 
L 1269 4134 
L 1269 2991 
Q 1406 3038 1543 3061 
Q 1681 3084 1819 3084 
Q 2600 3084 3056 2656 
Q 3513 2228 3513 1497 
Q 3513 744 3044 326 
Q 2575 -91 1722 -91 
Q 1428 -91 1123 -41 
Q 819 9 494 109 
L 494 744 
Q 775 591 1075 516 
Q 1375 441 1709 441 
Q 2250 441 2565 725 
Q 2881 1009 2881 1497 
Q 2881 1984 2565 2268 
Q 2250 2553 1709 2553 
Q 1456 2553 1204 2497 
Q 953 2441 691 2322 
L 691 4666 
z
" transform="scale(0.015625)"/>
       </defs>
       <use xlink:href="#DejaVuSans-32"/>
       <use xlink:href="#DejaVuSans-30" x="63.623047"/>
       <use xlink:href="#DejaVuSans-31" x="127.246094"/>
       <use xlink:href="#DejaVuSans-35" x="190.869141"/>
      </g>
     </g>
    </g>
    <g id="xtick_6">
     <g id="line2d_6">
      <g>
       <use xlink:href="#mfcc76afcaf" x="108.667025" y="595.675" style="stroke: #000000; stroke-width: 0.8"/>
      </g>
     </g>
    </g>
    <g id="xtick_7">
     <g id="line2d_7">
      <g>
       <use xlink:href="#mfcc76afcaf" x="116.554564" y="595.675" style="stroke: #000000; stroke-width: 0.8"/>
      </g>
     </g>
    </g>
    <g id="xtick_8">
     <g id="line2d_8">
      <g>
       <use xlink:href="#mfcc76afcaf" x="124.442103" y="595.675" style="stroke: #000000; stroke-width: 0.8"/>
      </g>
     </g>
    </g>
    <g id="xtick_9">
     <g id="line2d_9">
      <g>
       <use xlink:href="#mfcc76afcaf" x="132.329642" y="595.675" style="stroke: #000000; stroke-width: 0.8"/>
      </g>
     </g>
    </g>
    <g id="xtick_10">
     <g id="line2d_10">
      <g>
       <use xlink:href="#mfcc76afcaf" x="140.21718" y="595.675" style="stroke: #000000; stroke-width: 0.8"/>
      </g>
     </g>
    </g>
    <g id="xtick_11">
     <g id="line2d_11">
      <g>
       <use xlink:href="#mfcc76afcaf" x="148.104719" y="595.675" style="stroke: #000000; stroke-width: 0.8"/>
      </g>
     </g>
    </g>
    <g id="xtick_12">
     <g id="line2d_12">
      <g>
       <use xlink:href="#mfcc76afcaf" x="155.992258" y="595.675" style="stroke: #000000; stroke-width: 0.8"/>
      </g>
     </g>
    </g>
    <g id="xtick_13">
     <g id="line2d_13">
      <g>
       <use xlink:href="#mfcc76afcaf" x="163.879797" y="595.675" style="stroke: #000000; stroke-width: 0.8"/>
      </g>
     </g>
    </g>
    <g id="xtick_14">
     <g id="line2d_14">
      <g>
       <use xlink:href="#mfcc76afcaf" x="171.767335" y="595.675" style="stroke: #000000; stroke-width: 0.8"/>
      </g>
     </g>
    </g>
    <g id="xtick_15">
     <g id="line2d_15">
      <g>
       <use xlink:href="#mfcc76afcaf" x="179.654874" y="595.675" style="stroke: #000000; stroke-width: 0.8"/>
      </g>
     </g>
    </g>
    <g id="xtick_16">
     <g id="line2d_16">
      <g>
       <use xlink:href="#mfcc76afcaf" x="187.542413" y="595.675" style="stroke: #000000; stroke-width: 0.8"/>
      </g>
     </g>
    </g>
    <g id="xtick_17">
     <g id="line2d_17">
      <g>
       <use xlink:href="#mfcc76afcaf" x="195.429952" y="595.675" style="stroke: #000000; stroke-width: 0.8"/>
      </g>
     </g>
     <g id="text_2">
      <!-- 2016 -->
      <g transform="translate(199.293077 638.305) rotate(-90) scale(0.14 -0.14)">
       <defs>
        <path id="DejaVuSans-36" d="M 2113 2584 
Q 1688 2584 1439 2293 
Q 1191 2003 1191 1497 
Q 1191 994 1439 701 
Q 1688 409 2113 409 
Q 2538 409 2786 701 
Q 3034 994 3034 1497 
Q 3034 2003 2786 2293 
Q 2538 2584 2113 2584 
z
M 3366 4563 
L 3366 3988 
Q 3128 4100 2886 4159 
Q 2644 4219 2406 4219 
Q 1781 4219 1451 3797 
Q 1122 3375 1075 2522 
Q 1259 2794 1537 2939 
Q 1816 3084 2150 3084 
Q 2853 3084 3261 2657 
Q 3669 2231 3669 1497 
Q 3669 778 3244 343 
Q 2819 -91 2113 -91 
Q 1303 -91 875 529 
Q 447 1150 447 2328 
Q 447 3434 972 4092 
Q 1497 4750 2381 4750 
Q 2619 4750 2861 4703 
Q 3103 4656 3366 4563 
z
" transform="scale(0.015625)"/>
       </defs>
       <use xlink:href="#DejaVuSans-32"/>
       <use xlink:href="#DejaVuSans-30" x="63.623047"/>
       <use xlink:href="#DejaVuSans-31" x="127.246094"/>
       <use xlink:href="#DejaVuSans-36" x="190.869141"/>
      </g>
     </g>
    </g>
    <g id="xtick_18">
     <g id="line2d_18">
      <g>
       <use xlink:href="#mfcc76afcaf" x="203.31749" y="595.675" style="stroke: #000000; stroke-width: 0.8"/>
      </g>
     </g>
    </g>
    <g id="xtick_19">
     <g id="line2d_19">
      <g>
       <use xlink:href="#mfcc76afcaf" x="211.205029" y="595.675" style="stroke: #000000; stroke-width: 0.8"/>
      </g>
     </g>
    </g>
    <g id="xtick_20">
     <g id="line2d_20">
      <g>
       <use xlink:href="#mfcc76afcaf" x="219.092568" y="595.675" style="stroke: #000000; stroke-width: 0.8"/>
      </g>
     </g>
    </g>
    <g id="xtick_21">
     <g id="line2d_21">
      <g>
       <use xlink:href="#mfcc76afcaf" x="226.980107" y="595.675" style="stroke: #000000; stroke-width: 0.8"/>
      </g>
     </g>
    </g>
    <g id="xtick_22">
     <g id="line2d_22">
      <g>
       <use xlink:href="#mfcc76afcaf" x="234.867646" y="595.675" style="stroke: #000000; stroke-width: 0.8"/>
      </g>
     </g>
    </g>
    <g id="xtick_23">
     <g id="line2d_23">
      <g>
       <use xlink:href="#mfcc76afcaf" x="242.755184" y="595.675" style="stroke: #000000; stroke-width: 0.8"/>
      </g>
     </g>
    </g>
    <g id="xtick_24">
     <g id="line2d_24">
      <g>
       <use xlink:href="#mfcc76afcaf" x="250.642723" y="595.675" style="stroke: #000000; stroke-width: 0.8"/>
      </g>
     </g>
    </g>
    <g id="xtick_25">
     <g id="line2d_25">
      <g>
       <use xlink:href="#mfcc76afcaf" x="258.530262" y="595.675" style="stroke: #000000; stroke-width: 0.8"/>
      </g>
     </g>
    </g>
    <g id="xtick_26">
     <g id="line2d_26">
      <g>
       <use xlink:href="#mfcc76afcaf" x="266.417801" y="595.675" style="stroke: #000000; stroke-width: 0.8"/>
      </g>
     </g>
    </g>
    <g id="xtick_27">
     <g id="line2d_27">
      <g>
       <use xlink:href="#mfcc76afcaf" x="274.305339" y="595.675" style="stroke: #000000; stroke-width: 0.8"/>
      </g>
     </g>
    </g>
    <g id="xtick_28">
     <g id="line2d_28">
      <g>
       <use xlink:href="#mfcc76afcaf" x="282.192878" y="595.675" style="stroke: #000000; stroke-width: 0.8"/>
      </g>
     </g>
    </g>
    <g id="xtick_29">
     <g id="line2d_29">
      <g>
       <use xlink:href="#mfcc76afcaf" x="290.080417" y="595.675" style="stroke: #000000; stroke-width: 0.8"/>
      </g>
     </g>
     <g id="text_3">
      <!-- 2017 -->
      <g transform="translate(293.943542 638.305) rotate(-90) scale(0.14 -0.14)">
       <defs>
        <path id="DejaVuSans-37" d="M 525 4666 
L 3525 4666 
L 3525 4397 
L 1831 0 
L 1172 0 
L 2766 4134 
L 525 4134 
L 525 4666 
z
" transform="scale(0.015625)"/>
       </defs>
       <use xlink:href="#DejaVuSans-32"/>
       <use xlink:href="#DejaVuSans-30" x="63.623047"/>
       <use xlink:href="#DejaVuSans-31" x="127.246094"/>
       <use xlink:href="#DejaVuSans-37" x="190.869141"/>
      </g>
     </g>
    </g>
    <g id="xtick_30">
     <g id="line2d_30">
      <g>
       <use xlink:href="#mfcc76afcaf" x="297.967956" y="595.675" style="stroke: #000000; stroke-width: 0.8"/>
      </g>
     </g>
    </g>
    <g id="xtick_31">
     <g id="line2d_31">
      <g>
       <use xlink:href="#mfcc76afcaf" x="305.855494" y="595.675" style="stroke: #000000; stroke-width: 0.8"/>
      </g>
     </g>
    </g>
    <g id="xtick_32">
     <g id="line2d_32">
      <g>
       <use xlink:href="#mfcc76afcaf" x="313.743033" y="595.675" style="stroke: #000000; stroke-width: 0.8"/>
      </g>
     </g>
    </g>
    <g id="xtick_33">
     <g id="line2d_33">
      <g>
       <use xlink:href="#mfcc76afcaf" x="321.630572" y="595.675" style="stroke: #000000; stroke-width: 0.8"/>
      </g>
     </g>
    </g>
    <g id="xtick_34">
     <g id="line2d_34">
      <g>
       <use xlink:href="#mfcc76afcaf" x="329.518111" y="595.675" style="stroke: #000000; stroke-width: 0.8"/>
      </g>
     </g>
    </g>
    <g id="xtick_35">
     <g id="line2d_35">
      <g>
       <use xlink:href="#mfcc76afcaf" x="337.405649" y="595.675" style="stroke: #000000; stroke-width: 0.8"/>
      </g>
     </g>
    </g>
    <g id="xtick_36">
     <g id="line2d_36">
      <g>
       <use xlink:href="#mfcc76afcaf" x="345.293188" y="595.675" style="stroke: #000000; stroke-width: 0.8"/>
      </g>
     </g>
    </g>
    <g id="xtick_37">
     <g id="line2d_37">
      <g>
       <use xlink:href="#mfcc76afcaf" x="353.180727" y="595.675" style="stroke: #000000; stroke-width: 0.8"/>
      </g>
     </g>
    </g>
    <g id="xtick_38">
     <g id="line2d_38">
      <g>
       <use xlink:href="#mfcc76afcaf" x="361.068266" y="595.675" style="stroke: #000000; stroke-width: 0.8"/>
      </g>
     </g>
    </g>
    <g id="xtick_39">
     <g id="line2d_39">
      <g>
       <use xlink:href="#mfcc76afcaf" x="368.955804" y="595.675" style="stroke: #000000; stroke-width: 0.8"/>
      </g>
     </g>
    </g>
    <g id="xtick_40">
     <g id="line2d_40">
      <g>
       <use xlink:href="#mfcc76afcaf" x="376.843343" y="595.675" style="stroke: #000000; stroke-width: 0.8"/>
      </g>
     </g>
    </g>
    <g id="xtick_41">
     <g id="line2d_41">
      <g>
       <use xlink:href="#mfcc76afcaf" x="384.730882" y="595.675" style="stroke: #000000; stroke-width: 0.8"/>
      </g>
     </g>
     <g id="text_4">
      <!-- 2018 -->
      <g transform="translate(388.594007 638.305) rotate(-90) scale(0.14 -0.14)">
       <defs>
        <path id="DejaVuSans-38" d="M 2034 2216 
Q 1584 2216 1326 1975 
Q 1069 1734 1069 1313 
Q 1069 891 1326 650 
Q 1584 409 2034 409 
Q 2484 409 2743 651 
Q 3003 894 3003 1313 
Q 3003 1734 2745 1975 
Q 2488 2216 2034 2216 
z
M 1403 2484 
Q 997 2584 770 2862 
Q 544 3141 544 3541 
Q 544 4100 942 4425 
Q 1341 4750 2034 4750 
Q 2731 4750 3128 4425 
Q 3525 4100 3525 3541 
Q 3525 3141 3298 2862 
Q 3072 2584 2669 2484 
Q 3125 2378 3379 2068 
Q 3634 1759 3634 1313 
Q 3634 634 3220 271 
Q 2806 -91 2034 -91 
Q 1263 -91 848 271 
Q 434 634 434 1313 
Q 434 1759 690 2068 
Q 947 2378 1403 2484 
z
M 1172 3481 
Q 1172 3119 1398 2916 
Q 1625 2713 2034 2713 
Q 2441 2713 2670 2916 
Q 2900 3119 2900 3481 
Q 2900 3844 2670 4047 
Q 2441 4250 2034 4250 
Q 1625 4250 1398 4047 
Q 1172 3844 1172 3481 
z
" transform="scale(0.015625)"/>
       </defs>
       <use xlink:href="#DejaVuSans-32"/>
       <use xlink:href="#DejaVuSans-30" x="63.623047"/>
       <use xlink:href="#DejaVuSans-31" x="127.246094"/>
       <use xlink:href="#DejaVuSans-38" x="190.869141"/>
      </g>
     </g>
    </g>
    <g id="xtick_42">
     <g id="line2d_42">
      <g>
       <use xlink:href="#mfcc76afcaf" x="392.618421" y="595.675" style="stroke: #000000; stroke-width: 0.8"/>
      </g>
     </g>
    </g>
    <g id="xtick_43">
     <g id="line2d_43">
      <g>
       <use xlink:href="#mfcc76afcaf" x="400.505959" y="595.675" style="stroke: #000000; stroke-width: 0.8"/>
      </g>
     </g>
    </g>
    <g id="xtick_44">
     <g id="line2d_44">
      <g>
       <use xlink:href="#mfcc76afcaf" x="408.393498" y="595.675" style="stroke: #000000; stroke-width: 0.8"/>
      </g>
     </g>
    </g>
    <g id="xtick_45">
     <g id="line2d_45">
      <g>
       <use xlink:href="#mfcc76afcaf" x="416.281037" y="595.675" style="stroke: #000000; stroke-width: 0.8"/>
      </g>
     </g>
    </g>
    <g id="xtick_46">
     <g id="line2d_46">
      <g>
       <use xlink:href="#mfcc76afcaf" x="424.168576" y="595.675" style="stroke: #000000; stroke-width: 0.8"/>
      </g>
     </g>
    </g>
    <g id="xtick_47">
     <g id="line2d_47">
      <g>
       <use xlink:href="#mfcc76afcaf" x="432.056114" y="595.675" style="stroke: #000000; stroke-width: 0.8"/>
      </g>
     </g>
    </g>
    <g id="xtick_48">
     <g id="line2d_48">
      <g>
       <use xlink:href="#mfcc76afcaf" x="439.943653" y="595.675" style="stroke: #000000; stroke-width: 0.8"/>
      </g>
     </g>
    </g>
    <g id="xtick_49">
     <g id="line2d_49">
      <g>
       <use xlink:href="#mfcc76afcaf" x="447.831192" y="595.675" style="stroke: #000000; stroke-width: 0.8"/>
      </g>
     </g>
    </g>
    <g id="xtick_50">
     <g id="line2d_50">
      <g>
       <use xlink:href="#mfcc76afcaf" x="455.718731" y="595.675" style="stroke: #000000; stroke-width: 0.8"/>
      </g>
     </g>
    </g>
    <g id="xtick_51">
     <g id="line2d_51">
      <g>
       <use xlink:href="#mfcc76afcaf" x="463.606269" y="595.675" style="stroke: #000000; stroke-width: 0.8"/>
      </g>
     </g>
    </g>
    <g id="xtick_52">
     <g id="line2d_52">
      <g>
       <use xlink:href="#mfcc76afcaf" x="471.493808" y="595.675" style="stroke: #000000; stroke-width: 0.8"/>
      </g>
     </g>
    </g>
    <g id="xtick_53">
     <g id="line2d_53">
      <g>
       <use xlink:href="#mfcc76afcaf" x="479.381347" y="595.675" style="stroke: #000000; stroke-width: 0.8"/>
      </g>
     </g>
     <g id="text_5">
      <!-- 2019 -->
      <g transform="translate(483.244472 638.305) rotate(-90) scale(0.14 -0.14)">
       <defs>
        <path id="DejaVuSans-39" d="M 703 97 
L 703 672 
Q 941 559 1184 500 
Q 1428 441 1663 441 
Q 2288 441 2617 861 
Q 2947 1281 2994 2138 
Q 2813 1869 2534 1725 
Q 2256 1581 1919 1581 
Q 1219 1581 811 2004 
Q 403 2428 403 3163 
Q 403 3881 828 4315 
Q 1253 4750 1959 4750 
Q 2769 4750 3195 4129 
Q 3622 3509 3622 2328 
Q 3622 1225 3098 567 
Q 2575 -91 1691 -91 
Q 1453 -91 1209 -44 
Q 966 3 703 97 
z
M 1959 2075 
Q 2384 2075 2632 2365 
Q 2881 2656 2881 3163 
Q 2881 3666 2632 3958 
Q 2384 4250 1959 4250 
Q 1534 4250 1286 3958 
Q 1038 3666 1038 3163 
Q 1038 2656 1286 2365 
Q 1534 2075 1959 2075 
z
" transform="scale(0.015625)"/>
       </defs>
       <use xlink:href="#DejaVuSans-32"/>
       <use xlink:href="#DejaVuSans-30" x="63.623047"/>
       <use xlink:href="#DejaVuSans-31" x="127.246094"/>
       <use xlink:href="#DejaVuSans-39" x="190.869141"/>
      </g>
     </g>
    </g>
    <g id="xtick_54">
     <g id="line2d_54">
      <g>
       <use xlink:href="#mfcc76afcaf" x="487.268886" y="595.675" style="stroke: #000000; stroke-width: 0.8"/>
      </g>
     </g>
    </g>
    <g id="xtick_55">
     <g id="line2d_55">
      <g>
       <use xlink:href="#mfcc76afcaf" x="495.156424" y="595.675" style="stroke: #000000; stroke-width: 0.8"/>
      </g>
     </g>
    </g>
    <g id="xtick_56">
     <g id="line2d_56">
      <g>
       <use xlink:href="#mfcc76afcaf" x="503.043963" y="595.675" style="stroke: #000000; stroke-width: 0.8"/>
      </g>
     </g>
    </g>
    <g id="xtick_57">
     <g id="line2d_57">
      <g>
       <use xlink:href="#mfcc76afcaf" x="510.931502" y="595.675" style="stroke: #000000; stroke-width: 0.8"/>
      </g>
     </g>
    </g>
    <g id="xtick_58">
     <g id="line2d_58">
      <g>
       <use xlink:href="#mfcc76afcaf" x="518.819041" y="595.675" style="stroke: #000000; stroke-width: 0.8"/>
      </g>
     </g>
    </g>
    <g id="xtick_59">
     <g id="line2d_59">
      <g>
       <use xlink:href="#mfcc76afcaf" x="526.706579" y="595.675" style="stroke: #000000; stroke-width: 0.8"/>
      </g>
     </g>
    </g>
    <g id="xtick_60">
     <g id="line2d_60">
      <g>
       <use xlink:href="#mfcc76afcaf" x="534.594118" y="595.675" style="stroke: #000000; stroke-width: 0.8"/>
      </g>
     </g>
    </g>
    <g id="xtick_61">
     <g id="line2d_61">
      <g>
       <use xlink:href="#mfcc76afcaf" x="542.481657" y="595.675" style="stroke: #000000; stroke-width: 0.8"/>
      </g>
     </g>
    </g>
    <g id="xtick_62">
     <g id="line2d_62">
      <g>
       <use xlink:href="#mfcc76afcaf" x="550.369196" y="595.675" style="stroke: #000000; stroke-width: 0.8"/>
      </g>
     </g>
    </g>
    <g id="xtick_63">
     <g id="line2d_63">
      <g>
       <use xlink:href="#mfcc76afcaf" x="558.256734" y="595.675" style="stroke: #000000; stroke-width: 0.8"/>
      </g>
     </g>
    </g>
    <g id="xtick_64">
     <g id="line2d_64">
      <g>
       <use xlink:href="#mfcc76afcaf" x="566.144273" y="595.675" style="stroke: #000000; stroke-width: 0.8"/>
      </g>
     </g>
    </g>
    <g id="xtick_65">
     <g id="line2d_65">
      <g>
       <use xlink:href="#mfcc76afcaf" x="574.031812" y="595.675" style="stroke: #000000; stroke-width: 0.8"/>
      </g>
     </g>
     <g id="text_6">
      <!-- 2020 -->
      <g transform="translate(577.894937 638.305) rotate(-90) scale(0.14 -0.14)">
       <use xlink:href="#DejaVuSans-32"/>
       <use xlink:href="#DejaVuSans-30" x="63.623047"/>
       <use xlink:href="#DejaVuSans-32" x="127.246094"/>
       <use xlink:href="#DejaVuSans-30" x="190.869141"/>
      </g>
     </g>
    </g>
    <g id="xtick_66">
     <g id="line2d_66">
      <g>
       <use xlink:href="#mfcc76afcaf" x="581.919351" y="595.675" style="stroke: #000000; stroke-width: 0.8"/>
      </g>
     </g>
    </g>
    <g id="xtick_67">
     <g id="line2d_67">
      <g>
       <use xlink:href="#mfcc76afcaf" x="589.806889" y="595.675" style="stroke: #000000; stroke-width: 0.8"/>
      </g>
     </g>
    </g>
    <g id="xtick_68">
     <g id="line2d_68">
      <g>
       <use xlink:href="#mfcc76afcaf" x="597.694428" y="595.675" style="stroke: #000000; stroke-width: 0.8"/>
      </g>
     </g>
    </g>
    <g id="xtick_69">
     <g id="line2d_69">
      <g>
       <use xlink:href="#mfcc76afcaf" x="605.581967" y="595.675" style="stroke: #000000; stroke-width: 0.8"/>
      </g>
     </g>
    </g>
    <g id="xtick_70">
     <g id="line2d_70">
      <g>
       <use xlink:href="#mfcc76afcaf" x="613.469506" y="595.675" style="stroke: #000000; stroke-width: 0.8"/>
      </g>
     </g>
    </g>
    <g id="xtick_71">
     <g id="line2d_71">
      <g>
       <use xlink:href="#mfcc76afcaf" x="621.357044" y="595.675" style="stroke: #000000; stroke-width: 0.8"/>
      </g>
     </g>
    </g>
    <g id="xtick_72">
     <g id="line2d_72">
      <g>
       <use xlink:href="#mfcc76afcaf" x="629.244583" y="595.675" style="stroke: #000000; stroke-width: 0.8"/>
      </g>
     </g>
    </g>
    <g id="xtick_73">
     <g id="line2d_73">
      <g>
       <use xlink:href="#mfcc76afcaf" x="637.132122" y="595.675" style="stroke: #000000; stroke-width: 0.8"/>
      </g>
     </g>
    </g>
    <g id="xtick_74">
     <g id="line2d_74">
      <g>
       <use xlink:href="#mfcc76afcaf" x="645.019661" y="595.675" style="stroke: #000000; stroke-width: 0.8"/>
      </g>
     </g>
    </g>
    <g id="xtick_75">
     <g id="line2d_75">
      <g>
       <use xlink:href="#mfcc76afcaf" x="652.907199" y="595.675" style="stroke: #000000; stroke-width: 0.8"/>
      </g>
     </g>
    </g>
    <g id="xtick_76">
     <g id="line2d_76">
      <g>
       <use xlink:href="#mfcc76afcaf" x="660.794738" y="595.675" style="stroke: #000000; stroke-width: 0.8"/>
      </g>
     </g>
    </g>
    <g id="xtick_77">
     <g id="line2d_77">
      <g>
       <use xlink:href="#mfcc76afcaf" x="668.682277" y="595.675" style="stroke: #000000; stroke-width: 0.8"/>
      </g>
     </g>
     <g id="text_7">
      <!-- 2021 -->
      <g transform="translate(672.545402 638.305) rotate(-90) scale(0.14 -0.14)">
       <use xlink:href="#DejaVuSans-32"/>
       <use xlink:href="#DejaVuSans-30" x="63.623047"/>
       <use xlink:href="#DejaVuSans-32" x="127.246094"/>
       <use xlink:href="#DejaVuSans-31" x="190.869141"/>
      </g>
     </g>
    </g>
    <g id="xtick_78">
     <g id="line2d_78">
      <g>
       <use xlink:href="#mfcc76afcaf" x="676.569816" y="595.675" style="stroke: #000000; stroke-width: 0.8"/>
      </g>
     </g>
    </g>
    <g id="xtick_79">
     <g id="line2d_79">
      <g>
       <use xlink:href="#mfcc76afcaf" x="684.457354" y="595.675" style="stroke: #000000; stroke-width: 0.8"/>
      </g>
     </g>
    </g>
    <g id="xtick_80">
     <g id="line2d_80">
      <g>
       <use xlink:href="#mfcc76afcaf" x="692.344893" y="595.675" style="stroke: #000000; stroke-width: 0.8"/>
      </g>
     </g>
    </g>
    <g id="xtick_81">
     <g id="line2d_81">
      <g>
       <use xlink:href="#mfcc76afcaf" x="700.232432" y="595.675" style="stroke: #000000; stroke-width: 0.8"/>
      </g>
     </g>
    </g>
    <g id="xtick_82">
     <g id="line2d_82">
      <g>
       <use xlink:href="#mfcc76afcaf" x="708.119971" y="595.675" style="stroke: #000000; stroke-width: 0.8"/>
      </g>
     </g>
    </g>
    <g id="xtick_83">
     <g id="line2d_83">
      <g>
       <use xlink:href="#mfcc76afcaf" x="716.00751" y="595.675" style="stroke: #000000; stroke-width: 0.8"/>
      </g>
     </g>
    </g>
    <g id="xtick_84">
     <g id="line2d_84">
      <g>
       <use xlink:href="#mfcc76afcaf" x="723.895048" y="595.675" style="stroke: #000000; stroke-width: 0.8"/>
      </g>
     </g>
    </g>
    <g id="xtick_85">
     <g id="line2d_85">
      <g>
       <use xlink:href="#mfcc76afcaf" x="731.782587" y="595.675" style="stroke: #000000; stroke-width: 0.8"/>
      </g>
     </g>
    </g>
    <g id="xtick_86">
     <g id="line2d_86">
      <g>
       <use xlink:href="#mfcc76afcaf" x="739.670126" y="595.675" style="stroke: #000000; stroke-width: 0.8"/>
      </g>
     </g>
    </g>
    <g id="xtick_87">
     <g id="line2d_87">
      <g>
       <use xlink:href="#mfcc76afcaf" x="747.557665" y="595.675" style="stroke: #000000; stroke-width: 0.8"/>
      </g>
     </g>
    </g>
    <g id="xtick_88">
     <g id="line2d_88">
      <g>
       <use xlink:href="#mfcc76afcaf" x="755.445203" y="595.675" style="stroke: #000000; stroke-width: 0.8"/>
      </g>
     </g>
    </g>
    <g id="xtick_89">
     <g id="line2d_89">
      <g>
       <use xlink:href="#mfcc76afcaf" x="763.332742" y="595.675" style="stroke: #000000; stroke-width: 0.8"/>
      </g>
     </g>
     <g id="text_8">
      <!-- 2022 -->
      <g transform="translate(767.195867 638.305) rotate(-90) scale(0.14 -0.14)">
       <use xlink:href="#DejaVuSans-32"/>
       <use xlink:href="#DejaVuSans-30" x="63.623047"/>
       <use xlink:href="#DejaVuSans-32" x="127.246094"/>
       <use xlink:href="#DejaVuSans-32" x="190.869141"/>
      </g>
     </g>
    </g>
    <g id="xtick_90">
     <g id="line2d_90">
      <g>
       <use xlink:href="#mfcc76afcaf" x="771.220281" y="595.675" style="stroke: #000000; stroke-width: 0.8"/>
      </g>
     </g>
    </g>
    <g id="xtick_91">
     <g id="line2d_91">
      <g>
       <use xlink:href="#mfcc76afcaf" x="779.10782" y="595.675" style="stroke: #000000; stroke-width: 0.8"/>
      </g>
     </g>
    </g>
    <g id="xtick_92">
     <g id="line2d_92">
      <g>
       <use xlink:href="#mfcc76afcaf" x="786.995358" y="595.675" style="stroke: #000000; stroke-width: 0.8"/>
      </g>
     </g>
    </g>
    <g id="xtick_93">
     <g id="line2d_93">
      <g>
       <use xlink:href="#mfcc76afcaf" x="794.882897" y="595.675" style="stroke: #000000; stroke-width: 0.8"/>
      </g>
     </g>
    </g>
    <g id="xtick_94">
     <g id="line2d_94">
      <g>
       <use xlink:href="#mfcc76afcaf" x="802.770436" y="595.675" style="stroke: #000000; stroke-width: 0.8"/>
      </g>
     </g>
    </g>
    <g id="xtick_95">
     <g id="line2d_95">
      <g>
       <use xlink:href="#mfcc76afcaf" x="810.657975" y="595.675" style="stroke: #000000; stroke-width: 0.8"/>
      </g>
     </g>
    </g>
    <g id="xtick_96">
     <g id="line2d_96">
      <g>
       <use xlink:href="#mfcc76afcaf" x="818.545513" y="595.675" style="stroke: #000000; stroke-width: 0.8"/>
      </g>
     </g>
    </g>
    <g id="xtick_97">
     <g id="line2d_97">
      <g>
       <use xlink:href="#mfcc76afcaf" x="826.433052" y="595.675" style="stroke: #000000; stroke-width: 0.8"/>
      </g>
     </g>
    </g>
    <g id="xtick_98">
     <g id="line2d_98">
      <g>
       <use xlink:href="#mfcc76afcaf" x="834.320591" y="595.675" style="stroke: #000000; stroke-width: 0.8"/>
      </g>
     </g>
    </g>
    <g id="xtick_99">
     <g id="line2d_99">
      <g>
       <use xlink:href="#mfcc76afcaf" x="842.20813" y="595.675" style="stroke: #000000; stroke-width: 0.8"/>
      </g>
     </g>
    </g>
    <g id="xtick_100">
     <g id="line2d_100">
      <g>
       <use xlink:href="#mfcc76afcaf" x="850.095668" y="595.675" style="stroke: #000000; stroke-width: 0.8"/>
      </g>
     </g>
    </g>
   </g>
   <g id="matplotlib.axis_2">
    <g id="ytick_1">
     <g id="line2d_101">
      <defs>
       <path id="md3d799d9b5" d="M 0 0 
L -3.5 0 
" style="stroke: #000000; stroke-width: 0.8"/>
      </defs>
      <g>
       <use xlink:href="#md3d799d9b5" x="65.325" y="503.858075" style="stroke: #000000; stroke-width: 0.8"/>
      </g>
     </g>
     <g id="text_9">
      <!-- 500 -->
      <g transform="translate(31.6025 509.176982) scale(0.14 -0.14)">
       <use xlink:href="#DejaVuSans-35"/>
       <use xlink:href="#DejaVuSans-30" x="63.623047"/>
       <use xlink:href="#DejaVuSans-30" x="127.246094"/>
      </g>
     </g>
    </g>
    <g id="ytick_2">
     <g id="line2d_102">
      <g>
       <use xlink:href="#md3d799d9b5" x="65.325" y="384.345248" style="stroke: #000000; stroke-width: 0.8"/>
      </g>
     </g>
     <g id="text_10">
      <!-- 1000 -->
      <g transform="translate(22.695 389.664154) scale(0.14 -0.14)">
       <use xlink:href="#DejaVuSans-31"/>
       <use xlink:href="#DejaVuSans-30" x="63.623047"/>
       <use xlink:href="#DejaVuSans-30" x="127.246094"/>
       <use xlink:href="#DejaVuSans-30" x="190.869141"/>
      </g>
     </g>
    </g>
    <g id="ytick_3">
     <g id="line2d_103">
      <g>
       <use xlink:href="#md3d799d9b5" x="65.325" y="264.832421" style="stroke: #000000; stroke-width: 0.8"/>
      </g>
     </g>
     <g id="text_11">
      <!-- 1500 -->
      <g transform="translate(22.695 270.151327) scale(0.14 -0.14)">
       <use xlink:href="#DejaVuSans-31"/>
       <use xlink:href="#DejaVuSans-35" x="63.623047"/>
       <use xlink:href="#DejaVuSans-30" x="127.246094"/>
       <use xlink:href="#DejaVuSans-30" x="190.869141"/>
      </g>
     </g>
    </g>
    <g id="ytick_4">
     <g id="line2d_104">
      <g>
       <use xlink:href="#md3d799d9b5" x="65.325" y="145.319594" style="stroke: #000000; stroke-width: 0.8"/>
      </g>
     </g>
     <g id="text_12">
      <!-- 2000 -->
      <g transform="translate(22.695 150.6385) scale(0.14 -0.14)">
       <use xlink:href="#DejaVuSans-32"/>
       <use xlink:href="#DejaVuSans-30" x="63.623047"/>
       <use xlink:href="#DejaVuSans-30" x="127.246094"/>
       <use xlink:href="#DejaVuSans-30" x="190.869141"/>
      </g>
     </g>
    </g>
    <g id="ytick_5">
     <g id="line2d_105">
      <g>
       <use xlink:href="#md3d799d9b5" x="65.325" y="25.806767" style="stroke: #000000; stroke-width: 0.8"/>
      </g>
     </g>
     <g id="text_13">
      <!-- 2500 -->
      <g transform="translate(22.695 31.125673) scale(0.14 -0.14)">
       <use xlink:href="#DejaVuSans-32"/>
       <use xlink:href="#DejaVuSans-35" x="63.623047"/>
       <use xlink:href="#DejaVuSans-30" x="127.246094"/>
       <use xlink:href="#DejaVuSans-30" x="190.869141"/>
      </g>
     </g>
    </g>
    <g id="text_14">
     <!-- Petitions -->
     <g transform="translate(16.615312 324.278906) rotate(-90) scale(0.1 -0.1)">
      <defs>
       <path id="DejaVuSans-50" d="M 1259 4147 
L 1259 2394 
L 2053 2394 
Q 2494 2394 2734 2622 
Q 2975 2850 2975 3272 
Q 2975 3691 2734 3919 
Q 2494 4147 2053 4147 
L 1259 4147 
z
M 628 4666 
L 2053 4666 
Q 2838 4666 3239 4311 
Q 3641 3956 3641 3272 
Q 3641 2581 3239 2228 
Q 2838 1875 2053 1875 
L 1259 1875 
L 1259 0 
L 628 0 
L 628 4666 
z
" transform="scale(0.015625)"/>
       <path id="DejaVuSans-65" d="M 3597 1894 
L 3597 1613 
L 953 1613 
Q 991 1019 1311 708 
Q 1631 397 2203 397 
Q 2534 397 2845 478 
Q 3156 559 3463 722 
L 3463 178 
Q 3153 47 2828 -22 
Q 2503 -91 2169 -91 
Q 1331 -91 842 396 
Q 353 884 353 1716 
Q 353 2575 817 3079 
Q 1281 3584 2069 3584 
Q 2775 3584 3186 3129 
Q 3597 2675 3597 1894 
z
M 3022 2063 
Q 3016 2534 2758 2815 
Q 2500 3097 2075 3097 
Q 1594 3097 1305 2825 
Q 1016 2553 972 2059 
L 3022 2063 
z
" transform="scale(0.015625)"/>
       <path id="DejaVuSans-74" d="M 1172 4494 
L 1172 3500 
L 2356 3500 
L 2356 3053 
L 1172 3053 
L 1172 1153 
Q 1172 725 1289 603 
Q 1406 481 1766 481 
L 2356 481 
L 2356 0 
L 1766 0 
Q 1100 0 847 248 
Q 594 497 594 1153 
L 594 3053 
L 172 3053 
L 172 3500 
L 594 3500 
L 594 4494 
L 1172 4494 
z
" transform="scale(0.015625)"/>
       <path id="DejaVuSans-69" d="M 603 3500 
L 1178 3500 
L 1178 0 
L 603 0 
L 603 3500 
z
M 603 4863 
L 1178 4863 
L 1178 4134 
L 603 4134 
L 603 4863 
z
" transform="scale(0.015625)"/>
       <path id="DejaVuSans-6f" d="M 1959 3097 
Q 1497 3097 1228 2736 
Q 959 2375 959 1747 
Q 959 1119 1226 758 
Q 1494 397 1959 397 
Q 2419 397 2687 759 
Q 2956 1122 2956 1747 
Q 2956 2369 2687 2733 
Q 2419 3097 1959 3097 
z
M 1959 3584 
Q 2709 3584 3137 3096 
Q 3566 2609 3566 1747 
Q 3566 888 3137 398 
Q 2709 -91 1959 -91 
Q 1206 -91 779 398 
Q 353 888 353 1747 
Q 353 2609 779 3096 
Q 1206 3584 1959 3584 
z
" transform="scale(0.015625)"/>
       <path id="DejaVuSans-6e" d="M 3513 2113 
L 3513 0 
L 2938 0 
L 2938 2094 
Q 2938 2591 2744 2837 
Q 2550 3084 2163 3084 
Q 1697 3084 1428 2787 
Q 1159 2491 1159 1978 
L 1159 0 
L 581 0 
L 581 3500 
L 1159 3500 
L 1159 2956 
Q 1366 3272 1645 3428 
Q 1925 3584 2291 3584 
Q 2894 3584 3203 3211 
Q 3513 2838 3513 2113 
z
" transform="scale(0.015625)"/>
       <path id="DejaVuSans-73" d="M 2834 3397 
L 2834 2853 
Q 2591 2978 2328 3040 
Q 2066 3103 1784 3103 
Q 1356 3103 1142 2972 
Q 928 2841 928 2578 
Q 928 2378 1081 2264 
Q 1234 2150 1697 2047 
L 1894 2003 
Q 2506 1872 2764 1633 
Q 3022 1394 3022 966 
Q 3022 478 2636 193 
Q 2250 -91 1575 -91 
Q 1294 -91 989 -36 
Q 684 19 347 128 
L 347 722 
Q 666 556 975 473 
Q 1284 391 1588 391 
Q 1994 391 2212 530 
Q 2431 669 2431 922 
Q 2431 1156 2273 1281 
Q 2116 1406 1581 1522 
L 1381 1569 
Q 847 1681 609 1914 
Q 372 2147 372 2553 
Q 372 3047 722 3315 
Q 1072 3584 1716 3584 
Q 2034 3584 2315 3537 
Q 2597 3491 2834 3397 
z
" transform="scale(0.015625)"/>
      </defs>
      <use xlink:href="#DejaVuSans-50"/>
      <use xlink:href="#DejaVuSans-65" x="56.677734"/>
      <use xlink:href="#DejaVuSans-74" x="118.201172"/>
      <use xlink:href="#DejaVuSans-69" x="157.410156"/>
      <use xlink:href="#DejaVuSans-74" x="185.193359"/>
      <use xlink:href="#DejaVuSans-69" x="224.402344"/>
      <use xlink:href="#DejaVuSans-6f" x="252.185547"/>
      <use xlink:href="#DejaVuSans-6e" x="313.367188"/>
      <use xlink:href="#DejaVuSans-73" x="376.746094"/>
     </g>
    </g>
   </g>
   <g id="line2d_106">
    <path d="M 69.229332 592.775619 
L 77.11687 576.521874 
L 85.004409 564.331566 
L 92.891948 559.551053 
L 100.779487 555.487617 
L 108.667025 545.926591 
L 116.554564 539.472898 
L 124.442103 533.019205 
L 132.329642 526.804538 
L 140.21718 525.370384 
L 148.104719 525.131359 
L 155.992258 522.024025 
L 163.879797 512.94105 
L 171.767335 507.682486 
L 179.654874 503.140998 
L 187.542413 498.838537 
L 195.429952 496.209254 
L 203.31749 487.843357 
L 211.205029 481.389664 
L 219.092568 476.848176 
L 226.980107 473.501817 
L 234.867646 473.262792 
L 242.755184 473.023766 
L 250.642723 467.048125 
L 258.530262 454.618791 
L 266.417801 446.96997 
L 274.305339 442.667508 
L 282.192878 441.233354 
L 290.080417 437.647969 
L 297.967956 431.672328 
L 305.855494 429.282071 
L 313.743033 423.30643 
L 321.630572 418.047865 
L 329.518111 417.569814 
L 337.405649 416.613712 
L 345.293188 413.984429 
L 353.180727 401.555095 
L 361.068266 390.32089 
L 368.955804 386.496479 
L 376.843343 384.345248 
L 384.730882 380.998889 
L 392.618421 377.413504 
L 400.505959 372.632991 
L 408.393498 367.135401 
L 416.281037 365.701247 
L 424.168576 364.98417 
L 432.056114 363.789042 
L 439.943653 359.247554 
L 447.831192 344.188938 
L 455.718731 332.476681 
L 463.606269 322.915655 
L 471.493808 318.852219 
L 479.381347 283.715448 
L 487.268886 266.027549 
L 495.156424 256.944574 
L 503.043963 251.68601 
L 510.931502 250.251856 
L 518.819041 249.295753 
L 526.706579 248.339651 
L 534.594118 241.168881 
L 542.481657 228.261496 
L 550.369196 216.549239 
L 558.256734 209.85652 
L 566.144273 206.271136 
L 574.031812 200.773546 
L 581.919351 191.212519 
L 589.806889 180.217339 
L 597.694428 177.588057 
L 605.581967 175.436826 
L 613.469506 174.719749 
L 621.357044 167.309954 
L 629.244583 158.70503 
L 637.132122 148.665953 
L 645.019661 138.148824 
L 652.907199 131.695131 
L 660.794738 130.260978 
L 668.682277 125.241439 
L 676.569816 115.919438 
L 684.457354 105.880361 
L 692.344893 92.255898 
L 700.232432 89.148565 
L 708.119971 88.670514 
L 716.00751 88.670514 
L 723.895048 88.670514 
L 731.782587 80.06559 
L 739.670126 74.807026 
L 747.557665 67.636256 
L 755.445203 64.050871 
L 763.332742 58.314256 
L 771.220281 52.099589 
L 779.10782 49.709332 
L 786.995358 43.494665 
L 794.882897 42.777588 
L 802.770436 42.777588 
L 810.657975 42.777588 
L 818.545513 35.128767 
L 826.433052 27.718972 
L 834.320591 21.026253 
L 842.20813 15.767689 
L 850.095668 12.899381 
" clip-path="url(#pb8a22fd2a8)" style="fill: none; stroke: #1f77b4; stroke-width: 1.5; stroke-linecap: square"/>
    <defs>
     <path id="mea73944485" d="M 0 3 
C 0.795609 3 1.55874 2.683901 2.12132 2.12132 
C 2.683901 1.55874 3 0.795609 3 0 
C 3 -0.795609 2.683901 -1.55874 2.12132 -2.12132 
C 1.55874 -2.683901 0.795609 -3 0 -3 
C -0.795609 -3 -1.55874 -2.683901 -2.12132 -2.12132 
C -2.683901 -1.55874 -3 -0.795609 -3 0 
C -3 0.795609 -2.683901 1.55874 -2.12132 2.12132 
C -1.55874 2.683901 -0.795609 3 0 3 
z
" style="stroke: #1f77b4"/>
    </defs>
    <g clip-path="url(#pb8a22fd2a8)">
     <use xlink:href="#mea73944485" x="69.229332" y="592.775619" style="fill: #1f77b4; stroke: #1f77b4"/>
     <use xlink:href="#mea73944485" x="77.11687" y="576.521874" style="fill: #1f77b4; stroke: #1f77b4"/>
     <use xlink:href="#mea73944485" x="85.004409" y="564.331566" style="fill: #1f77b4; stroke: #1f77b4"/>
     <use xlink:href="#mea73944485" x="92.891948" y="559.551053" style="fill: #1f77b4; stroke: #1f77b4"/>
     <use xlink:href="#mea73944485" x="100.779487" y="555.487617" style="fill: #1f77b4; stroke: #1f77b4"/>
     <use xlink:href="#mea73944485" x="108.667025" y="545.926591" style="fill: #1f77b4; stroke: #1f77b4"/>
     <use xlink:href="#mea73944485" x="116.554564" y="539.472898" style="fill: #1f77b4; stroke: #1f77b4"/>
     <use xlink:href="#mea73944485" x="124.442103" y="533.019205" style="fill: #1f77b4; stroke: #1f77b4"/>
     <use xlink:href="#mea73944485" x="132.329642" y="526.804538" style="fill: #1f77b4; stroke: #1f77b4"/>
     <use xlink:href="#mea73944485" x="140.21718" y="525.370384" style="fill: #1f77b4; stroke: #1f77b4"/>
     <use xlink:href="#mea73944485" x="148.104719" y="525.131359" style="fill: #1f77b4; stroke: #1f77b4"/>
     <use xlink:href="#mea73944485" x="155.992258" y="522.024025" style="fill: #1f77b4; stroke: #1f77b4"/>
     <use xlink:href="#mea73944485" x="163.879797" y="512.94105" style="fill: #1f77b4; stroke: #1f77b4"/>
     <use xlink:href="#mea73944485" x="171.767335" y="507.682486" style="fill: #1f77b4; stroke: #1f77b4"/>
     <use xlink:href="#mea73944485" x="179.654874" y="503.140998" style="fill: #1f77b4; stroke: #1f77b4"/>
     <use xlink:href="#mea73944485" x="187.542413" y="498.838537" style="fill: #1f77b4; stroke: #1f77b4"/>
     <use xlink:href="#mea73944485" x="195.429952" y="496.209254" style="fill: #1f77b4; stroke: #1f77b4"/>
     <use xlink:href="#mea73944485" x="203.31749" y="487.843357" style="fill: #1f77b4; stroke: #1f77b4"/>
     <use xlink:href="#mea73944485" x="211.205029" y="481.389664" style="fill: #1f77b4; stroke: #1f77b4"/>
     <use xlink:href="#mea73944485" x="219.092568" y="476.848176" style="fill: #1f77b4; stroke: #1f77b4"/>
     <use xlink:href="#mea73944485" x="226.980107" y="473.501817" style="fill: #1f77b4; stroke: #1f77b4"/>
     <use xlink:href="#mea73944485" x="234.867646" y="473.262792" style="fill: #1f77b4; stroke: #1f77b4"/>
     <use xlink:href="#mea73944485" x="242.755184" y="473.023766" style="fill: #1f77b4; stroke: #1f77b4"/>
     <use xlink:href="#mea73944485" x="250.642723" y="467.048125" style="fill: #1f77b4; stroke: #1f77b4"/>
     <use xlink:href="#mea73944485" x="258.530262" y="454.618791" style="fill: #1f77b4; stroke: #1f77b4"/>
     <use xlink:href="#mea73944485" x="266.417801" y="446.96997" style="fill: #1f77b4; stroke: #1f77b4"/>
     <use xlink:href="#mea73944485" x="274.305339" y="442.667508" style="fill: #1f77b4; stroke: #1f77b4"/>
     <use xlink:href="#mea73944485" x="282.192878" y="441.233354" style="fill: #1f77b4; stroke: #1f77b4"/>
     <use xlink:href="#mea73944485" x="290.080417" y="437.647969" style="fill: #1f77b4; stroke: #1f77b4"/>
     <use xlink:href="#mea73944485" x="297.967956" y="431.672328" style="fill: #1f77b4; stroke: #1f77b4"/>
     <use xlink:href="#mea73944485" x="305.855494" y="429.282071" style="fill: #1f77b4; stroke: #1f77b4"/>
     <use xlink:href="#mea73944485" x="313.743033" y="423.30643" style="fill: #1f77b4; stroke: #1f77b4"/>
     <use xlink:href="#mea73944485" x="321.630572" y="418.047865" style="fill: #1f77b4; stroke: #1f77b4"/>
     <use xlink:href="#mea73944485" x="329.518111" y="417.569814" style="fill: #1f77b4; stroke: #1f77b4"/>
     <use xlink:href="#mea73944485" x="337.405649" y="416.613712" style="fill: #1f77b4; stroke: #1f77b4"/>
     <use xlink:href="#mea73944485" x="345.293188" y="413.984429" style="fill: #1f77b4; stroke: #1f77b4"/>
     <use xlink:href="#mea73944485" x="353.180727" y="401.555095" style="fill: #1f77b4; stroke: #1f77b4"/>
     <use xlink:href="#mea73944485" x="361.068266" y="390.32089" style="fill: #1f77b4; stroke: #1f77b4"/>
     <use xlink:href="#mea73944485" x="368.955804" y="386.496479" style="fill: #1f77b4; stroke: #1f77b4"/>
     <use xlink:href="#mea73944485" x="376.843343" y="384.345248" style="fill: #1f77b4; stroke: #1f77b4"/>
     <use xlink:href="#mea73944485" x="384.730882" y="380.998889" style="fill: #1f77b4; stroke: #1f77b4"/>
     <use xlink:href="#mea73944485" x="392.618421" y="377.413504" style="fill: #1f77b4; stroke: #1f77b4"/>
     <use xlink:href="#mea73944485" x="400.505959" y="372.632991" style="fill: #1f77b4; stroke: #1f77b4"/>
     <use xlink:href="#mea73944485" x="408.393498" y="367.135401" style="fill: #1f77b4; stroke: #1f77b4"/>
     <use xlink:href="#mea73944485" x="416.281037" y="365.701247" style="fill: #1f77b4; stroke: #1f77b4"/>
     <use xlink:href="#mea73944485" x="424.168576" y="364.98417" style="fill: #1f77b4; stroke: #1f77b4"/>
     <use xlink:href="#mea73944485" x="432.056114" y="363.789042" style="fill: #1f77b4; stroke: #1f77b4"/>
     <use xlink:href="#mea73944485" x="439.943653" y="359.247554" style="fill: #1f77b4; stroke: #1f77b4"/>
     <use xlink:href="#mea73944485" x="447.831192" y="344.188938" style="fill: #1f77b4; stroke: #1f77b4"/>
     <use xlink:href="#mea73944485" x="455.718731" y="332.476681" style="fill: #1f77b4; stroke: #1f77b4"/>
     <use xlink:href="#mea73944485" x="463.606269" y="322.915655" style="fill: #1f77b4; stroke: #1f77b4"/>
     <use xlink:href="#mea73944485" x="471.493808" y="318.852219" style="fill: #1f77b4; stroke: #1f77b4"/>
     <use xlink:href="#mea73944485" x="479.381347" y="283.715448" style="fill: #1f77b4; stroke: #1f77b4"/>
     <use xlink:href="#mea73944485" x="487.268886" y="266.027549" style="fill: #1f77b4; stroke: #1f77b4"/>
     <use xlink:href="#mea73944485" x="495.156424" y="256.944574" style="fill: #1f77b4; stroke: #1f77b4"/>
     <use xlink:href="#mea73944485" x="503.043963" y="251.68601" style="fill: #1f77b4; stroke: #1f77b4"/>
     <use xlink:href="#mea73944485" x="510.931502" y="250.251856" style="fill: #1f77b4; stroke: #1f77b4"/>
     <use xlink:href="#mea73944485" x="518.819041" y="249.295753" style="fill: #1f77b4; stroke: #1f77b4"/>
     <use xlink:href="#mea73944485" x="526.706579" y="248.339651" style="fill: #1f77b4; stroke: #1f77b4"/>
     <use xlink:href="#mea73944485" x="534.594118" y="241.168881" style="fill: #1f77b4; stroke: #1f77b4"/>
     <use xlink:href="#mea73944485" x="542.481657" y="228.261496" style="fill: #1f77b4; stroke: #1f77b4"/>
     <use xlink:href="#mea73944485" x="550.369196" y="216.549239" style="fill: #1f77b4; stroke: #1f77b4"/>
     <use xlink:href="#mea73944485" x="558.256734" y="209.85652" style="fill: #1f77b4; stroke: #1f77b4"/>
     <use xlink:href="#mea73944485" x="566.144273" y="206.271136" style="fill: #1f77b4; stroke: #1f77b4"/>
     <use xlink:href="#mea73944485" x="574.031812" y="200.773546" style="fill: #1f77b4; stroke: #1f77b4"/>
     <use xlink:href="#mea73944485" x="581.919351" y="191.212519" style="fill: #1f77b4; stroke: #1f77b4"/>
     <use xlink:href="#mea73944485" x="589.806889" y="180.217339" style="fill: #1f77b4; stroke: #1f77b4"/>
     <use xlink:href="#mea73944485" x="597.694428" y="177.588057" style="fill: #1f77b4; stroke: #1f77b4"/>
     <use xlink:href="#mea73944485" x="605.581967" y="175.436826" style="fill: #1f77b4; stroke: #1f77b4"/>
     <use xlink:href="#mea73944485" x="613.469506" y="174.719749" style="fill: #1f77b4; stroke: #1f77b4"/>
     <use xlink:href="#mea73944485" x="621.357044" y="167.309954" style="fill: #1f77b4; stroke: #1f77b4"/>
     <use xlink:href="#mea73944485" x="629.244583" y="158.70503" style="fill: #1f77b4; stroke: #1f77b4"/>
     <use xlink:href="#mea73944485" x="637.132122" y="148.665953" style="fill: #1f77b4; stroke: #1f77b4"/>
     <use xlink:href="#mea73944485" x="645.019661" y="138.148824" style="fill: #1f77b4; stroke: #1f77b4"/>
     <use xlink:href="#mea73944485" x="652.907199" y="131.695131" style="fill: #1f77b4; stroke: #1f77b4"/>
     <use xlink:href="#mea73944485" x="660.794738" y="130.260978" style="fill: #1f77b4; stroke: #1f77b4"/>
     <use xlink:href="#mea73944485" x="668.682277" y="125.241439" style="fill: #1f77b4; stroke: #1f77b4"/>
     <use xlink:href="#mea73944485" x="676.569816" y="115.919438" style="fill: #1f77b4; stroke: #1f77b4"/>
     <use xlink:href="#mea73944485" x="684.457354" y="105.880361" style="fill: #1f77b4; stroke: #1f77b4"/>
     <use xlink:href="#mea73944485" x="692.344893" y="92.255898" style="fill: #1f77b4; stroke: #1f77b4"/>
     <use xlink:href="#mea73944485" x="700.232432" y="89.148565" style="fill: #1f77b4; stroke: #1f77b4"/>
     <use xlink:href="#mea73944485" x="708.119971" y="88.670514" style="fill: #1f77b4; stroke: #1f77b4"/>
     <use xlink:href="#mea73944485" x="716.00751" y="88.670514" style="fill: #1f77b4; stroke: #1f77b4"/>
     <use xlink:href="#mea73944485" x="723.895048" y="88.670514" style="fill: #1f77b4; stroke: #1f77b4"/>
     <use xlink:href="#mea73944485" x="731.782587" y="80.06559" style="fill: #1f77b4; stroke: #1f77b4"/>
     <use xlink:href="#mea73944485" x="739.670126" y="74.807026" style="fill: #1f77b4; stroke: #1f77b4"/>
     <use xlink:href="#mea73944485" x="747.557665" y="67.636256" style="fill: #1f77b4; stroke: #1f77b4"/>
     <use xlink:href="#mea73944485" x="755.445203" y="64.050871" style="fill: #1f77b4; stroke: #1f77b4"/>
     <use xlink:href="#mea73944485" x="763.332742" y="58.314256" style="fill: #1f77b4; stroke: #1f77b4"/>
     <use xlink:href="#mea73944485" x="771.220281" y="52.099589" style="fill: #1f77b4; stroke: #1f77b4"/>
     <use xlink:href="#mea73944485" x="779.10782" y="49.709332" style="fill: #1f77b4; stroke: #1f77b4"/>
     <use xlink:href="#mea73944485" x="786.995358" y="43.494665" style="fill: #1f77b4; stroke: #1f77b4"/>
     <use xlink:href="#mea73944485" x="794.882897" y="42.777588" style="fill: #1f77b4; stroke: #1f77b4"/>
     <use xlink:href="#mea73944485" x="802.770436" y="42.777588" style="fill: #1f77b4; stroke: #1f77b4"/>
     <use xlink:href="#mea73944485" x="810.657975" y="42.777588" style="fill: #1f77b4; stroke: #1f77b4"/>
     <use xlink:href="#mea73944485" x="818.545513" y="35.128767" style="fill: #1f77b4; stroke: #1f77b4"/>
     <use xlink:href="#mea73944485" x="826.433052" y="27.718972" style="fill: #1f77b4; stroke: #1f77b4"/>
     <use xlink:href="#mea73944485" x="834.320591" y="21.026253" style="fill: #1f77b4; stroke: #1f77b4"/>
     <use xlink:href="#mea73944485" x="842.20813" y="15.767689" style="fill: #1f77b4; stroke: #1f77b4"/>
     <use xlink:href="#mea73944485" x="850.095668" y="12.899381" style="fill: #1f77b4; stroke: #1f77b4"/>
    </g>
   </g>
   <g id="patch_3">
    <path d="M 65.325 595.675 
L 65.325 10 
" style="fill: none; stroke: #000000; stroke-width: 0.8; stroke-linejoin: miter; stroke-linecap: square"/>
   </g>
   <g id="patch_4">
    <path d="M 854 595.675 
L 854 10 
" style="fill: none; stroke: #000000; stroke-width: 0.8; stroke-linejoin: miter; stroke-linecap: square"/>
   </g>
   <g id="patch_5">
    <path d="M 65.325 595.675 
L 854 595.675 
" style="fill: none; stroke: #000000; stroke-width: 0.8; stroke-linejoin: miter; stroke-linecap: square"/>
   </g>
   <g id="patch_6">
    <path d="M 65.325 10 
L 854 10 
" style="fill: none; stroke: #000000; stroke-width: 0.8; stroke-linejoin: miter; stroke-linecap: square"/>
   </g>
  </g>
 </g>
 <defs>
  <clipPath id="pb8a22fd2a8">
   <rect x="65.325" y="10" width="788.675" height="585.675"/>
  </clipPath>
 </defs>
</svg>
