<?xml version="1.0" encoding="utf-8" standalone="no"?>
<!DOCTYPE svg PUBLIC "-//W3C//DTD SVG 1.1//EN"
  "http://www.w3.org/Graphics/SVG/1.1/DTD/svg11.dtd">
<svg xmlns:xlink="http://www.w3.org/1999/xlink" width="864pt" height="648pt" viewBox="0 0 864 648" xmlns="http://www.w3.org/2000/svg" version="1.1">
 <metadata>
  <rdf:RDF xmlns:dc="http://purl.org/dc/elements/1.1/" xmlns:cc="http://creativecommons.org/ns#" xmlns:rdf="http://www.w3.org/1999/02/22-rdf-syntax-ns#">
   <cc:Work>
    <dc:type rdf:resource="http://purl.org/dc/dcmitype/StillImage"/>
    <dc:date>2022-11-30T04:57:34.253360</dc:date>
    <dc:format>image/svg+xml</dc:format>
    <dc:creator>
     <cc:Agent>
      <dc:title>Matplotlib v3.6.1, https://matplotlib.org/</dc:title>
     </cc:Agent>
    </dc:creator>
   </cc:Work>
  </rdf:RDF>
 </metadata>
 <defs>
  <style type="text/css">*{stroke-linejoin: round; stroke-linecap: butt}</style>
 </defs>
 <g id="figure_1">
  <g id="patch_1">
   <path d="M 0 648 
L 864 648 
L 864 0 
L 0 0 
z
" style="fill: #ffffff"/>
  </g>
  <g id="axes_1">
   <g id="patch_2">
    <path d="M 82.875 595.675 
L 854 595.675 
L 854 10 
L 82.875 10 
z
" style="fill: #ffffff"/>
   </g>
   <g id="matplotlib.axis_1">
    <g id="xtick_1">
     <g id="line2d_1">
      <defs>
       <path id="m5625d416f8" d="M 0 0 
L 0 3.5 
" style="stroke: #000000; stroke-width: 0.8"/>
      </defs>
      <g>
       <use xlink:href="#m5625d416f8" x="86.69245" y="595.675" style="stroke: #000000; stroke-width: 0.8"/>
      </g>
     </g>
    </g>
    <g id="xtick_2">
     <g id="line2d_2">
      <g>
       <use xlink:href="#m5625d416f8" x="94.483166" y="595.675" style="stroke: #000000; stroke-width: 0.8"/>
      </g>
     </g>
    </g>
    <g id="xtick_3">
     <g id="line2d_3">
      <g>
       <use xlink:href="#m5625d416f8" x="102.273881" y="595.675" style="stroke: #000000; stroke-width: 0.8"/>
      </g>
     </g>
    </g>
    <g id="xtick_4">
     <g id="line2d_4">
      <g>
       <use xlink:href="#m5625d416f8" x="110.064596" y="595.675" style="stroke: #000000; stroke-width: 0.8"/>
      </g>
     </g>
    </g>
    <g id="xtick_5">
     <g id="line2d_5">
      <g>
       <use xlink:href="#m5625d416f8" x="117.855312" y="595.675" style="stroke: #000000; stroke-width: 0.8"/>
      </g>
     </g>
     <g id="text_1">
      <!-- 2015 -->
      <g transform="translate(121.718437 638.305) rotate(-90) scale(0.14 -0.14)">
       <defs>
        <path id="DejaVuSans-32" d="M 1228 531 
L 3431 531 
L 3431 0 
L 469 0 
L 469 531 
Q 828 903 1448 1529 
Q 2069 2156 2228 2338 
Q 2531 2678 2651 2914 
Q 2772 3150 2772 3378 
Q 2772 3750 2511 3984 
Q 2250 4219 1831 4219 
Q 1534 4219 1204 4116 
Q 875 4013 500 3803 
L 500 4441 
Q 881 4594 1212 4672 
Q 1544 4750 1819 4750 
Q 2544 4750 2975 4387 
Q 3406 4025 3406 3419 
Q 3406 3131 3298 2873 
Q 3191 2616 2906 2266 
Q 2828 2175 2409 1742 
Q 1991 1309 1228 531 
z
" transform="scale(0.015625)"/>
        <path id="DejaVuSans-30" d="M 2034 4250 
Q 1547 4250 1301 3770 
Q 1056 3291 1056 2328 
Q 1056 1369 1301 889 
Q 1547 409 2034 409 
Q 2525 409 2770 889 
Q 3016 1369 3016 2328 
Q 3016 3291 2770 3770 
Q 2525 4250 2034 4250 
z
M 2034 4750 
Q 2819 4750 3233 4129 
Q 3647 3509 3647 2328 
Q 3647 1150 3233 529 
Q 2819 -91 2034 -91 
Q 1250 -91 836 529 
Q 422 1150 422 2328 
Q 422 3509 836 4129 
Q 1250 4750 2034 4750 
z
" transform="scale(0.015625)"/>
        <path id="DejaVuSans-31" d="M 794 531 
L 1825 531 
L 1825 4091 
L 703 3866 
L 703 4441 
L 1819 4666 
L 2450 4666 
L 2450 531 
L 3481 531 
L 3481 0 
L 794 0 
L 794 531 
z
" transform="scale(0.015625)"/>
        <path id="DejaVuSans-35" d="M 691 4666 
L 3169 4666 
L 3169 4134 
L 1269 4134 
L 1269 2991 
Q 1406 3038 1543 3061 
Q 1681 3084 1819 3084 
Q 2600 3084 3056 2656 
Q 3513 2228 3513 1497 
Q 3513 744 3044 326 
Q 2575 -91 1722 -91 
Q 1428 -91 1123 -41 
Q 819 9 494 109 
L 494 744 
Q 775 591 1075 516 
Q 1375 441 1709 441 
Q 2250 441 2565 725 
Q 2881 1009 2881 1497 
Q 2881 1984 2565 2268 
Q 2250 2553 1709 2553 
Q 1456 2553 1204 2497 
Q 953 2441 691 2322 
L 691 4666 
z
" transform="scale(0.015625)"/>
       </defs>
       <use xlink:href="#DejaVuSans-32"/>
       <use xlink:href="#DejaVuSans-30" x="63.623047"/>
       <use xlink:href="#DejaVuSans-31" x="127.246094"/>
       <use xlink:href="#DejaVuSans-35" x="190.869141"/>
      </g>
     </g>
    </g>
    <g id="xtick_6">
     <g id="line2d_6">
      <g>
       <use xlink:href="#m5625d416f8" x="125.646027" y="595.675" style="stroke: #000000; stroke-width: 0.8"/>
      </g>
     </g>
    </g>
    <g id="xtick_7">
     <g id="line2d_7">
      <g>
       <use xlink:href="#m5625d416f8" x="133.436742" y="595.675" style="stroke: #000000; stroke-width: 0.8"/>
      </g>
     </g>
    </g>
    <g id="xtick_8">
     <g id="line2d_8">
      <g>
       <use xlink:href="#m5625d416f8" x="141.227458" y="595.675" style="stroke: #000000; stroke-width: 0.8"/>
      </g>
     </g>
    </g>
    <g id="xtick_9">
     <g id="line2d_9">
      <g>
       <use xlink:href="#m5625d416f8" x="149.018173" y="595.675" style="stroke: #000000; stroke-width: 0.8"/>
      </g>
     </g>
    </g>
    <g id="xtick_10">
     <g id="line2d_10">
      <g>
       <use xlink:href="#m5625d416f8" x="156.808888" y="595.675" style="stroke: #000000; stroke-width: 0.8"/>
      </g>
     </g>
    </g>
    <g id="xtick_11">
     <g id="line2d_11">
      <g>
       <use xlink:href="#m5625d416f8" x="164.599603" y="595.675" style="stroke: #000000; stroke-width: 0.8"/>
      </g>
     </g>
    </g>
    <g id="xtick_12">
     <g id="line2d_12">
      <g>
       <use xlink:href="#m5625d416f8" x="172.390319" y="595.675" style="stroke: #000000; stroke-width: 0.8"/>
      </g>
     </g>
    </g>
    <g id="xtick_13">
     <g id="line2d_13">
      <g>
       <use xlink:href="#m5625d416f8" x="180.181034" y="595.675" style="stroke: #000000; stroke-width: 0.8"/>
      </g>
     </g>
    </g>
    <g id="xtick_14">
     <g id="line2d_14">
      <g>
       <use xlink:href="#m5625d416f8" x="187.971749" y="595.675" style="stroke: #000000; stroke-width: 0.8"/>
      </g>
     </g>
    </g>
    <g id="xtick_15">
     <g id="line2d_15">
      <g>
       <use xlink:href="#m5625d416f8" x="195.762465" y="595.675" style="stroke: #000000; stroke-width: 0.8"/>
      </g>
     </g>
    </g>
    <g id="xtick_16">
     <g id="line2d_16">
      <g>
       <use xlink:href="#m5625d416f8" x="203.55318" y="595.675" style="stroke: #000000; stroke-width: 0.8"/>
      </g>
     </g>
    </g>
    <g id="xtick_17">
     <g id="line2d_17">
      <g>
       <use xlink:href="#m5625d416f8" x="211.343895" y="595.675" style="stroke: #000000; stroke-width: 0.8"/>
      </g>
     </g>
     <g id="text_2">
      <!-- 2016 -->
      <g transform="translate(215.20702 638.305) rotate(-90) scale(0.14 -0.14)">
       <defs>
        <path id="DejaVuSans-36" d="M 2113 2584 
Q 1688 2584 1439 2293 
Q 1191 2003 1191 1497 
Q 1191 994 1439 701 
Q 1688 409 2113 409 
Q 2538 409 2786 701 
Q 3034 994 3034 1497 
Q 3034 2003 2786 2293 
Q 2538 2584 2113 2584 
z
M 3366 4563 
L 3366 3988 
Q 3128 4100 2886 4159 
Q 2644 4219 2406 4219 
Q 1781 4219 1451 3797 
Q 1122 3375 1075 2522 
Q 1259 2794 1537 2939 
Q 1816 3084 2150 3084 
Q 2853 3084 3261 2657 
Q 3669 2231 3669 1497 
Q 3669 778 3244 343 
Q 2819 -91 2113 -91 
Q 1303 -91 875 529 
Q 447 1150 447 2328 
Q 447 3434 972 4092 
Q 1497 4750 2381 4750 
Q 2619 4750 2861 4703 
Q 3103 4656 3366 4563 
z
" transform="scale(0.015625)"/>
       </defs>
       <use xlink:href="#DejaVuSans-32"/>
       <use xlink:href="#DejaVuSans-30" x="63.623047"/>
       <use xlink:href="#DejaVuSans-31" x="127.246094"/>
       <use xlink:href="#DejaVuSans-36" x="190.869141"/>
      </g>
     </g>
    </g>
    <g id="xtick_18">
     <g id="line2d_18">
      <g>
       <use xlink:href="#m5625d416f8" x="219.134611" y="595.675" style="stroke: #000000; stroke-width: 0.8"/>
      </g>
     </g>
    </g>
    <g id="xtick_19">
     <g id="line2d_19">
      <g>
       <use xlink:href="#m5625d416f8" x="226.925326" y="595.675" style="stroke: #000000; stroke-width: 0.8"/>
      </g>
     </g>
    </g>
    <g id="xtick_20">
     <g id="line2d_20">
      <g>
       <use xlink:href="#m5625d416f8" x="234.716041" y="595.675" style="stroke: #000000; stroke-width: 0.8"/>
      </g>
     </g>
    </g>
    <g id="xtick_21">
     <g id="line2d_21">
      <g>
       <use xlink:href="#m5625d416f8" x="242.506756" y="595.675" style="stroke: #000000; stroke-width: 0.8"/>
      </g>
     </g>
    </g>
    <g id="xtick_22">
     <g id="line2d_22">
      <g>
       <use xlink:href="#m5625d416f8" x="250.297472" y="595.675" style="stroke: #000000; stroke-width: 0.8"/>
      </g>
     </g>
    </g>
    <g id="xtick_23">
     <g id="line2d_23">
      <g>
       <use xlink:href="#m5625d416f8" x="258.088187" y="595.675" style="stroke: #000000; stroke-width: 0.8"/>
      </g>
     </g>
    </g>
    <g id="xtick_24">
     <g id="line2d_24">
      <g>
       <use xlink:href="#m5625d416f8" x="265.878902" y="595.675" style="stroke: #000000; stroke-width: 0.8"/>
      </g>
     </g>
    </g>
    <g id="xtick_25">
     <g id="line2d_25">
      <g>
       <use xlink:href="#m5625d416f8" x="273.669618" y="595.675" style="stroke: #000000; stroke-width: 0.8"/>
      </g>
     </g>
    </g>
    <g id="xtick_26">
     <g id="line2d_26">
      <g>
       <use xlink:href="#m5625d416f8" x="281.460333" y="595.675" style="stroke: #000000; stroke-width: 0.8"/>
      </g>
     </g>
    </g>
    <g id="xtick_27">
     <g id="line2d_27">
      <g>
       <use xlink:href="#m5625d416f8" x="289.251048" y="595.675" style="stroke: #000000; stroke-width: 0.8"/>
      </g>
     </g>
    </g>
    <g id="xtick_28">
     <g id="line2d_28">
      <g>
       <use xlink:href="#m5625d416f8" x="297.041763" y="595.675" style="stroke: #000000; stroke-width: 0.8"/>
      </g>
     </g>
    </g>
    <g id="xtick_29">
     <g id="line2d_29">
      <g>
       <use xlink:href="#m5625d416f8" x="304.832479" y="595.675" style="stroke: #000000; stroke-width: 0.8"/>
      </g>
     </g>
     <g id="text_3">
      <!-- 2017 -->
      <g transform="translate(308.695604 638.305) rotate(-90) scale(0.14 -0.14)">
       <defs>
        <path id="DejaVuSans-37" d="M 525 4666 
L 3525 4666 
L 3525 4397 
L 1831 0 
L 1172 0 
L 2766 4134 
L 525 4134 
L 525 4666 
z
" transform="scale(0.015625)"/>
       </defs>
       <use xlink:href="#DejaVuSans-32"/>
       <use xlink:href="#DejaVuSans-30" x="63.623047"/>
       <use xlink:href="#DejaVuSans-31" x="127.246094"/>
       <use xlink:href="#DejaVuSans-37" x="190.869141"/>
      </g>
     </g>
    </g>
    <g id="xtick_30">
     <g id="line2d_30">
      <g>
       <use xlink:href="#m5625d416f8" x="312.623194" y="595.675" style="stroke: #000000; stroke-width: 0.8"/>
      </g>
     </g>
    </g>
    <g id="xtick_31">
     <g id="line2d_31">
      <g>
       <use xlink:href="#m5625d416f8" x="320.413909" y="595.675" style="stroke: #000000; stroke-width: 0.8"/>
      </g>
     </g>
    </g>
    <g id="xtick_32">
     <g id="line2d_32">
      <g>
       <use xlink:href="#m5625d416f8" x="328.204625" y="595.675" style="stroke: #000000; stroke-width: 0.8"/>
      </g>
     </g>
    </g>
    <g id="xtick_33">
     <g id="line2d_33">
      <g>
       <use xlink:href="#m5625d416f8" x="335.99534" y="595.675" style="stroke: #000000; stroke-width: 0.8"/>
      </g>
     </g>
    </g>
    <g id="xtick_34">
     <g id="line2d_34">
      <g>
       <use xlink:href="#m5625d416f8" x="343.786055" y="595.675" style="stroke: #000000; stroke-width: 0.8"/>
      </g>
     </g>
    </g>
    <g id="xtick_35">
     <g id="line2d_35">
      <g>
       <use xlink:href="#m5625d416f8" x="351.576771" y="595.675" style="stroke: #000000; stroke-width: 0.8"/>
      </g>
     </g>
    </g>
    <g id="xtick_36">
     <g id="line2d_36">
      <g>
       <use xlink:href="#m5625d416f8" x="359.367486" y="595.675" style="stroke: #000000; stroke-width: 0.8"/>
      </g>
     </g>
    </g>
    <g id="xtick_37">
     <g id="line2d_37">
      <g>
       <use xlink:href="#m5625d416f8" x="367.158201" y="595.675" style="stroke: #000000; stroke-width: 0.8"/>
      </g>
     </g>
    </g>
    <g id="xtick_38">
     <g id="line2d_38">
      <g>
       <use xlink:href="#m5625d416f8" x="374.948916" y="595.675" style="stroke: #000000; stroke-width: 0.8"/>
      </g>
     </g>
    </g>
    <g id="xtick_39">
     <g id="line2d_39">
      <g>
       <use xlink:href="#m5625d416f8" x="382.739632" y="595.675" style="stroke: #000000; stroke-width: 0.8"/>
      </g>
     </g>
    </g>
    <g id="xtick_40">
     <g id="line2d_40">
      <g>
       <use xlink:href="#m5625d416f8" x="390.530347" y="595.675" style="stroke: #000000; stroke-width: 0.8"/>
      </g>
     </g>
    </g>
    <g id="xtick_41">
     <g id="line2d_41">
      <g>
       <use xlink:href="#m5625d416f8" x="398.321062" y="595.675" style="stroke: #000000; stroke-width: 0.8"/>
      </g>
     </g>
     <g id="text_4">
      <!-- 2018 -->
      <g transform="translate(402.184187 638.305) rotate(-90) scale(0.14 -0.14)">
       <defs>
        <path id="DejaVuSans-38" d="M 2034 2216 
Q 1584 2216 1326 1975 
Q 1069 1734 1069 1313 
Q 1069 891 1326 650 
Q 1584 409 2034 409 
Q 2484 409 2743 651 
Q 3003 894 3003 1313 
Q 3003 1734 2745 1975 
Q 2488 2216 2034 2216 
z
M 1403 2484 
Q 997 2584 770 2862 
Q 544 3141 544 3541 
Q 544 4100 942 4425 
Q 1341 4750 2034 4750 
Q 2731 4750 3128 4425 
Q 3525 4100 3525 3541 
Q 3525 3141 3298 2862 
Q 3072 2584 2669 2484 
Q 3125 2378 3379 2068 
Q 3634 1759 3634 1313 
Q 3634 634 3220 271 
Q 2806 -91 2034 -91 
Q 1263 -91 848 271 
Q 434 634 434 1313 
Q 434 1759 690 2068 
Q 947 2378 1403 2484 
z
M 1172 3481 
Q 1172 3119 1398 2916 
Q 1625 2713 2034 2713 
Q 2441 2713 2670 2916 
Q 2900 3119 2900 3481 
Q 2900 3844 2670 4047 
Q 2441 4250 2034 4250 
Q 1625 4250 1398 4047 
Q 1172 3844 1172 3481 
z
" transform="scale(0.015625)"/>
       </defs>
       <use xlink:href="#DejaVuSans-32"/>
       <use xlink:href="#DejaVuSans-30" x="63.623047"/>
       <use xlink:href="#DejaVuSans-31" x="127.246094"/>
       <use xlink:href="#DejaVuSans-38" x="190.869141"/>
      </g>
     </g>
    </g>
    <g id="xtick_42">
     <g id="line2d_42">
      <g>
       <use xlink:href="#m5625d416f8" x="406.111778" y="595.675" style="stroke: #000000; stroke-width: 0.8"/>
      </g>
     </g>
    </g>
    <g id="xtick_43">
     <g id="line2d_43">
      <g>
       <use xlink:href="#m5625d416f8" x="413.902493" y="595.675" style="stroke: #000000; stroke-width: 0.8"/>
      </g>
     </g>
    </g>
    <g id="xtick_44">
     <g id="line2d_44">
      <g>
       <use xlink:href="#m5625d416f8" x="421.693208" y="595.675" style="stroke: #000000; stroke-width: 0.8"/>
      </g>
     </g>
    </g>
    <g id="xtick_45">
     <g id="line2d_45">
      <g>
       <use xlink:href="#m5625d416f8" x="429.483924" y="595.675" style="stroke: #000000; stroke-width: 0.8"/>
      </g>
     </g>
    </g>
    <g id="xtick_46">
     <g id="line2d_46">
      <g>
       <use xlink:href="#m5625d416f8" x="437.274639" y="595.675" style="stroke: #000000; stroke-width: 0.8"/>
      </g>
     </g>
    </g>
    <g id="xtick_47">
     <g id="line2d_47">
      <g>
       <use xlink:href="#m5625d416f8" x="445.065354" y="595.675" style="stroke: #000000; stroke-width: 0.8"/>
      </g>
     </g>
    </g>
    <g id="xtick_48">
     <g id="line2d_48">
      <g>
       <use xlink:href="#m5625d416f8" x="452.856069" y="595.675" style="stroke: #000000; stroke-width: 0.8"/>
      </g>
     </g>
    </g>
    <g id="xtick_49">
     <g id="line2d_49">
      <g>
       <use xlink:href="#m5625d416f8" x="460.646785" y="595.675" style="stroke: #000000; stroke-width: 0.8"/>
      </g>
     </g>
    </g>
    <g id="xtick_50">
     <g id="line2d_50">
      <g>
       <use xlink:href="#m5625d416f8" x="468.4375" y="595.675" style="stroke: #000000; stroke-width: 0.8"/>
      </g>
     </g>
    </g>
    <g id="xtick_51">
     <g id="line2d_51">
      <g>
       <use xlink:href="#m5625d416f8" x="476.228215" y="595.675" style="stroke: #000000; stroke-width: 0.8"/>
      </g>
     </g>
    </g>
    <g id="xtick_52">
     <g id="line2d_52">
      <g>
       <use xlink:href="#m5625d416f8" x="484.018931" y="595.675" style="stroke: #000000; stroke-width: 0.8"/>
      </g>
     </g>
    </g>
    <g id="xtick_53">
     <g id="line2d_53">
      <g>
       <use xlink:href="#m5625d416f8" x="491.809646" y="595.675" style="stroke: #000000; stroke-width: 0.8"/>
      </g>
     </g>
     <g id="text_5">
      <!-- 2019 -->
      <g transform="translate(495.672771 638.305) rotate(-90) scale(0.14 -0.14)">
       <defs>
        <path id="DejaVuSans-39" d="M 703 97 
L 703 672 
Q 941 559 1184 500 
Q 1428 441 1663 441 
Q 2288 441 2617 861 
Q 2947 1281 2994 2138 
Q 2813 1869 2534 1725 
Q 2256 1581 1919 1581 
Q 1219 1581 811 2004 
Q 403 2428 403 3163 
Q 403 3881 828 4315 
Q 1253 4750 1959 4750 
Q 2769 4750 3195 4129 
Q 3622 3509 3622 2328 
Q 3622 1225 3098 567 
Q 2575 -91 1691 -91 
Q 1453 -91 1209 -44 
Q 966 3 703 97 
z
M 1959 2075 
Q 2384 2075 2632 2365 
Q 2881 2656 2881 3163 
Q 2881 3666 2632 3958 
Q 2384 4250 1959 4250 
Q 1534 4250 1286 3958 
Q 1038 3666 1038 3163 
Q 1038 2656 1286 2365 
Q 1534 2075 1959 2075 
z
" transform="scale(0.015625)"/>
       </defs>
       <use xlink:href="#DejaVuSans-32"/>
       <use xlink:href="#DejaVuSans-30" x="63.623047"/>
       <use xlink:href="#DejaVuSans-31" x="127.246094"/>
       <use xlink:href="#DejaVuSans-39" x="190.869141"/>
      </g>
     </g>
    </g>
    <g id="xtick_54">
     <g id="line2d_54">
      <g>
       <use xlink:href="#m5625d416f8" x="499.600361" y="595.675" style="stroke: #000000; stroke-width: 0.8"/>
      </g>
     </g>
    </g>
    <g id="xtick_55">
     <g id="line2d_55">
      <g>
       <use xlink:href="#m5625d416f8" x="507.391076" y="595.675" style="stroke: #000000; stroke-width: 0.8"/>
      </g>
     </g>
    </g>
    <g id="xtick_56">
     <g id="line2d_56">
      <g>
       <use xlink:href="#m5625d416f8" x="515.181792" y="595.675" style="stroke: #000000; stroke-width: 0.8"/>
      </g>
     </g>
    </g>
    <g id="xtick_57">
     <g id="line2d_57">
      <g>
       <use xlink:href="#m5625d416f8" x="522.972507" y="595.675" style="stroke: #000000; stroke-width: 0.8"/>
      </g>
     </g>
    </g>
    <g id="xtick_58">
     <g id="line2d_58">
      <g>
       <use xlink:href="#m5625d416f8" x="530.763222" y="595.675" style="stroke: #000000; stroke-width: 0.8"/>
      </g>
     </g>
    </g>
    <g id="xtick_59">
     <g id="line2d_59">
      <g>
       <use xlink:href="#m5625d416f8" x="538.553938" y="595.675" style="stroke: #000000; stroke-width: 0.8"/>
      </g>
     </g>
    </g>
    <g id="xtick_60">
     <g id="line2d_60">
      <g>
       <use xlink:href="#m5625d416f8" x="546.344653" y="595.675" style="stroke: #000000; stroke-width: 0.8"/>
      </g>
     </g>
    </g>
    <g id="xtick_61">
     <g id="line2d_61">
      <g>
       <use xlink:href="#m5625d416f8" x="554.135368" y="595.675" style="stroke: #000000; stroke-width: 0.8"/>
      </g>
     </g>
    </g>
    <g id="xtick_62">
     <g id="line2d_62">
      <g>
       <use xlink:href="#m5625d416f8" x="561.926084" y="595.675" style="stroke: #000000; stroke-width: 0.8"/>
      </g>
     </g>
    </g>
    <g id="xtick_63">
     <g id="line2d_63">
      <g>
       <use xlink:href="#m5625d416f8" x="569.716799" y="595.675" style="stroke: #000000; stroke-width: 0.8"/>
      </g>
     </g>
    </g>
    <g id="xtick_64">
     <g id="line2d_64">
      <g>
       <use xlink:href="#m5625d416f8" x="577.507514" y="595.675" style="stroke: #000000; stroke-width: 0.8"/>
      </g>
     </g>
    </g>
    <g id="xtick_65">
     <g id="line2d_65">
      <g>
       <use xlink:href="#m5625d416f8" x="585.298229" y="595.675" style="stroke: #000000; stroke-width: 0.8"/>
      </g>
     </g>
     <g id="text_6">
      <!-- 2020 -->
      <g transform="translate(589.161354 638.305) rotate(-90) scale(0.14 -0.14)">
       <use xlink:href="#DejaVuSans-32"/>
       <use xlink:href="#DejaVuSans-30" x="63.623047"/>
       <use xlink:href="#DejaVuSans-32" x="127.246094"/>
       <use xlink:href="#DejaVuSans-30" x="190.869141"/>
      </g>
     </g>
    </g>
    <g id="xtick_66">
     <g id="line2d_66">
      <g>
       <use xlink:href="#m5625d416f8" x="593.088945" y="595.675" style="stroke: #000000; stroke-width: 0.8"/>
      </g>
     </g>
    </g>
    <g id="xtick_67">
     <g id="line2d_67">
      <g>
       <use xlink:href="#m5625d416f8" x="600.87966" y="595.675" style="stroke: #000000; stroke-width: 0.8"/>
      </g>
     </g>
    </g>
    <g id="xtick_68">
     <g id="line2d_68">
      <g>
       <use xlink:href="#m5625d416f8" x="608.670375" y="595.675" style="stroke: #000000; stroke-width: 0.8"/>
      </g>
     </g>
    </g>
    <g id="xtick_69">
     <g id="line2d_69">
      <g>
       <use xlink:href="#m5625d416f8" x="616.461091" y="595.675" style="stroke: #000000; stroke-width: 0.8"/>
      </g>
     </g>
    </g>
    <g id="xtick_70">
     <g id="line2d_70">
      <g>
       <use xlink:href="#m5625d416f8" x="624.251806" y="595.675" style="stroke: #000000; stroke-width: 0.8"/>
      </g>
     </g>
    </g>
    <g id="xtick_71">
     <g id="line2d_71">
      <g>
       <use xlink:href="#m5625d416f8" x="632.042521" y="595.675" style="stroke: #000000; stroke-width: 0.8"/>
      </g>
     </g>
    </g>
    <g id="xtick_72">
     <g id="line2d_72">
      <g>
       <use xlink:href="#m5625d416f8" x="639.833237" y="595.675" style="stroke: #000000; stroke-width: 0.8"/>
      </g>
     </g>
    </g>
    <g id="xtick_73">
     <g id="line2d_73">
      <g>
       <use xlink:href="#m5625d416f8" x="647.623952" y="595.675" style="stroke: #000000; stroke-width: 0.8"/>
      </g>
     </g>
    </g>
    <g id="xtick_74">
     <g id="line2d_74">
      <g>
       <use xlink:href="#m5625d416f8" x="655.414667" y="595.675" style="stroke: #000000; stroke-width: 0.8"/>
      </g>
     </g>
    </g>
    <g id="xtick_75">
     <g id="line2d_75">
      <g>
       <use xlink:href="#m5625d416f8" x="663.205382" y="595.675" style="stroke: #000000; stroke-width: 0.8"/>
      </g>
     </g>
    </g>
    <g id="xtick_76">
     <g id="line2d_76">
      <g>
       <use xlink:href="#m5625d416f8" x="670.996098" y="595.675" style="stroke: #000000; stroke-width: 0.8"/>
      </g>
     </g>
    </g>
    <g id="xtick_77">
     <g id="line2d_77">
      <g>
       <use xlink:href="#m5625d416f8" x="678.786813" y="595.675" style="stroke: #000000; stroke-width: 0.8"/>
      </g>
     </g>
     <g id="text_7">
      <!-- 2021 -->
      <g transform="translate(682.649938 638.305) rotate(-90) scale(0.14 -0.14)">
       <use xlink:href="#DejaVuSans-32"/>
       <use xlink:href="#DejaVuSans-30" x="63.623047"/>
       <use xlink:href="#DejaVuSans-32" x="127.246094"/>
       <use xlink:href="#DejaVuSans-31" x="190.869141"/>
      </g>
     </g>
    </g>
    <g id="xtick_78">
     <g id="line2d_78">
      <g>
       <use xlink:href="#m5625d416f8" x="686.577528" y="595.675" style="stroke: #000000; stroke-width: 0.8"/>
      </g>
     </g>
    </g>
    <g id="xtick_79">
     <g id="line2d_79">
      <g>
       <use xlink:href="#m5625d416f8" x="694.368244" y="595.675" style="stroke: #000000; stroke-width: 0.8"/>
      </g>
     </g>
    </g>
    <g id="xtick_80">
     <g id="line2d_80">
      <g>
       <use xlink:href="#m5625d416f8" x="702.158959" y="595.675" style="stroke: #000000; stroke-width: 0.8"/>
      </g>
     </g>
    </g>
    <g id="xtick_81">
     <g id="line2d_81">
      <g>
       <use xlink:href="#m5625d416f8" x="709.949674" y="595.675" style="stroke: #000000; stroke-width: 0.8"/>
      </g>
     </g>
    </g>
    <g id="xtick_82">
     <g id="line2d_82">
      <g>
       <use xlink:href="#m5625d416f8" x="717.740389" y="595.675" style="stroke: #000000; stroke-width: 0.8"/>
      </g>
     </g>
    </g>
    <g id="xtick_83">
     <g id="line2d_83">
      <g>
       <use xlink:href="#m5625d416f8" x="725.531105" y="595.675" style="stroke: #000000; stroke-width: 0.8"/>
      </g>
     </g>
    </g>
    <g id="xtick_84">
     <g id="line2d_84">
      <g>
       <use xlink:href="#m5625d416f8" x="733.32182" y="595.675" style="stroke: #000000; stroke-width: 0.8"/>
      </g>
     </g>
    </g>
    <g id="xtick_85">
     <g id="line2d_85">
      <g>
       <use xlink:href="#m5625d416f8" x="741.112535" y="595.675" style="stroke: #000000; stroke-width: 0.8"/>
      </g>
     </g>
    </g>
    <g id="xtick_86">
     <g id="line2d_86">
      <g>
       <use xlink:href="#m5625d416f8" x="748.903251" y="595.675" style="stroke: #000000; stroke-width: 0.8"/>
      </g>
     </g>
    </g>
    <g id="xtick_87">
     <g id="line2d_87">
      <g>
       <use xlink:href="#m5625d416f8" x="756.693966" y="595.675" style="stroke: #000000; stroke-width: 0.8"/>
      </g>
     </g>
    </g>
    <g id="xtick_88">
     <g id="line2d_88">
      <g>
       <use xlink:href="#m5625d416f8" x="764.484681" y="595.675" style="stroke: #000000; stroke-width: 0.8"/>
      </g>
     </g>
    </g>
    <g id="xtick_89">
     <g id="line2d_89">
      <g>
       <use xlink:href="#m5625d416f8" x="772.275397" y="595.675" style="stroke: #000000; stroke-width: 0.8"/>
      </g>
     </g>
     <g id="text_8">
      <!-- 2022 -->
      <g transform="translate(776.138522 638.305) rotate(-90) scale(0.14 -0.14)">
       <use xlink:href="#DejaVuSans-32"/>
       <use xlink:href="#DejaVuSans-30" x="63.623047"/>
       <use xlink:href="#DejaVuSans-32" x="127.246094"/>
       <use xlink:href="#DejaVuSans-32" x="190.869141"/>
      </g>
     </g>
    </g>
    <g id="xtick_90">
     <g id="line2d_90">
      <g>
       <use xlink:href="#m5625d416f8" x="780.066112" y="595.675" style="stroke: #000000; stroke-width: 0.8"/>
      </g>
     </g>
    </g>
    <g id="xtick_91">
     <g id="line2d_91">
      <g>
       <use xlink:href="#m5625d416f8" x="787.856827" y="595.675" style="stroke: #000000; stroke-width: 0.8"/>
      </g>
     </g>
    </g>
    <g id="xtick_92">
     <g id="line2d_92">
      <g>
       <use xlink:href="#m5625d416f8" x="795.647542" y="595.675" style="stroke: #000000; stroke-width: 0.8"/>
      </g>
     </g>
    </g>
    <g id="xtick_93">
     <g id="line2d_93">
      <g>
       <use xlink:href="#m5625d416f8" x="803.438258" y="595.675" style="stroke: #000000; stroke-width: 0.8"/>
      </g>
     </g>
    </g>
    <g id="xtick_94">
     <g id="line2d_94">
      <g>
       <use xlink:href="#m5625d416f8" x="811.228973" y="595.675" style="stroke: #000000; stroke-width: 0.8"/>
      </g>
     </g>
    </g>
    <g id="xtick_95">
     <g id="line2d_95">
      <g>
       <use xlink:href="#m5625d416f8" x="819.019688" y="595.675" style="stroke: #000000; stroke-width: 0.8"/>
      </g>
     </g>
    </g>
    <g id="xtick_96">
     <g id="line2d_96">
      <g>
       <use xlink:href="#m5625d416f8" x="826.810404" y="595.675" style="stroke: #000000; stroke-width: 0.8"/>
      </g>
     </g>
    </g>
    <g id="xtick_97">
     <g id="line2d_97">
      <g>
       <use xlink:href="#m5625d416f8" x="834.601119" y="595.675" style="stroke: #000000; stroke-width: 0.8"/>
      </g>
     </g>
    </g>
    <g id="xtick_98">
     <g id="line2d_98">
      <g>
       <use xlink:href="#m5625d416f8" x="842.391834" y="595.675" style="stroke: #000000; stroke-width: 0.8"/>
      </g>
     </g>
    </g>
    <g id="xtick_99">
     <g id="line2d_99">
      <g>
       <use xlink:href="#m5625d416f8" x="850.18255" y="595.675" style="stroke: #000000; stroke-width: 0.8"/>
      </g>
     </g>
    </g>
   </g>
   <g id="matplotlib.axis_2">
    <g id="ytick_1">
     <g id="line2d_100">
      <defs>
       <path id="m8cabd83610" d="M 0 0 
L -3.5 0 
" style="stroke: #000000; stroke-width: 0.8"/>
      </defs>
      <g>
       <use xlink:href="#m8cabd83610" x="82.875" y="509.913106" style="stroke: #000000; stroke-width: 0.8"/>
      </g>
     </g>
     <g id="text_9">
      <!-- 50000 -->
      <g transform="translate(31.3375 515.232012) scale(0.14 -0.14)">
       <use xlink:href="#DejaVuSans-35"/>
       <use xlink:href="#DejaVuSans-30" x="63.623047"/>
       <use xlink:href="#DejaVuSans-30" x="127.246094"/>
       <use xlink:href="#DejaVuSans-30" x="190.869141"/>
       <use xlink:href="#DejaVuSans-30" x="254.492188"/>
      </g>
     </g>
    </g>
    <g id="ytick_2">
     <g id="line2d_101">
      <g>
       <use xlink:href="#m8cabd83610" x="82.875" y="391.270293" style="stroke: #000000; stroke-width: 0.8"/>
      </g>
     </g>
     <g id="text_10">
      <!-- 100000 -->
      <g transform="translate(22.43 396.589199) scale(0.14 -0.14)">
       <use xlink:href="#DejaVuSans-31"/>
       <use xlink:href="#DejaVuSans-30" x="63.623047"/>
       <use xlink:href="#DejaVuSans-30" x="127.246094"/>
       <use xlink:href="#DejaVuSans-30" x="190.869141"/>
       <use xlink:href="#DejaVuSans-30" x="254.492188"/>
       <use xlink:href="#DejaVuSans-30" x="318.115234"/>
      </g>
     </g>
    </g>
    <g id="ytick_3">
     <g id="line2d_102">
      <g>
       <use xlink:href="#m8cabd83610" x="82.875" y="272.627481" style="stroke: #000000; stroke-width: 0.8"/>
      </g>
     </g>
     <g id="text_11">
      <!-- 150000 -->
      <g transform="translate(22.43 277.946387) scale(0.14 -0.14)">
       <use xlink:href="#DejaVuSans-31"/>
       <use xlink:href="#DejaVuSans-35" x="63.623047"/>
       <use xlink:href="#DejaVuSans-30" x="127.246094"/>
       <use xlink:href="#DejaVuSans-30" x="190.869141"/>
       <use xlink:href="#DejaVuSans-30" x="254.492188"/>
       <use xlink:href="#DejaVuSans-30" x="318.115234"/>
      </g>
     </g>
    </g>
    <g id="ytick_4">
     <g id="line2d_103">
      <g>
       <use xlink:href="#m8cabd83610" x="82.875" y="153.984668" style="stroke: #000000; stroke-width: 0.8"/>
      </g>
     </g>
     <g id="text_12">
      <!-- 200000 -->
      <g transform="translate(22.43 159.303574) scale(0.14 -0.14)">
       <use xlink:href="#DejaVuSans-32"/>
       <use xlink:href="#DejaVuSans-30" x="63.623047"/>
       <use xlink:href="#DejaVuSans-30" x="127.246094"/>
       <use xlink:href="#DejaVuSans-30" x="190.869141"/>
       <use xlink:href="#DejaVuSans-30" x="254.492188"/>
       <use xlink:href="#DejaVuSans-30" x="318.115234"/>
      </g>
     </g>
    </g>
    <g id="ytick_5">
     <g id="line2d_104">
      <g>
       <use xlink:href="#m8cabd83610" x="82.875" y="35.341856" style="stroke: #000000; stroke-width: 0.8"/>
      </g>
     </g>
     <g id="text_13">
      <!-- 250000 -->
      <g transform="translate(22.43 40.660762) scale(0.14 -0.14)">
       <use xlink:href="#DejaVuSans-32"/>
       <use xlink:href="#DejaVuSans-35" x="63.623047"/>
       <use xlink:href="#DejaVuSans-30" x="127.246094"/>
       <use xlink:href="#DejaVuSans-30" x="190.869141"/>
       <use xlink:href="#DejaVuSans-30" x="254.492188"/>
       <use xlink:href="#DejaVuSans-30" x="318.115234"/>
      </g>
     </g>
    </g>
    <g id="text_14">
     <!-- Petitions -->
     <g transform="translate(16.350312 324.278906) rotate(-90) scale(0.1 -0.1)">
      <defs>
       <path id="DejaVuSans-50" d="M 1259 4147 
L 1259 2394 
L 2053 2394 
Q 2494 2394 2734 2622 
Q 2975 2850 2975 3272 
Q 2975 3691 2734 3919 
Q 2494 4147 2053 4147 
L 1259 4147 
z
M 628 4666 
L 2053 4666 
Q 2838 4666 3239 4311 
Q 3641 3956 3641 3272 
Q 3641 2581 3239 2228 
Q 2838 1875 2053 1875 
L 1259 1875 
L 1259 0 
L 628 0 
L 628 4666 
z
" transform="scale(0.015625)"/>
       <path id="DejaVuSans-65" d="M 3597 1894 
L 3597 1613 
L 953 1613 
Q 991 1019 1311 708 
Q 1631 397 2203 397 
Q 2534 397 2845 478 
Q 3156 559 3463 722 
L 3463 178 
Q 3153 47 2828 -22 
Q 2503 -91 2169 -91 
Q 1331 -91 842 396 
Q 353 884 353 1716 
Q 353 2575 817 3079 
Q 1281 3584 2069 3584 
Q 2775 3584 3186 3129 
Q 3597 2675 3597 1894 
z
M 3022 2063 
Q 3016 2534 2758 2815 
Q 2500 3097 2075 3097 
Q 1594 3097 1305 2825 
Q 1016 2553 972 2059 
L 3022 2063 
z
" transform="scale(0.015625)"/>
       <path id="DejaVuSans-74" d="M 1172 4494 
L 1172 3500 
L 2356 3500 
L 2356 3053 
L 1172 3053 
L 1172 1153 
Q 1172 725 1289 603 
Q 1406 481 1766 481 
L 2356 481 
L 2356 0 
L 1766 0 
Q 1100 0 847 248 
Q 594 497 594 1153 
L 594 3053 
L 172 3053 
L 172 3500 
L 594 3500 
L 594 4494 
L 1172 4494 
z
" transform="scale(0.015625)"/>
       <path id="DejaVuSans-69" d="M 603 3500 
L 1178 3500 
L 1178 0 
L 603 0 
L 603 3500 
z
M 603 4863 
L 1178 4863 
L 1178 4134 
L 603 4134 
L 603 4863 
z
" transform="scale(0.015625)"/>
       <path id="DejaVuSans-6f" d="M 1959 3097 
Q 1497 3097 1228 2736 
Q 959 2375 959 1747 
Q 959 1119 1226 758 
Q 1494 397 1959 397 
Q 2419 397 2687 759 
Q 2956 1122 2956 1747 
Q 2956 2369 2687 2733 
Q 2419 3097 1959 3097 
z
M 1959 3584 
Q 2709 3584 3137 3096 
Q 3566 2609 3566 1747 
Q 3566 888 3137 398 
Q 2709 -91 1959 -91 
Q 1206 -91 779 398 
Q 353 888 353 1747 
Q 353 2609 779 3096 
Q 1206 3584 1959 3584 
z
" transform="scale(0.015625)"/>
       <path id="DejaVuSans-6e" d="M 3513 2113 
L 3513 0 
L 2938 0 
L 2938 2094 
Q 2938 2591 2744 2837 
Q 2550 3084 2163 3084 
Q 1697 3084 1428 2787 
Q 1159 2491 1159 1978 
L 1159 0 
L 581 0 
L 581 3500 
L 1159 3500 
L 1159 2956 
Q 1366 3272 1645 3428 
Q 1925 3584 2291 3584 
Q 2894 3584 3203 3211 
Q 3513 2838 3513 2113 
z
" transform="scale(0.015625)"/>
       <path id="DejaVuSans-73" d="M 2834 3397 
L 2834 2853 
Q 2591 2978 2328 3040 
Q 2066 3103 1784 3103 
Q 1356 3103 1142 2972 
Q 928 2841 928 2578 
Q 928 2378 1081 2264 
Q 1234 2150 1697 2047 
L 1894 2003 
Q 2506 1872 2764 1633 
Q 3022 1394 3022 966 
Q 3022 478 2636 193 
Q 2250 -91 1575 -91 
Q 1294 -91 989 -36 
Q 684 19 347 128 
L 347 722 
Q 666 556 975 473 
Q 1284 391 1588 391 
Q 1994 391 2212 530 
Q 2431 669 2431 922 
Q 2431 1156 2273 1281 
Q 2116 1406 1581 1522 
L 1381 1569 
Q 847 1681 609 1914 
Q 372 2147 372 2553 
Q 372 3047 722 3315 
Q 1072 3584 1716 3584 
Q 2034 3584 2315 3537 
Q 2597 3491 2834 3397 
z
" transform="scale(0.015625)"/>
      </defs>
      <use xlink:href="#DejaVuSans-50"/>
      <use xlink:href="#DejaVuSans-65" x="56.677734"/>
      <use xlink:href="#DejaVuSans-74" x="118.201172"/>
      <use xlink:href="#DejaVuSans-69" x="157.410156"/>
      <use xlink:href="#DejaVuSans-74" x="185.193359"/>
      <use xlink:href="#DejaVuSans-69" x="224.402344"/>
      <use xlink:href="#DejaVuSans-6f" x="252.185547"/>
      <use xlink:href="#DejaVuSans-6e" x="313.367188"/>
      <use xlink:href="#DejaVuSans-73" x="376.746094"/>
     </g>
    </g>
   </g>
   <g id="line2d_105">
    <path d="M 86.69245 592.775619 
L 94.483166 575.100213 
L 102.273881 561.828828 
L 110.064596 557.014302 
L 117.855312 554.446872 
L 125.646027 544.635111 
L 133.436742 538.707716 
L 141.227458 532.889473 
L 149.018173 528.117659 
L 156.808888 527.602749 
L 164.599603 527.593258 
L 172.390319 524.408885 
L 180.181034 513.882894 
L 187.971749 510.076833 
L 195.762465 504.773499 
L 203.55318 500.787101 
L 211.343895 499.394234 
L 219.134611 491.511605 
L 226.925326 487.983168 
L 234.716041 484.537781 
L 242.506756 483.258811 
L 250.297472 483.246947 
L 258.088187 483.090339 
L 265.878902 475.566011 
L 273.669618 462.598352 
L 281.460333 458.251279 
L 289.251048 454.466574 
L 297.041763 453.054724 
L 304.832479 449.21307 
L 312.623194 445.755818 
L 320.413909 444.05448 
L 328.204625 438.696571 
L 335.99534 434.154924 
L 343.786055 432.859345 
L 351.576771 431.464105 
L 359.367486 429.262095 
L 367.158201 419.298471 
L 374.948916 410.84873 
L 382.739632 409.178239 
L 390.530347 408.587398 
L 398.321062 406.610809 
L 406.111778 403.718297 
L 413.902493 400.65494 
L 421.693208 397.629548 
L 429.483924 396.469221 
L 437.274639 395.804821 
L 445.065354 394.853306 
L 452.856069 388.681507 
L 460.646785 372.970826 
L 468.4375 348.867352 
L 476.228215 338.502716 
L 484.018931 336.564092 
L 491.809646 291.987615 
L 499.600361 280.448415 
L 507.391076 275.712194 
L 515.181792 273.090188 
L 522.972507 272.644091 
L 530.763222 272.302399 
L 538.553938 271.953589 
L 546.344653 267.938717 
L 554.135368 257.759163 
L 561.926084 247.46334 
L 569.716799 235.985834 
L 577.507514 233.930941 
L 585.298229 226.731695 
L 593.088945 215.705032 
L 600.87966 194.69339 
L 608.670375 191.613423 
L 616.461091 190.956141 
L 624.251806 189.496835 
L 632.042521 175.556304 
L 639.833237 166.767245 
L 647.623952 148.358626 
L 655.414667 136.821799 
L 663.205382 131.772361 
L 670.996098 130.56695 
L 678.786813 123.70465 
L 686.577528 115.957274 
L 694.368244 102.785549 
L 702.158959 87.12707 
L 709.949674 85.53963 
L 717.740389 85.477935 
L 725.531105 85.477935 
L 733.32182 85.477935 
L 741.112535 78.091234 
L 748.903251 72.757053 
L 756.693966 64.383243 
L 764.484681 59.298212 
L 772.275397 50.314579 
L 780.066112 48.003417 
L 787.856827 45.675645 
L 795.647542 40.066212 
L 803.438258 40.002145 
L 811.228973 40.002145 
L 819.019688 40.002145 
L 826.810404 28.40837 
L 834.601119 19.372533 
L 842.391834 14.600719 
L 850.18255 12.899381 
" clip-path="url(#pa010a2bc24)" style="fill: none; stroke: #1f77b4; stroke-width: 1.5; stroke-linecap: square"/>
    <defs>
     <path id="m086a152600" d="M 0 3 
C 0.795609 3 1.55874 2.683901 2.12132 2.12132 
C 2.683901 1.55874 3 0.795609 3 0 
C 3 -0.795609 2.683901 -1.55874 2.12132 -2.12132 
C 1.55874 -2.683901 0.795609 -3 0 -3 
C -0.795609 -3 -1.55874 -2.683901 -2.12132 -2.12132 
C -2.683901 -1.55874 -3 -0.795609 -3 0 
C -3 0.795609 -2.683901 1.55874 -2.12132 2.12132 
C -1.55874 2.683901 -0.795609 3 0 3 
z
" style="stroke: #1f77b4"/>
    </defs>
    <g clip-path="url(#pa010a2bc24)">
     <use xlink:href="#m086a152600" x="86.69245" y="592.775619" style="fill: #1f77b4; stroke: #1f77b4"/>
     <use xlink:href="#m086a152600" x="94.483166" y="575.100213" style="fill: #1f77b4; stroke: #1f77b4"/>
     <use xlink:href="#m086a152600" x="102.273881" y="561.828828" style="fill: #1f77b4; stroke: #1f77b4"/>
     <use xlink:href="#m086a152600" x="110.064596" y="557.014302" style="fill: #1f77b4; stroke: #1f77b4"/>
     <use xlink:href="#m086a152600" x="117.855312" y="554.446872" style="fill: #1f77b4; stroke: #1f77b4"/>
     <use xlink:href="#m086a152600" x="125.646027" y="544.635111" style="fill: #1f77b4; stroke: #1f77b4"/>
     <use xlink:href="#m086a152600" x="133.436742" y="538.707716" style="fill: #1f77b4; stroke: #1f77b4"/>
     <use xlink:href="#m086a152600" x="141.227458" y="532.889473" style="fill: #1f77b4; stroke: #1f77b4"/>
     <use xlink:href="#m086a152600" x="149.018173" y="528.117659" style="fill: #1f77b4; stroke: #1f77b4"/>
     <use xlink:href="#m086a152600" x="156.808888" y="527.602749" style="fill: #1f77b4; stroke: #1f77b4"/>
     <use xlink:href="#m086a152600" x="164.599603" y="527.593258" style="fill: #1f77b4; stroke: #1f77b4"/>
     <use xlink:href="#m086a152600" x="172.390319" y="524.408885" style="fill: #1f77b4; stroke: #1f77b4"/>
     <use xlink:href="#m086a152600" x="180.181034" y="513.882894" style="fill: #1f77b4; stroke: #1f77b4"/>
     <use xlink:href="#m086a152600" x="187.971749" y="510.076833" style="fill: #1f77b4; stroke: #1f77b4"/>
     <use xlink:href="#m086a152600" x="195.762465" y="504.773499" style="fill: #1f77b4; stroke: #1f77b4"/>
     <use xlink:href="#m086a152600" x="203.55318" y="500.787101" style="fill: #1f77b4; stroke: #1f77b4"/>
     <use xlink:href="#m086a152600" x="211.343895" y="499.394234" style="fill: #1f77b4; stroke: #1f77b4"/>
     <use xlink:href="#m086a152600" x="219.134611" y="491.511605" style="fill: #1f77b4; stroke: #1f77b4"/>
     <use xlink:href="#m086a152600" x="226.925326" y="487.983168" style="fill: #1f77b4; stroke: #1f77b4"/>
     <use xlink:href="#m086a152600" x="234.716041" y="484.537781" style="fill: #1f77b4; stroke: #1f77b4"/>
     <use xlink:href="#m086a152600" x="242.506756" y="483.258811" style="fill: #1f77b4; stroke: #1f77b4"/>
     <use xlink:href="#m086a152600" x="250.297472" y="483.246947" style="fill: #1f77b4; stroke: #1f77b4"/>
     <use xlink:href="#m086a152600" x="258.088187" y="483.090339" style="fill: #1f77b4; stroke: #1f77b4"/>
     <use xlink:href="#m086a152600" x="265.878902" y="475.566011" style="fill: #1f77b4; stroke: #1f77b4"/>
     <use xlink:href="#m086a152600" x="273.669618" y="462.598352" style="fill: #1f77b4; stroke: #1f77b4"/>
     <use xlink:href="#m086a152600" x="281.460333" y="458.251279" style="fill: #1f77b4; stroke: #1f77b4"/>
     <use xlink:href="#m086a152600" x="289.251048" y="454.466574" style="fill: #1f77b4; stroke: #1f77b4"/>
     <use xlink:href="#m086a152600" x="297.041763" y="453.054724" style="fill: #1f77b4; stroke: #1f77b4"/>
     <use xlink:href="#m086a152600" x="304.832479" y="449.21307" style="fill: #1f77b4; stroke: #1f77b4"/>
     <use xlink:href="#m086a152600" x="312.623194" y="445.755818" style="fill: #1f77b4; stroke: #1f77b4"/>
     <use xlink:href="#m086a152600" x="320.413909" y="444.05448" style="fill: #1f77b4; stroke: #1f77b4"/>
     <use xlink:href="#m086a152600" x="328.204625" y="438.696571" style="fill: #1f77b4; stroke: #1f77b4"/>
     <use xlink:href="#m086a152600" x="335.99534" y="434.154924" style="fill: #1f77b4; stroke: #1f77b4"/>
     <use xlink:href="#m086a152600" x="343.786055" y="432.859345" style="fill: #1f77b4; stroke: #1f77b4"/>
     <use xlink:href="#m086a152600" x="351.576771" y="431.464105" style="fill: #1f77b4; stroke: #1f77b4"/>
     <use xlink:href="#m086a152600" x="359.367486" y="429.262095" style="fill: #1f77b4; stroke: #1f77b4"/>
     <use xlink:href="#m086a152600" x="367.158201" y="419.298471" style="fill: #1f77b4; stroke: #1f77b4"/>
     <use xlink:href="#m086a152600" x="374.948916" y="410.84873" style="fill: #1f77b4; stroke: #1f77b4"/>
     <use xlink:href="#m086a152600" x="382.739632" y="409.178239" style="fill: #1f77b4; stroke: #1f77b4"/>
     <use xlink:href="#m086a152600" x="390.530347" y="408.587398" style="fill: #1f77b4; stroke: #1f77b4"/>
     <use xlink:href="#m086a152600" x="398.321062" y="406.610809" style="fill: #1f77b4; stroke: #1f77b4"/>
     <use xlink:href="#m086a152600" x="406.111778" y="403.718297" style="fill: #1f77b4; stroke: #1f77b4"/>
     <use xlink:href="#m086a152600" x="413.902493" y="400.65494" style="fill: #1f77b4; stroke: #1f77b4"/>
     <use xlink:href="#m086a152600" x="421.693208" y="397.629548" style="fill: #1f77b4; stroke: #1f77b4"/>
     <use xlink:href="#m086a152600" x="429.483924" y="396.469221" style="fill: #1f77b4; stroke: #1f77b4"/>
     <use xlink:href="#m086a152600" x="437.274639" y="395.804821" style="fill: #1f77b4; stroke: #1f77b4"/>
     <use xlink:href="#m086a152600" x="445.065354" y="394.853306" style="fill: #1f77b4; stroke: #1f77b4"/>
     <use xlink:href="#m086a152600" x="452.856069" y="388.681507" style="fill: #1f77b4; stroke: #1f77b4"/>
     <use xlink:href="#m086a152600" x="460.646785" y="372.970826" style="fill: #1f77b4; stroke: #1f77b4"/>
     <use xlink:href="#m086a152600" x="468.4375" y="348.867352" style="fill: #1f77b4; stroke: #1f77b4"/>
     <use xlink:href="#m086a152600" x="476.228215" y="338.502716" style="fill: #1f77b4; stroke: #1f77b4"/>
     <use xlink:href="#m086a152600" x="484.018931" y="336.564092" style="fill: #1f77b4; stroke: #1f77b4"/>
     <use xlink:href="#m086a152600" x="491.809646" y="291.987615" style="fill: #1f77b4; stroke: #1f77b4"/>
     <use xlink:href="#m086a152600" x="499.600361" y="280.448415" style="fill: #1f77b4; stroke: #1f77b4"/>
     <use xlink:href="#m086a152600" x="507.391076" y="275.712194" style="fill: #1f77b4; stroke: #1f77b4"/>
     <use xlink:href="#m086a152600" x="515.181792" y="273.090188" style="fill: #1f77b4; stroke: #1f77b4"/>
     <use xlink:href="#m086a152600" x="522.972507" y="272.644091" style="fill: #1f77b4; stroke: #1f77b4"/>
     <use xlink:href="#m086a152600" x="530.763222" y="272.302399" style="fill: #1f77b4; stroke: #1f77b4"/>
     <use xlink:href="#m086a152600" x="538.553938" y="271.953589" style="fill: #1f77b4; stroke: #1f77b4"/>
     <use xlink:href="#m086a152600" x="546.344653" y="267.938717" style="fill: #1f77b4; stroke: #1f77b4"/>
     <use xlink:href="#m086a152600" x="554.135368" y="257.759163" style="fill: #1f77b4; stroke: #1f77b4"/>
     <use xlink:href="#m086a152600" x="561.926084" y="247.46334" style="fill: #1f77b4; stroke: #1f77b4"/>
     <use xlink:href="#m086a152600" x="569.716799" y="235.985834" style="fill: #1f77b4; stroke: #1f77b4"/>
     <use xlink:href="#m086a152600" x="577.507514" y="233.930941" style="fill: #1f77b4; stroke: #1f77b4"/>
     <use xlink:href="#m086a152600" x="585.298229" y="226.731695" style="fill: #1f77b4; stroke: #1f77b4"/>
     <use xlink:href="#m086a152600" x="593.088945" y="215.705032" style="fill: #1f77b4; stroke: #1f77b4"/>
     <use xlink:href="#m086a152600" x="600.87966" y="194.69339" style="fill: #1f77b4; stroke: #1f77b4"/>
     <use xlink:href="#m086a152600" x="608.670375" y="191.613423" style="fill: #1f77b4; stroke: #1f77b4"/>
     <use xlink:href="#m086a152600" x="616.461091" y="190.956141" style="fill: #1f77b4; stroke: #1f77b4"/>
     <use xlink:href="#m086a152600" x="624.251806" y="189.496835" style="fill: #1f77b4; stroke: #1f77b4"/>
     <use xlink:href="#m086a152600" x="632.042521" y="175.556304" style="fill: #1f77b4; stroke: #1f77b4"/>
     <use xlink:href="#m086a152600" x="639.833237" y="166.767245" style="fill: #1f77b4; stroke: #1f77b4"/>
     <use xlink:href="#m086a152600" x="647.623952" y="148.358626" style="fill: #1f77b4; stroke: #1f77b4"/>
     <use xlink:href="#m086a152600" x="655.414667" y="136.821799" style="fill: #1f77b4; stroke: #1f77b4"/>
     <use xlink:href="#m086a152600" x="663.205382" y="131.772361" style="fill: #1f77b4; stroke: #1f77b4"/>
     <use xlink:href="#m086a152600" x="670.996098" y="130.56695" style="fill: #1f77b4; stroke: #1f77b4"/>
     <use xlink:href="#m086a152600" x="678.786813" y="123.70465" style="fill: #1f77b4; stroke: #1f77b4"/>
     <use xlink:href="#m086a152600" x="686.577528" y="115.957274" style="fill: #1f77b4; stroke: #1f77b4"/>
     <use xlink:href="#m086a152600" x="694.368244" y="102.785549" style="fill: #1f77b4; stroke: #1f77b4"/>
     <use xlink:href="#m086a152600" x="702.158959" y="87.12707" style="fill: #1f77b4; stroke: #1f77b4"/>
     <use xlink:href="#m086a152600" x="709.949674" y="85.53963" style="fill: #1f77b4; stroke: #1f77b4"/>
     <use xlink:href="#m086a152600" x="717.740389" y="85.477935" style="fill: #1f77b4; stroke: #1f77b4"/>
     <use xlink:href="#m086a152600" x="725.531105" y="85.477935" style="fill: #1f77b4; stroke: #1f77b4"/>
     <use xlink:href="#m086a152600" x="733.32182" y="85.477935" style="fill: #1f77b4; stroke: #1f77b4"/>
     <use xlink:href="#m086a152600" x="741.112535" y="78.091234" style="fill: #1f77b4; stroke: #1f77b4"/>
     <use xlink:href="#m086a152600" x="748.903251" y="72.757053" style="fill: #1f77b4; stroke: #1f77b4"/>
     <use xlink:href="#m086a152600" x="756.693966" y="64.383243" style="fill: #1f77b4; stroke: #1f77b4"/>
     <use xlink:href="#m086a152600" x="764.484681" y="59.298212" style="fill: #1f77b4; stroke: #1f77b4"/>
     <use xlink:href="#m086a152600" x="772.275397" y="50.314579" style="fill: #1f77b4; stroke: #1f77b4"/>
     <use xlink:href="#m086a152600" x="780.066112" y="48.003417" style="fill: #1f77b4; stroke: #1f77b4"/>
     <use xlink:href="#m086a152600" x="787.856827" y="45.675645" style="fill: #1f77b4; stroke: #1f77b4"/>
     <use xlink:href="#m086a152600" x="795.647542" y="40.066212" style="fill: #1f77b4; stroke: #1f77b4"/>
     <use xlink:href="#m086a152600" x="803.438258" y="40.002145" style="fill: #1f77b4; stroke: #1f77b4"/>
     <use xlink:href="#m086a152600" x="811.228973" y="40.002145" style="fill: #1f77b4; stroke: #1f77b4"/>
     <use xlink:href="#m086a152600" x="819.019688" y="40.002145" style="fill: #1f77b4; stroke: #1f77b4"/>
     <use xlink:href="#m086a152600" x="826.810404" y="28.40837" style="fill: #1f77b4; stroke: #1f77b4"/>
     <use xlink:href="#m086a152600" x="834.601119" y="19.372533" style="fill: #1f77b4; stroke: #1f77b4"/>
     <use xlink:href="#m086a152600" x="842.391834" y="14.600719" style="fill: #1f77b4; stroke: #1f77b4"/>
     <use xlink:href="#m086a152600" x="850.18255" y="12.899381" style="fill: #1f77b4; stroke: #1f77b4"/>
    </g>
   </g>
   <g id="patch_3">
    <path d="M 82.875 595.675 
L 82.875 10 
" style="fill: none; stroke: #000000; stroke-width: 0.8; stroke-linejoin: miter; stroke-linecap: square"/>
   </g>
   <g id="patch_4">
    <path d="M 854 595.675 
L 854 10 
" style="fill: none; stroke: #000000; stroke-width: 0.8; stroke-linejoin: miter; stroke-linecap: square"/>
   </g>
   <g id="patch_5">
    <path d="M 82.875 595.675 
L 854 595.675 
" style="fill: none; stroke: #000000; stroke-width: 0.8; stroke-linejoin: miter; stroke-linecap: square"/>
   </g>
   <g id="patch_6">
    <path d="M 82.875 10 
L 854 10 
" style="fill: none; stroke: #000000; stroke-width: 0.8; stroke-linejoin: miter; stroke-linecap: square"/>
   </g>
  </g>
 </g>
 <defs>
  <clipPath id="pa010a2bc24">
   <rect x="82.875" y="10" width="771.125" height="585.675"/>
  </clipPath>
 </defs>
</svg>
